<svg width="64" height="64" viewBox="0 0 64 64" fill="none" xmlns="http://www.w3.org/2000/svg">
<path fill-rule="evenodd" clip-rule="evenodd" d="M4.92308 0C3.6174 0 2.36519 0.51868 1.44194 1.44194C0.51868 2.36519 0 3.6174 0 4.92308V59.0769C0 60.3826 0.51868 61.6348 1.44194 62.5581C2.36519 63.4813 3.6174 64 4.92308 64H59.0769C60.3826 64 61.6348 63.4813 62.5581 62.5581C63.4813 61.6348 64 60.3826 64 59.0769V4.92308C64 3.6174 63.4813 2.36519 62.5581 1.44194C61.6348 0.51868 60.3826 0 59.0769 0H4.92308ZM10.0923 24.6154H19.4462V54.1538H10.0923V24.6154ZM20.0615 14.7938C20.0615 16.1975 19.504 17.5436 18.5115 18.5361C17.519 19.5286 16.1728 20.0862 14.7692 20.0862C13.3656 20.0862 12.0195 19.5286 11.027 18.5361C10.0345 17.5436 9.47692 16.1975 9.47692 14.7938C9.47692 13.3902 10.0345 12.0441 11.027 11.0516C12.0195 10.0591 13.3656 9.50154 14.7692 9.50154C16.1728 9.50154 17.519 10.0591 18.5115 11.0516C19.504 12.0441 20.0615 13.3902 20.0615 14.7938ZM54.1538 36.2191C54.1538 27.3329 48.4086 23.8769 42.7028 23.8769C40.838 23.7863 38.9813 24.178 37.312 25.0142C36.0468 25.6542 34.7225 27.1015 33.6985 29.632H33.4375V24.6154H24.6154V54.1785H33.9988V38.4492C33.8658 36.8394 34.3778 34.7569 35.4314 33.5212C36.4898 32.2806 37.9914 31.9852 39.1385 31.8375H39.4978C42.4812 31.8375 44.6966 33.6837 44.6966 38.336V54.1735H54.08L54.1538 36.2191Z" fill="white"/>
</svg>
