<svg width="260" height="260" viewBox="0 0 260 260" fill="none" xmlns="http://www.w3.org/2000/svg">
<g clip-path="url(#clip0_145_7674)">
<path d="M76.0976 12.6829H69.7561V19.0244H76.0976V12.6829Z" fill="white"/>
<path d="M82.4391 12.6829H76.0977V19.0244H82.4391V12.6829Z" fill="white"/>
<path d="M88.7806 12.6829H82.4391V19.0244H88.7806V12.6829Z" fill="white"/>
<path d="M107.805 12.6829H101.464V19.0244H107.805V12.6829Z" fill="white"/>
<path d="M114.146 12.6829H107.805V19.0244H114.146V12.6829Z" fill="white"/>
<path d="M126.829 12.6829H120.488V19.0244H126.829V12.6829Z" fill="white"/>
<path d="M133.171 12.6829H126.829V19.0244H133.171V12.6829Z" fill="white"/>
<path d="M145.854 12.6829H139.512V19.0244H145.854V12.6829Z" fill="white"/>
<path d="M158.537 12.6829H152.195V19.0244H158.537V12.6829Z" fill="white"/>
<path d="M164.878 12.6829H158.537V19.0244H164.878V12.6829Z" fill="white"/>
<path d="M88.7806 19.0244H82.4391V25.3659H88.7806V19.0244Z" fill="white"/>
<path d="M101.464 19.0244H95.1221V25.3659H101.464V19.0244Z" fill="white"/>
<path d="M114.146 19.0244H107.805V25.3659H114.146V19.0244Z" fill="white"/>
<path d="M133.171 19.0244H126.829V25.3659H133.171V19.0244Z" fill="white"/>
<path d="M139.512 19.0244H133.171V25.3659H139.512V19.0244Z" fill="white"/>
<path d="M152.195 19.0244H145.854V25.3659H152.195V19.0244Z" fill="white"/>
<path d="M183.902 19.0244H177.561V25.3659H183.902V19.0244Z" fill="white"/>
<path d="M69.7561 25.3658H63.4147V31.7073H69.7561V25.3658Z" fill="white"/>
<path d="M76.0976 25.3658H69.7561V31.7073H76.0976V25.3658Z" fill="white"/>
<path d="M95.122 25.3658H88.7805V31.7073H95.122V25.3658Z" fill="white"/>
<path d="M107.805 25.3658H101.464V31.7073H107.805V25.3658Z" fill="white"/>
<path d="M114.146 25.3658H107.805V31.7073H114.146V25.3658Z" fill="white"/>
<path d="M120.488 25.3658H114.146V31.7073H120.488V25.3658Z" fill="white"/>
<path d="M126.829 25.3658H120.488V31.7073H126.829V25.3658Z" fill="white"/>
<path d="M133.171 25.3658H126.829V31.7073H133.171V25.3658Z" fill="white"/>
<path d="M158.537 25.3658H152.195V31.7073H158.537V25.3658Z" fill="white"/>
<path d="M177.561 25.3658H171.22V31.7073H177.561V25.3658Z" fill="white"/>
<path d="M183.902 25.3658H177.561V31.7073H183.902V25.3658Z" fill="white"/>
<path d="M69.7561 31.7073H63.4147V38.0488H69.7561V31.7073Z" fill="white"/>
<path d="M76.0976 31.7073H69.7561V38.0488H76.0976V31.7073Z" fill="white"/>
<path d="M88.7806 31.7073H82.4391V38.0488H88.7806V31.7073Z" fill="white"/>
<path d="M101.464 31.7073H95.1221V38.0488H101.464V31.7073Z" fill="white"/>
<path d="M107.805 31.7073H101.464V38.0488H107.805V31.7073Z" fill="white"/>
<path d="M126.829 31.7073H120.488V38.0488H126.829V31.7073Z" fill="white"/>
<path d="M145.854 31.7073H139.512V38.0488H145.854V31.7073Z" fill="white"/>
<path d="M152.195 31.7073H145.854V38.0488H152.195V31.7073Z" fill="white"/>
<path d="M158.537 31.7073H152.195V38.0488H158.537V31.7073Z" fill="white"/>
<path d="M171.22 31.7073H164.878V38.0488H171.22V31.7073Z" fill="white"/>
<path d="M177.561 31.7073H171.22V38.0488H177.561V31.7073Z" fill="white"/>
<path d="M190.244 31.7073H183.902V38.0488H190.244V31.7073Z" fill="white"/>
<path d="M196.585 31.7073H190.244V38.0488H196.585V31.7073Z" fill="white"/>
<path d="M76.0976 38.0488H69.7561V44.3902H76.0976V38.0488Z" fill="white"/>
<path d="M95.122 38.0488H88.7805V44.3902H95.122V38.0488Z" fill="white"/>
<path d="M126.829 38.0488H120.488V44.3902H126.829V38.0488Z" fill="white"/>
<path d="M133.171 38.0488H126.829V44.3902H133.171V38.0488Z" fill="white"/>
<path d="M139.512 38.0488H133.171V44.3902H139.512V38.0488Z" fill="white"/>
<path d="M145.854 38.0488H139.512V44.3902H145.854V38.0488Z" fill="white"/>
<path d="M164.878 38.0488H158.537V44.3902H164.878V38.0488Z" fill="white"/>
<path d="M171.22 38.0488H164.878V44.3902H171.22V38.0488Z" fill="white"/>
<path d="M183.902 38.0488H177.561V44.3902H183.902V38.0488Z" fill="white"/>
<path d="M82.4391 44.3903H76.0977V50.7317H82.4391V44.3903Z" fill="white"/>
<path d="M95.122 44.3903H88.7805V50.7317H95.122V44.3903Z" fill="white"/>
<path d="M101.464 44.3903H95.1221V50.7317H101.464V44.3903Z" fill="white"/>
<path d="M114.146 44.3903H107.805V50.7317H114.146V44.3903Z" fill="white"/>
<path d="M120.488 44.3903H114.146V50.7317H120.488V44.3903Z" fill="white"/>
<path d="M164.878 44.3903H158.537V50.7317H164.878V44.3903Z" fill="white"/>
<path d="M171.22 44.3903H164.878V50.7317H171.22V44.3903Z" fill="white"/>
<path d="M69.7561 50.7317H63.4147V57.0732H69.7561V50.7317Z" fill="white"/>
<path d="M82.4391 50.7317H76.0977V57.0732H82.4391V50.7317Z" fill="white"/>
<path d="M95.122 50.7317H88.7805V57.0732H95.122V50.7317Z" fill="white"/>
<path d="M107.805 50.7317H101.464V57.0732H107.805V50.7317Z" fill="white"/>
<path d="M120.488 50.7317H114.146V57.0732H120.488V50.7317Z" fill="white"/>
<path d="M133.171 50.7317H126.829V57.0732H133.171V50.7317Z" fill="white"/>
<path d="M145.854 50.7317H139.512V57.0732H145.854V50.7317Z" fill="white"/>
<path d="M158.537 50.7317H152.195V57.0732H158.537V50.7317Z" fill="white"/>
<path d="M171.22 50.7317H164.878V57.0732H171.22V50.7317Z" fill="white"/>
<path d="M183.902 50.7317H177.561V57.0732H183.902V50.7317Z" fill="white"/>
<path d="M196.585 50.7317H190.244V57.0732H196.585V50.7317Z" fill="white"/>
<path d="M107.805 57.0732H101.464V63.4146H107.805V57.0732Z" fill="white"/>
<path d="M114.146 57.0732H107.805V63.4146H114.146V57.0732Z" fill="white"/>
<path d="M126.829 57.0732H120.488V63.4146H126.829V57.0732Z" fill="white"/>
<path d="M139.512 57.0732H133.171V63.4146H139.512V57.0732Z" fill="white"/>
<path d="M145.854 57.0732H139.512V63.4146H145.854V57.0732Z" fill="white"/>
<path d="M152.195 57.0732H145.854V63.4146H152.195V57.0732Z" fill="white"/>
<path d="M171.22 57.0732H164.878V63.4146H171.22V57.0732Z" fill="white"/>
<path d="M177.561 57.0732H171.22V63.4146H177.561V57.0732Z" fill="white"/>
<path d="M190.244 57.0732H183.902V63.4146H190.244V57.0732Z" fill="white"/>
<path d="M196.585 57.0732H190.244V63.4146H196.585V57.0732Z" fill="white"/>
<path d="M38.0489 63.4146H31.7074V69.7561H38.0489V63.4146Z" fill="white"/>
<path d="M44.3903 63.4146H38.0488V69.7561H44.3903V63.4146Z" fill="white"/>
<path d="M57.0733 63.4146H50.7318V69.7561H57.0733V63.4146Z" fill="white"/>
<path d="M63.4147 63.4146H57.0732V69.7561H63.4147V63.4146Z" fill="white"/>
<path d="M76.0976 63.4146H69.7561V69.7561H76.0976V63.4146Z" fill="white"/>
<path d="M82.4391 63.4146H76.0977V69.7561H82.4391V63.4146Z" fill="white"/>
<path d="M88.7806 63.4146H82.4391V69.7561H88.7806V63.4146Z" fill="white"/>
<path d="M95.122 63.4146H88.7805V69.7561H95.122V63.4146Z" fill="white"/>
<path d="M101.464 63.4146H95.1221V69.7561H101.464V63.4146Z" fill="white"/>
<path d="M107.805 63.4146H101.464V69.7561H107.805V63.4146Z" fill="white"/>
<path d="M120.488 63.4146H114.146V69.7561H120.488V63.4146Z" fill="white"/>
<path d="M139.512 63.4146H133.171V69.7561H139.512V63.4146Z" fill="white"/>
<path d="M145.854 63.4146H139.512V69.7561H145.854V63.4146Z" fill="white"/>
<path d="M152.195 63.4146H145.854V69.7561H152.195V63.4146Z" fill="white"/>
<path d="M158.537 63.4146H152.195V69.7561H158.537V63.4146Z" fill="white"/>
<path d="M164.878 63.4146H158.537V69.7561H164.878V63.4146Z" fill="white"/>
<path d="M177.561 63.4146H171.22V69.7561H177.561V63.4146Z" fill="white"/>
<path d="M196.585 63.4146H190.244V69.7561H196.585V63.4146Z" fill="white"/>
<path d="M228.293 63.4146H221.951V69.7561H228.293V63.4146Z" fill="white"/>
<path d="M234.634 63.4146H228.293V69.7561H234.634V63.4146Z" fill="white"/>
<path d="M25.3659 69.7561H19.0244V76.0976H25.3659V69.7561Z" fill="white"/>
<path d="M31.7074 69.7561H25.366V76.0976H31.7074V69.7561Z" fill="white"/>
<path d="M38.0489 69.7561H31.7074V76.0976H38.0489V69.7561Z" fill="white"/>
<path d="M44.3903 69.7561H38.0488V76.0976H44.3903V69.7561Z" fill="white"/>
<path d="M63.4147 69.7561H57.0732V76.0976H63.4147V69.7561Z" fill="white"/>
<path d="M69.7561 69.7561H63.4147V76.0976H69.7561V69.7561Z" fill="white"/>
<path d="M95.122 69.7561H88.7805V76.0976H95.122V69.7561Z" fill="white"/>
<path d="M126.829 69.7561H120.488V76.0976H126.829V69.7561Z" fill="white"/>
<path d="M133.171 69.7561H126.829V76.0976H133.171V69.7561Z" fill="white"/>
<path d="M139.512 69.7561H133.171V76.0976H139.512V69.7561Z" fill="white"/>
<path d="M152.195 69.7561H145.854V76.0976H152.195V69.7561Z" fill="white"/>
<path d="M164.878 69.7561H158.537V76.0976H164.878V69.7561Z" fill="white"/>
<path d="M171.22 69.7561H164.878V76.0976H171.22V69.7561Z" fill="white"/>
<path d="M177.561 69.7561H171.22V76.0976H177.561V69.7561Z" fill="white"/>
<path d="M215.61 69.7561H209.268V76.0976H215.61V69.7561Z" fill="white"/>
<path d="M221.951 69.7561H215.61V76.0976H221.951V69.7561Z" fill="white"/>
<path d="M234.634 69.7561H228.293V76.0976H234.634V69.7561Z" fill="white"/>
<path d="M240.976 69.7561H234.634V76.0976H240.976V69.7561Z" fill="white"/>
<path d="M19.0244 76.0975H12.683V82.439H19.0244V76.0975Z" fill="white"/>
<path d="M38.0489 76.0975H31.7074V82.439H38.0489V76.0975Z" fill="white"/>
<path d="M57.0733 76.0975H50.7318V82.439H57.0733V76.0975Z" fill="white"/>
<path d="M63.4147 76.0975H57.0732V82.439H63.4147V76.0975Z" fill="white"/>
<path d="M76.0976 76.0975H69.7561V82.439H76.0976V76.0975Z" fill="white"/>
<path d="M82.4391 76.0975H76.0977V82.439H82.4391V76.0975Z" fill="white"/>
<path d="M88.7806 76.0975H82.4391V82.439H88.7806V76.0975Z" fill="white"/>
<path d="M107.805 76.0975H101.464V82.439H107.805V76.0975Z" fill="white"/>
<path d="M133.171 76.0975H126.829V82.439H133.171V76.0975Z" fill="white"/>
<path d="M139.512 76.0975H133.171V82.439H139.512V76.0975Z" fill="white"/>
<path d="M145.854 76.0975H139.512V82.439H145.854V76.0975Z" fill="white"/>
<path d="M152.195 76.0975H145.854V82.439H152.195V76.0975Z" fill="white"/>
<path d="M158.537 76.0975H152.195V82.439H158.537V76.0975Z" fill="white"/>
<path d="M164.878 76.0975H158.537V82.439H164.878V76.0975Z" fill="white"/>
<path d="M177.561 76.0975H171.22V82.439H177.561V76.0975Z" fill="white"/>
<path d="M202.927 76.0975H196.585V82.439H202.927V76.0975Z" fill="white"/>
<path d="M209.268 76.0975H202.927V82.439H209.268V76.0975Z" fill="white"/>
<path d="M215.61 76.0975H209.268V82.439H215.61V76.0975Z" fill="white"/>
<path d="M221.951 76.0975H215.61V82.439H221.951V76.0975Z" fill="white"/>
<path d="M247.317 76.0975H240.976V82.439H247.317V76.0975Z" fill="white"/>
<path d="M25.3659 82.439H19.0244V88.7805H25.3659V82.439Z" fill="white"/>
<path d="M63.4147 82.439H57.0732V88.7805H63.4147V82.439Z" fill="white"/>
<path d="M101.464 82.439H95.1221V88.7805H101.464V82.439Z" fill="white"/>
<path d="M120.488 82.439H114.146V88.7805H120.488V82.439Z" fill="white"/>
<path d="M145.854 82.439H139.512V88.7805H145.854V82.439Z" fill="white"/>
<path d="M152.195 82.439H145.854V88.7805H152.195V82.439Z" fill="white"/>
<path d="M158.537 82.439H152.195V88.7805H158.537V82.439Z" fill="white"/>
<path d="M164.878 82.439H158.537V88.7805H164.878V82.439Z" fill="white"/>
<path d="M183.902 82.439H177.561V88.7805H183.902V82.439Z" fill="white"/>
<path d="M190.244 82.439H183.902V88.7805H190.244V82.439Z" fill="white"/>
<path d="M202.927 82.439H196.585V88.7805H202.927V82.439Z" fill="white"/>
<path d="M209.268 82.439H202.927V88.7805H209.268V82.439Z" fill="white"/>
<path d="M221.951 82.439H215.61V88.7805H221.951V82.439Z" fill="white"/>
<path d="M228.293 82.439H221.951V88.7805H228.293V82.439Z" fill="white"/>
<path d="M234.634 82.439H228.293V88.7805H234.634V82.439Z" fill="white"/>
<path d="M25.3659 88.7805H19.0244V95.1219H25.3659V88.7805Z" fill="white"/>
<path d="M38.0489 88.7805H31.7074V95.1219H38.0489V88.7805Z" fill="white"/>
<path d="M50.7317 88.7805H44.3903V95.1219H50.7317V88.7805Z" fill="white"/>
<path d="M57.0733 88.7805H50.7318V95.1219H57.0733V88.7805Z" fill="white"/>
<path d="M63.4147 88.7805H57.0732V95.1219H63.4147V88.7805Z" fill="white"/>
<path d="M76.0976 88.7805H69.7561V95.1219H76.0976V88.7805Z" fill="white"/>
<path d="M95.122 88.7805H88.7805V95.1219H95.122V88.7805Z" fill="white"/>
<path d="M101.464 88.7805H95.1221V95.1219H101.464V88.7805Z" fill="white"/>
<path d="M114.146 88.7805H107.805V95.1219H114.146V88.7805Z" fill="white"/>
<path d="M120.488 88.7805H114.146V95.1219H120.488V88.7805Z" fill="white"/>
<path d="M126.829 88.7805H120.488V95.1219H126.829V88.7805Z" fill="white"/>
<path d="M164.878 88.7805H158.537V95.1219H164.878V88.7805Z" fill="white"/>
<path d="M196.585 88.7805H190.244V95.1219H196.585V88.7805Z" fill="white"/>
<path d="M209.268 88.7805H202.927V95.1219H209.268V88.7805Z" fill="white"/>
<path d="M215.61 88.7805H209.268V95.1219H215.61V88.7805Z" fill="white"/>
<path d="M228.293 88.7805H221.951V95.1219H228.293V88.7805Z" fill="white"/>
<path d="M31.7074 95.1219H25.366V101.463H31.7074V95.1219Z" fill="white"/>
<path d="M50.7317 95.1219H44.3903V101.463H50.7317V95.1219Z" fill="white"/>
<path d="M63.4147 95.1219H57.0732V101.463H63.4147V95.1219Z" fill="white"/>
<path d="M69.7561 95.1219H63.4147V101.463H69.7561V95.1219Z" fill="white"/>
<path d="M88.7806 95.1219H82.4391V101.463H88.7806V95.1219Z" fill="white"/>
<path d="M196.585 95.1219H190.244V101.463H196.585V95.1219Z" fill="white"/>
<path d="M202.927 95.1219H196.585V101.463H202.927V95.1219Z" fill="white"/>
<path d="M221.951 95.1219H215.61V101.463H221.951V95.1219Z" fill="white"/>
<path d="M234.634 95.1219H228.293V101.463H234.634V95.1219Z" fill="white"/>
<path d="M240.976 95.1219H234.634V101.463H240.976V95.1219Z" fill="white"/>
<path d="M19.0244 101.463H12.683V107.805H19.0244V101.463Z" fill="white"/>
<path d="M38.0489 101.463H31.7074V107.805H38.0489V101.463Z" fill="white"/>
<path d="M57.0733 101.463H50.7318V107.805H57.0733V101.463Z" fill="white"/>
<path d="M69.7561 101.463H63.4147V107.805H69.7561V101.463Z" fill="white"/>
<path d="M76.0976 101.463H69.7561V107.805H76.0976V101.463Z" fill="white"/>
<path d="M82.4391 101.463H76.0977V107.805H82.4391V101.463Z" fill="white"/>
<path d="M88.7806 101.463H82.4391V107.805H88.7806V101.463Z" fill="white"/>
<path d="M95.122 101.463H88.7805V107.805H95.122V101.463Z" fill="white"/>
<path d="M177.561 101.463H171.22V107.805H177.561V101.463Z" fill="white"/>
<path d="M190.244 101.463H183.902V107.805H190.244V101.463Z" fill="white"/>
<path d="M228.293 101.463H221.951V107.805H228.293V101.463Z" fill="white"/>
<path d="M234.634 101.463H228.293V107.805H234.634V101.463Z" fill="white"/>
<path d="M240.976 101.463H234.634V107.805H240.976V101.463Z" fill="white"/>
<path d="M247.317 101.463H240.976V107.805H247.317V101.463Z" fill="white"/>
<path d="M25.3659 107.805H19.0244V114.146H25.3659V107.805Z" fill="white"/>
<path d="M50.7317 107.805H44.3903V114.146H50.7317V107.805Z" fill="white"/>
<path d="M63.4147 107.805H57.0732V114.146H63.4147V107.805Z" fill="white"/>
<path d="M95.122 107.805H88.7805V114.146H95.122V107.805Z" fill="white"/>
<path d="M183.902 107.805H177.561V114.146H183.902V107.805Z" fill="white"/>
<path d="M190.244 107.805H183.902V114.146H190.244V107.805Z" fill="white"/>
<path d="M202.927 107.805H196.585V114.146H202.927V107.805Z" fill="white"/>
<path d="M209.268 107.805H202.927V114.146H209.268V107.805Z" fill="white"/>
<path d="M221.951 107.805H215.61V114.146H221.951V107.805Z" fill="white"/>
<path d="M228.293 107.805H221.951V114.146H228.293V107.805Z" fill="white"/>
<path d="M234.634 107.805H228.293V114.146H234.634V107.805Z" fill="white"/>
<path d="M19.0244 114.146H12.683V120.488H19.0244V114.146Z" fill="white"/>
<path d="M25.3659 114.146H19.0244V120.488H25.3659V114.146Z" fill="white"/>
<path d="M50.7317 114.146H44.3903V120.488H50.7317V114.146Z" fill="white"/>
<path d="M57.0733 114.146H50.7318V120.488H57.0733V114.146Z" fill="white"/>
<path d="M63.4147 114.146H57.0732V120.488H63.4147V114.146Z" fill="white"/>
<path d="M69.7561 114.146H63.4147V120.488H69.7561V114.146Z" fill="white"/>
<path d="M76.0976 114.146H69.7561V120.488H76.0976V114.146Z" fill="white"/>
<path d="M95.122 114.146H88.7805V120.488H95.122V114.146Z" fill="white"/>
<path d="M177.561 114.146H171.22V120.488H177.561V114.146Z" fill="white"/>
<path d="M209.268 114.146H202.927V120.488H209.268V114.146Z" fill="white"/>
<path d="M234.634 114.146H228.293V120.488H234.634V114.146Z" fill="white"/>
<path d="M38.0489 120.488H31.7074V126.829H38.0489V120.488Z" fill="white"/>
<path d="M44.3903 120.488H38.0488V126.829H44.3903V120.488Z" fill="white"/>
<path d="M63.4147 120.488H57.0732V126.829H63.4147V120.488Z" fill="white"/>
<path d="M69.7561 120.488H63.4147V126.829H69.7561V120.488Z" fill="white"/>
<path d="M76.0976 120.488H69.7561V126.829H76.0976V120.488Z" fill="white"/>
<path d="M95.122 120.488H88.7805V126.829H95.122V120.488Z" fill="white"/>
<path d="M177.561 120.488H171.22V126.829H177.561V120.488Z" fill="white"/>
<path d="M183.902 120.488H177.561V126.829H183.902V120.488Z" fill="white"/>
<path d="M190.244 120.488H183.902V126.829H190.244V120.488Z" fill="white"/>
<path d="M196.585 120.488H190.244V126.829H196.585V120.488Z" fill="white"/>
<path d="M215.61 120.488H209.268V126.829H215.61V120.488Z" fill="white"/>
<path d="M228.293 120.488H221.951V126.829H228.293V120.488Z" fill="white"/>
<path d="M234.634 120.488H228.293V126.829H234.634V120.488Z" fill="white"/>
<path d="M240.976 120.488H234.634V126.829H240.976V120.488Z" fill="white"/>
<path d="M31.7074 126.829H25.366V133.171H31.7074V126.829Z" fill="white"/>
<path d="M38.0489 126.829H31.7074V133.171H38.0489V126.829Z" fill="white"/>
<path d="M44.3903 126.829H38.0488V133.171H44.3903V126.829Z" fill="white"/>
<path d="M57.0733 126.829H50.7318V133.171H57.0733V126.829Z" fill="white"/>
<path d="M63.4147 126.829H57.0732V133.171H63.4147V126.829Z" fill="white"/>
<path d="M69.7561 126.829H63.4147V133.171H69.7561V126.829Z" fill="white"/>
<path d="M88.7806 126.829H82.4391V133.171H88.7806V126.829Z" fill="white"/>
<path d="M95.122 126.829H88.7805V133.171H95.122V126.829Z" fill="white"/>
<path d="M190.244 126.829H183.902V133.171H190.244V126.829Z" fill="white"/>
<path d="M215.61 126.829H209.268V133.171H215.61V126.829Z" fill="white"/>
<path d="M221.951 126.829H215.61V133.171H221.951V126.829Z" fill="white"/>
<path d="M228.293 126.829H221.951V133.171H228.293V126.829Z" fill="white"/>
<path d="M234.634 126.829H228.293V133.171H234.634V126.829Z" fill="white"/>
<path d="M247.317 126.829H240.976V133.171H247.317V126.829Z" fill="white"/>
<path d="M25.3659 133.171H19.0244V139.512H25.3659V133.171Z" fill="white"/>
<path d="M31.7074 133.171H25.366V139.512H31.7074V133.171Z" fill="white"/>
<path d="M50.7317 133.171H44.3903V139.512H50.7317V133.171Z" fill="white"/>
<path d="M63.4147 133.171H57.0732V139.512H63.4147V133.171Z" fill="white"/>
<path d="M69.7561 133.171H63.4147V139.512H69.7561V133.171Z" fill="white"/>
<path d="M76.0976 133.171H69.7561V139.512H76.0976V133.171Z" fill="white"/>
<path d="M88.7806 133.171H82.4391V139.512H88.7806V133.171Z" fill="white"/>
<path d="M95.122 133.171H88.7805V139.512H95.122V133.171Z" fill="white"/>
<path d="M177.561 133.171H171.22V139.512H177.561V133.171Z" fill="white"/>
<path d="M202.927 133.171H196.585V139.512H202.927V133.171Z" fill="white"/>
<path d="M209.268 133.171H202.927V139.512H209.268V133.171Z" fill="white"/>
<path d="M228.293 133.171H221.951V139.512H228.293V133.171Z" fill="white"/>
<path d="M240.976 133.171H234.634V139.512H240.976V133.171Z" fill="white"/>
<path d="M19.0244 139.512H12.683V145.854H19.0244V139.512Z" fill="white"/>
<path d="M25.3659 139.512H19.0244V145.854H25.3659V139.512Z" fill="white"/>
<path d="M44.3903 139.512H38.0488V145.854H44.3903V139.512Z" fill="white"/>
<path d="M50.7317 139.512H44.3903V145.854H50.7317V139.512Z" fill="white"/>
<path d="M57.0733 139.512H50.7318V145.854H57.0733V139.512Z" fill="white"/>
<path d="M63.4147 139.512H57.0732V145.854H63.4147V139.512Z" fill="white"/>
<path d="M76.0976 139.512H69.7561V145.854H76.0976V139.512Z" fill="white"/>
<path d="M82.4391 139.512H76.0977V145.854H82.4391V139.512Z" fill="white"/>
<path d="M183.902 139.512H177.561V145.854H183.902V139.512Z" fill="white"/>
<path d="M196.585 139.512H190.244V145.854H196.585V139.512Z" fill="white"/>
<path d="M202.927 139.512H196.585V145.854H202.927V139.512Z" fill="white"/>
<path d="M209.268 139.512H202.927V145.854H209.268V139.512Z" fill="white"/>
<path d="M221.951 139.512H215.61V145.854H221.951V139.512Z" fill="white"/>
<path d="M228.293 139.512H221.951V145.854H228.293V139.512Z" fill="white"/>
<path d="M240.976 139.512H234.634V145.854H240.976V139.512Z" fill="white"/>
<path d="M247.317 139.512H240.976V145.854H247.317V139.512Z" fill="white"/>
<path d="M38.0489 145.854H31.7074V152.195H38.0489V145.854Z" fill="white"/>
<path d="M63.4147 145.854H57.0732V152.195H63.4147V145.854Z" fill="white"/>
<path d="M82.4391 145.854H76.0977V152.195H82.4391V145.854Z" fill="white"/>
<path d="M88.7806 145.854H82.4391V152.195H88.7806V145.854Z" fill="white"/>
<path d="M177.561 145.854H171.22V152.195H177.561V145.854Z" fill="white"/>
<path d="M183.902 145.854H177.561V152.195H183.902V145.854Z" fill="white"/>
<path d="M190.244 145.854H183.902V152.195H190.244V145.854Z" fill="white"/>
<path d="M196.585 145.854H190.244V152.195H196.585V145.854Z" fill="white"/>
<path d="M202.927 145.854H196.585V152.195H202.927V145.854Z" fill="white"/>
<path d="M215.61 145.854H209.268V152.195H215.61V145.854Z" fill="white"/>
<path d="M221.951 145.854H215.61V152.195H221.951V145.854Z" fill="white"/>
<path d="M228.293 145.854H221.951V152.195H228.293V145.854Z" fill="white"/>
<path d="M234.634 145.854H228.293V152.195H234.634V145.854Z" fill="white"/>
<path d="M19.0244 152.195H12.683V158.537H19.0244V152.195Z" fill="white"/>
<path d="M31.7074 152.195H25.366V158.537H31.7074V152.195Z" fill="white"/>
<path d="M44.3903 152.195H38.0488V158.537H44.3903V152.195Z" fill="white"/>
<path d="M57.0733 152.195H50.7318V158.537H57.0733V152.195Z" fill="white"/>
<path d="M63.4147 152.195H57.0732V158.537H63.4147V152.195Z" fill="white"/>
<path d="M76.0976 152.195H69.7561V158.537H76.0976V152.195Z" fill="white"/>
<path d="M95.122 152.195H88.7805V158.537H95.122V152.195Z" fill="white"/>
<path d="M171.22 152.195H164.878V158.537H171.22V152.195Z" fill="white"/>
<path d="M177.561 152.195H171.22V158.537H177.561V152.195Z" fill="white"/>
<path d="M190.244 152.195H183.902V158.537H190.244V152.195Z" fill="white"/>
<path d="M221.951 152.195H215.61V158.537H221.951V152.195Z" fill="white"/>
<path d="M228.293 152.195H221.951V158.537H228.293V152.195Z" fill="white"/>
<path d="M247.317 152.195H240.976V158.537H247.317V152.195Z" fill="white"/>
<path d="M25.3659 158.537H19.0244V164.878H25.3659V158.537Z" fill="white"/>
<path d="M31.7074 158.537H25.366V164.878H31.7074V158.537Z" fill="white"/>
<path d="M38.0489 158.537H31.7074V164.878H38.0489V158.537Z" fill="white"/>
<path d="M63.4147 158.537H57.0732V164.878H63.4147V158.537Z" fill="white"/>
<path d="M76.0976 158.537H69.7561V164.878H76.0976V158.537Z" fill="white"/>
<path d="M171.22 158.537H164.878V164.878H171.22V158.537Z" fill="white"/>
<path d="M177.561 158.537H171.22V164.878H177.561V158.537Z" fill="white"/>
<path d="M190.244 158.537H183.902V164.878H190.244V158.537Z" fill="white"/>
<path d="M196.585 158.537H190.244V164.878H196.585V158.537Z" fill="white"/>
<path d="M202.927 158.537H196.585V164.878H202.927V158.537Z" fill="white"/>
<path d="M215.61 158.537H209.268V164.878H215.61V158.537Z" fill="white"/>
<path d="M228.293 158.537H221.951V164.878H228.293V158.537Z" fill="white"/>
<path d="M234.634 158.537H228.293V164.878H234.634V158.537Z" fill="white"/>
<path d="M240.976 158.537H234.634V164.878H240.976V158.537Z" fill="white"/>
<path d="M247.317 158.537H240.976V164.878H247.317V158.537Z" fill="white"/>
<path d="M19.0244 164.878H12.683V171.22H19.0244V164.878Z" fill="white"/>
<path d="M31.7074 164.878H25.366V171.22H31.7074V164.878Z" fill="white"/>
<path d="M38.0489 164.878H31.7074V171.22H38.0489V164.878Z" fill="white"/>
<path d="M50.7317 164.878H44.3903V171.22H50.7317V164.878Z" fill="white"/>
<path d="M57.0733 164.878H50.7318V171.22H57.0733V164.878Z" fill="white"/>
<path d="M76.0976 164.878H69.7561V171.22H76.0976V164.878Z" fill="white"/>
<path d="M88.7806 164.878H82.4391V171.22H88.7806V164.878Z" fill="white"/>
<path d="M95.122 164.878H88.7805V171.22H95.122V164.878Z" fill="white"/>
<path d="M107.805 164.878H101.464V171.22H107.805V164.878Z" fill="white"/>
<path d="M114.146 164.878H107.805V171.22H114.146V164.878Z" fill="white"/>
<path d="M120.488 164.878H114.146V171.22H120.488V164.878Z" fill="white"/>
<path d="M126.829 164.878H120.488V171.22H126.829V164.878Z" fill="white"/>
<path d="M133.171 164.878H126.829V171.22H133.171V164.878Z" fill="white"/>
<path d="M139.512 164.878H133.171V171.22H139.512V164.878Z" fill="white"/>
<path d="M158.537 164.878H152.195V171.22H158.537V164.878Z" fill="white"/>
<path d="M171.22 164.878H164.878V171.22H171.22V164.878Z" fill="white"/>
<path d="M177.561 164.878H171.22V171.22H177.561V164.878Z" fill="white"/>
<path d="M196.585 164.878H190.244V171.22H196.585V164.878Z" fill="white"/>
<path d="M209.268 164.878H202.927V171.22H209.268V164.878Z" fill="white"/>
<path d="M215.61 164.878H209.268V171.22H215.61V164.878Z" fill="white"/>
<path d="M228.293 164.878H221.951V171.22H228.293V164.878Z" fill="white"/>
<path d="M247.317 164.878H240.976V171.22H247.317V164.878Z" fill="white"/>
<path d="M19.0244 171.219H12.683V177.561H19.0244V171.219Z" fill="white"/>
<path d="M38.0489 171.219H31.7074V177.561H38.0489V171.219Z" fill="white"/>
<path d="M50.7317 171.219H44.3903V177.561H50.7317V171.219Z" fill="white"/>
<path d="M63.4147 171.219H57.0732V177.561H63.4147V171.219Z" fill="white"/>
<path d="M69.7561 171.219H63.4147V177.561H69.7561V171.219Z" fill="white"/>
<path d="M82.4391 171.219H76.0977V177.561H82.4391V171.219Z" fill="white"/>
<path d="M88.7806 171.219H82.4391V177.561H88.7806V171.219Z" fill="white"/>
<path d="M107.805 171.219H101.464V177.561H107.805V171.219Z" fill="white"/>
<path d="M120.488 171.219H114.146V177.561H120.488V171.219Z" fill="white"/>
<path d="M126.829 171.219H120.488V177.561H126.829V171.219Z" fill="white"/>
<path d="M133.171 171.219H126.829V177.561H133.171V171.219Z" fill="white"/>
<path d="M139.512 171.219H133.171V177.561H139.512V171.219Z" fill="white"/>
<path d="M152.195 171.219H145.854V177.561H152.195V171.219Z" fill="white"/>
<path d="M158.537 171.219H152.195V177.561H158.537V171.219Z" fill="white"/>
<path d="M177.561 171.219H171.22V177.561H177.561V171.219Z" fill="white"/>
<path d="M183.902 171.219H177.561V177.561H183.902V171.219Z" fill="white"/>
<path d="M209.268 171.219H202.927V177.561H209.268V171.219Z" fill="white"/>
<path d="M221.951 171.219H215.61V177.561H221.951V171.219Z" fill="white"/>
<path d="M228.293 171.219H221.951V177.561H228.293V171.219Z" fill="white"/>
<path d="M234.634 171.219H228.293V177.561H234.634V171.219Z" fill="white"/>
<path d="M19.0244 177.561H12.683V183.902H19.0244V177.561Z" fill="white"/>
<path d="M25.3659 177.561H19.0244V183.902H25.3659V177.561Z" fill="white"/>
<path d="M31.7074 177.561H25.366V183.902H31.7074V177.561Z" fill="white"/>
<path d="M38.0489 177.561H31.7074V183.902H38.0489V177.561Z" fill="white"/>
<path d="M44.3903 177.561H38.0488V183.902H44.3903V177.561Z" fill="white"/>
<path d="M50.7317 177.561H44.3903V183.902H50.7317V177.561Z" fill="white"/>
<path d="M57.0733 177.561H50.7318V183.902H57.0733V177.561Z" fill="white"/>
<path d="M63.4147 177.561H57.0732V183.902H63.4147V177.561Z" fill="white"/>
<path d="M76.0976 177.561H69.7561V183.902H76.0976V177.561Z" fill="white"/>
<path d="M82.4391 177.561H76.0977V183.902H82.4391V177.561Z" fill="white"/>
<path d="M88.7806 177.561H82.4391V183.902H88.7806V177.561Z" fill="white"/>
<path d="M120.488 177.561H114.146V183.902H120.488V177.561Z" fill="white"/>
<path d="M152.195 177.561H145.854V183.902H152.195V177.561Z" fill="white"/>
<path d="M164.878 177.561H158.537V183.902H164.878V177.561Z" fill="white"/>
<path d="M171.22 177.561H164.878V183.902H171.22V177.561Z" fill="white"/>
<path d="M190.244 177.561H183.902V183.902H190.244V177.561Z" fill="white"/>
<path d="M196.585 177.561H190.244V183.902H196.585V177.561Z" fill="white"/>
<path d="M209.268 177.561H202.927V183.902H209.268V177.561Z" fill="white"/>
<path d="M215.61 177.561H209.268V183.902H215.61V177.561Z" fill="white"/>
<path d="M228.293 177.561H221.951V183.902H228.293V177.561Z" fill="white"/>
<path d="M247.317 177.561H240.976V183.902H247.317V177.561Z" fill="white"/>
<path d="M19.0244 183.902H12.683V190.244H19.0244V183.902Z" fill="white"/>
<path d="M31.7074 183.902H25.366V190.244H31.7074V183.902Z" fill="white"/>
<path d="M44.3903 183.902H38.0488V190.244H44.3903V183.902Z" fill="white"/>
<path d="M50.7317 183.902H44.3903V190.244H50.7317V183.902Z" fill="white"/>
<path d="M82.4391 183.902H76.0977V190.244H82.4391V183.902Z" fill="white"/>
<path d="M88.7806 183.902H82.4391V190.244H88.7806V183.902Z" fill="white"/>
<path d="M107.805 183.902H101.464V190.244H107.805V183.902Z" fill="white"/>
<path d="M114.146 183.902H107.805V190.244H114.146V183.902Z" fill="white"/>
<path d="M133.171 183.902H126.829V190.244H133.171V183.902Z" fill="white"/>
<path d="M139.512 183.902H133.171V190.244H139.512V183.902Z" fill="white"/>
<path d="M158.537 183.902H152.195V190.244H158.537V183.902Z" fill="white"/>
<path d="M164.878 183.902H158.537V190.244H164.878V183.902Z" fill="white"/>
<path d="M183.902 183.902H177.561V190.244H183.902V183.902Z" fill="white"/>
<path d="M190.244 183.902H183.902V190.244H190.244V183.902Z" fill="white"/>
<path d="M196.585 183.902H190.244V190.244H196.585V183.902Z" fill="white"/>
<path d="M202.927 183.902H196.585V190.244H202.927V183.902Z" fill="white"/>
<path d="M215.61 183.902H209.268V190.244H215.61V183.902Z" fill="white"/>
<path d="M221.951 183.902H215.61V190.244H221.951V183.902Z" fill="white"/>
<path d="M228.293 183.902H221.951V190.244H228.293V183.902Z" fill="white"/>
<path d="M234.634 183.902H228.293V190.244H234.634V183.902Z" fill="white"/>
<path d="M19.0244 190.244H12.683V196.585H19.0244V190.244Z" fill="white"/>
<path d="M38.0489 190.244H31.7074V196.585H38.0489V190.244Z" fill="white"/>
<path d="M44.3903 190.244H38.0488V196.585H44.3903V190.244Z" fill="white"/>
<path d="M57.0733 190.244H50.7318V196.585H57.0733V190.244Z" fill="white"/>
<path d="M69.7561 190.244H63.4147V196.585H69.7561V190.244Z" fill="white"/>
<path d="M82.4391 190.244H76.0977V196.585H82.4391V190.244Z" fill="white"/>
<path d="M88.7806 190.244H82.4391V196.585H88.7806V190.244Z" fill="white"/>
<path d="M107.805 190.244H101.464V196.585H107.805V190.244Z" fill="white"/>
<path d="M114.146 190.244H107.805V196.585H114.146V190.244Z" fill="white"/>
<path d="M120.488 190.244H114.146V196.585H120.488V190.244Z" fill="white"/>
<path d="M139.512 190.244H133.171V196.585H139.512V190.244Z" fill="white"/>
<path d="M145.854 190.244H139.512V196.585H145.854V190.244Z" fill="white"/>
<path d="M152.195 190.244H145.854V196.585H152.195V190.244Z" fill="white"/>
<path d="M158.537 190.244H152.195V196.585H158.537V190.244Z" fill="white"/>
<path d="M177.561 190.244H171.22V196.585H177.561V190.244Z" fill="white"/>
<path d="M190.244 190.244H183.902V196.585H190.244V190.244Z" fill="white"/>
<path d="M196.585 190.244H190.244V196.585H196.585V190.244Z" fill="white"/>
<path d="M202.927 190.244H196.585V196.585H202.927V190.244Z" fill="white"/>
<path d="M209.268 190.244H202.927V196.585H209.268V190.244Z" fill="white"/>
<path d="M215.61 190.244H209.268V196.585H215.61V190.244Z" fill="white"/>
<path d="M221.951 190.244H215.61V196.585H221.951V190.244Z" fill="white"/>
<path d="M234.634 190.244H228.293V196.585H234.634V190.244Z" fill="white"/>
<path d="M240.976 190.244H234.634V196.585H240.976V190.244Z" fill="white"/>
<path d="M69.7561 196.585H63.4147V202.927H69.7561V196.585Z" fill="white"/>
<path d="M82.4391 196.585H76.0977V202.927H82.4391V196.585Z" fill="white"/>
<path d="M88.7806 196.585H82.4391V202.927H88.7806V196.585Z" fill="white"/>
<path d="M101.464 196.585H95.1221V202.927H101.464V196.585Z" fill="white"/>
<path d="M126.829 196.585H120.488V202.927H126.829V196.585Z" fill="white"/>
<path d="M133.171 196.585H126.829V202.927H133.171V196.585Z" fill="white"/>
<path d="M145.854 196.585H139.512V202.927H145.854V196.585Z" fill="white"/>
<path d="M177.561 196.585H171.22V202.927H177.561V196.585Z" fill="white"/>
<path d="M196.585 196.585H190.244V202.927H196.585V196.585Z" fill="white"/>
<path d="M221.951 196.585H215.61V202.927H221.951V196.585Z" fill="white"/>
<path d="M228.293 196.585H221.951V202.927H228.293V196.585Z" fill="white"/>
<path d="M234.634 196.585H228.293V202.927H234.634V196.585Z" fill="white"/>
<path d="M240.976 196.585H234.634V202.927H240.976V196.585Z" fill="white"/>
<path d="M69.7561 202.927H63.4147V209.268H69.7561V202.927Z" fill="white"/>
<path d="M95.122 202.927H88.7805V209.268H95.122V202.927Z" fill="white"/>
<path d="M101.464 202.927H95.1221V209.268H101.464V202.927Z" fill="white"/>
<path d="M120.488 202.927H114.146V209.268H120.488V202.927Z" fill="white"/>
<path d="M133.171 202.927H126.829V209.268H133.171V202.927Z" fill="white"/>
<path d="M145.854 202.927H139.512V209.268H145.854V202.927Z" fill="white"/>
<path d="M164.878 202.927H158.537V209.268H164.878V202.927Z" fill="white"/>
<path d="M177.561 202.927H171.22V209.268H177.561V202.927Z" fill="white"/>
<path d="M183.902 202.927H177.561V209.268H183.902V202.927Z" fill="white"/>
<path d="M196.585 202.927H190.244V209.268H196.585V202.927Z" fill="white"/>
<path d="M209.268 202.927H202.927V209.268H209.268V202.927Z" fill="white"/>
<path d="M221.951 202.927H215.61V209.268H221.951V202.927Z" fill="white"/>
<path d="M228.293 202.927H221.951V209.268H228.293V202.927Z" fill="white"/>
<path d="M234.634 202.927H228.293V209.268H234.634V202.927Z" fill="white"/>
<path d="M247.317 202.927H240.976V209.268H247.317V202.927Z" fill="white"/>
<path d="M76.0976 209.268H69.7561V215.61H76.0976V209.268Z" fill="white"/>
<path d="M101.464 209.268H95.1221V215.61H101.464V209.268Z" fill="white"/>
<path d="M107.805 209.268H101.464V215.61H107.805V209.268Z" fill="white"/>
<path d="M114.146 209.268H107.805V215.61H114.146V209.268Z" fill="white"/>
<path d="M145.854 209.268H139.512V215.61H145.854V209.268Z" fill="white"/>
<path d="M158.537 209.268H152.195V215.61H158.537V209.268Z" fill="white"/>
<path d="M164.878 209.268H158.537V215.61H164.878V209.268Z" fill="white"/>
<path d="M171.22 209.268H164.878V215.61H171.22V209.268Z" fill="white"/>
<path d="M177.561 209.268H171.22V215.61H177.561V209.268Z" fill="white"/>
<path d="M196.585 209.268H190.244V215.61H196.585V209.268Z" fill="white"/>
<path d="M221.951 209.268H215.61V215.61H221.951V209.268Z" fill="white"/>
<path d="M228.293 209.268H221.951V215.61H228.293V209.268Z" fill="white"/>
<path d="M240.976 209.268H234.634V215.61H240.976V209.268Z" fill="white"/>
<path d="M247.317 209.268H240.976V215.61H247.317V209.268Z" fill="white"/>
<path d="M69.7561 215.61H63.4147V221.951H69.7561V215.61Z" fill="white"/>
<path d="M76.0976 215.61H69.7561V221.951H76.0976V215.61Z" fill="white"/>
<path d="M82.4391 215.61H76.0977V221.951H82.4391V215.61Z" fill="white"/>
<path d="M114.146 215.61H107.805V221.951H114.146V215.61Z" fill="white"/>
<path d="M120.488 215.61H114.146V221.951H120.488V215.61Z" fill="white"/>
<path d="M145.854 215.61H139.512V221.951H145.854V215.61Z" fill="white"/>
<path d="M158.537 215.61H152.195V221.951H158.537V215.61Z" fill="white"/>
<path d="M183.902 215.61H177.561V221.951H183.902V215.61Z" fill="white"/>
<path d="M190.244 215.61H183.902V221.951H190.244V215.61Z" fill="white"/>
<path d="M196.585 215.61H190.244V221.951H196.585V215.61Z" fill="white"/>
<path d="M202.927 215.61H196.585V221.951H202.927V215.61Z" fill="white"/>
<path d="M209.268 215.61H202.927V221.951H209.268V215.61Z" fill="white"/>
<path d="M215.61 215.61H209.268V221.951H215.61V215.61Z" fill="white"/>
<path d="M221.951 215.61H215.61V221.951H221.951V215.61Z" fill="white"/>
<path d="M240.976 215.61H234.634V221.951H240.976V215.61Z" fill="white"/>
<path d="M247.317 215.61H240.976V221.951H247.317V215.61Z" fill="white"/>
<path d="M69.7561 221.951H63.4147V228.293H69.7561V221.951Z" fill="white"/>
<path d="M76.0976 221.951H69.7561V228.293H76.0976V221.951Z" fill="white"/>
<path d="M88.7806 221.951H82.4391V228.293H88.7806V221.951Z" fill="white"/>
<path d="M101.464 221.951H95.1221V228.293H101.464V221.951Z" fill="white"/>
<path d="M107.805 221.951H101.464V228.293H107.805V221.951Z" fill="white"/>
<path d="M114.146 221.951H107.805V228.293H114.146V221.951Z" fill="white"/>
<path d="M126.829 221.951H120.488V228.293H126.829V221.951Z" fill="white"/>
<path d="M145.854 221.951H139.512V228.293H145.854V221.951Z" fill="white"/>
<path d="M171.22 221.951H164.878V228.293H171.22V221.951Z" fill="white"/>
<path d="M177.561 221.951H171.22V228.293H177.561V221.951Z" fill="white"/>
<path d="M190.244 221.951H183.902V228.293H190.244V221.951Z" fill="white"/>
<path d="M209.268 221.951H202.927V228.293H209.268V221.951Z" fill="white"/>
<path d="M234.634 221.951H228.293V228.293H234.634V221.951Z" fill="white"/>
<path d="M88.7806 228.293H82.4391V234.634H88.7806V228.293Z" fill="white"/>
<path d="M107.805 228.293H101.464V234.634H107.805V228.293Z" fill="white"/>
<path d="M114.146 228.293H107.805V234.634H114.146V228.293Z" fill="white"/>
<path d="M126.829 228.293H120.488V234.634H126.829V228.293Z" fill="white"/>
<path d="M158.537 228.293H152.195V234.634H158.537V228.293Z" fill="white"/>
<path d="M164.878 228.293H158.537V234.634H164.878V228.293Z" fill="white"/>
<path d="M177.561 228.293H171.22V234.634H177.561V228.293Z" fill="white"/>
<path d="M190.244 228.293H183.902V234.634H190.244V228.293Z" fill="white"/>
<path d="M215.61 228.293H209.268V234.634H215.61V228.293Z" fill="white"/>
<path d="M221.951 228.293H215.61V234.634H221.951V228.293Z" fill="white"/>
<path d="M240.976 228.293H234.634V234.634H240.976V228.293Z" fill="white"/>
<path d="M247.317 228.293H240.976V234.634H247.317V228.293Z" fill="white"/>
<path d="M82.4391 234.634H76.0977V240.976H82.4391V234.634Z" fill="white"/>
<path d="M88.7806 234.634H82.4391V240.976H88.7806V234.634Z" fill="white"/>
<path d="M95.122 234.634H88.7805V240.976H95.122V234.634Z" fill="white"/>
<path d="M107.805 234.634H101.464V240.976H107.805V234.634Z" fill="white"/>
<path d="M114.146 234.634H107.805V240.976H114.146V234.634Z" fill="white"/>
<path d="M120.488 234.634H114.146V240.976H120.488V234.634Z" fill="white"/>
<path d="M126.829 234.634H120.488V240.976H126.829V234.634Z" fill="white"/>
<path d="M133.171 234.634H126.829V240.976H133.171V234.634Z" fill="white"/>
<path d="M152.195 234.634H145.854V240.976H152.195V234.634Z" fill="white"/>
<path d="M158.537 234.634H152.195V240.976H158.537V234.634Z" fill="white"/>
<path d="M164.878 234.634H158.537V240.976H164.878V234.634Z" fill="white"/>
<path d="M171.22 234.634H164.878V240.976H171.22V234.634Z" fill="white"/>
<path d="M190.244 234.634H183.902V240.976H190.244V234.634Z" fill="white"/>
<path d="M209.268 234.634H202.927V240.976H209.268V234.634Z" fill="white"/>
<path d="M215.61 234.634H209.268V240.976H215.61V234.634Z" fill="white"/>
<path d="M228.293 234.634H221.951V240.976H228.293V234.634Z" fill="white"/>
<path d="M234.634 234.634H228.293V240.976H234.634V234.634Z" fill="white"/>
<path d="M240.976 234.634H234.634V240.976H240.976V234.634Z" fill="white"/>
<path d="M247.317 234.634H240.976V240.976H247.317V234.634Z" fill="white"/>
<path d="M76.0976 240.976H69.7561V247.317H76.0976V240.976Z" fill="white"/>
<path d="M82.4391 240.976H76.0977V247.317H82.4391V240.976Z" fill="white"/>
<path d="M95.122 240.976H88.7805V247.317H95.122V240.976Z" fill="white"/>
<path d="M114.146 240.976H107.805V247.317H114.146V240.976Z" fill="white"/>
<path d="M126.829 240.976H120.488V247.317H126.829V240.976Z" fill="white"/>
<path d="M145.854 240.976H139.512V247.317H145.854V240.976Z" fill="white"/>
<path d="M164.878 240.976H158.537V247.317H164.878V240.976Z" fill="white"/>
<path d="M196.585 240.976H190.244V247.317H196.585V240.976Z" fill="white"/>
<path d="M202.927 240.976H196.585V247.317H202.927V240.976Z" fill="white"/>
<path d="M209.268 240.976H202.927V247.317H209.268V240.976Z" fill="white"/>
<path d="M221.951 240.976H215.61V247.317H221.951V240.976Z" fill="white"/>
<path d="M228.293 240.976H221.951V247.317H228.293V240.976Z" fill="white"/>
<path d="M247.317 240.976H240.976V247.317H247.317V240.976Z" fill="white"/>
<path d="M57.0732 12.6829V27.8382V41.9179C57.0732 45.6871 57.0732 57.0732 57.0732 57.0732C57.0732 57.0732 46.6238 57.0732 42.0915 57.0732H12.683L12.6919 27.8382C12.6919 19.4835 19.4125 12.6829 27.678 12.6829H42.0915H57.0732ZM50.4147 19.3415H27.678C23.0863 19.3415 19.3504 23.1528 19.3504 27.84L19.3433 50.4146H50.4147V19.3415Z" fill="white"/>
<path d="M202.927 12.6829V27.8382V41.9179C202.927 45.6871 202.927 57.0732 202.927 57.0732C202.927 57.0732 213.376 57.0732 217.909 57.0732H247.317L247.308 27.8382C247.308 19.4835 240.588 12.6829 232.322 12.6829H217.909H202.927ZM209.585 19.3415H232.322C236.914 19.3415 240.65 23.1528 240.65 27.84L240.657 50.4146H209.585V19.3415Z" fill="white"/>
<path d="M57.0732 247.317V232.162V218.082C57.0732 214.313 57.0732 202.927 57.0732 202.927C57.0732 202.927 46.6238 202.927 42.0915 202.927H12.683L12.6919 232.162C12.6919 240.516 19.4125 247.317 27.678 247.317H42.0915H57.0732ZM50.4147 240.659H27.678C23.0863 240.659 19.3504 236.847 19.3504 232.16L19.3433 209.585H50.4147V240.659Z" fill="white"/>
<path d="M44.3904 25.3658H25.366V44.3902H44.3904V25.3658Z" fill="white"/>
<path d="M234.634 25.3658H215.61V44.3902H234.634V25.3658Z" fill="white"/>
<path d="M44.3904 215.61H25.366V234.634H44.3904V215.61Z" fill="white"/>
<path d="M147.247 122.108L138.825 126.278C138.885 135.693 138.917 140.4 138.92 140.4C141.566 141.984 144.389 143.34 147.346 144.447C147.346 143.938 147.346 143.399 147.346 142.83L147.247 122.108Z" fill="url(#paint0_linear_145_7674)"/>
<path d="M159.959 137.163L159.994 124.528L159.959 115.809L151.39 120.068L151.472 134.153C151.472 137.498 151.776 141.957 151.169 145.529C153.024 145.9 154.762 145.937 156.171 145.48C158.937 144.581 160.254 141.716 159.959 137.163Z" fill="url(#paint1_linear_145_7674)"/>
<path d="M118.205 103.861C126.35 99.6992 128.924 98.3241 137.155 102.65L158.152 113.134L149.522 117.34L135.27 110.205C130.164 107.648 122.652 103.3 118.205 103.861Z" fill="url(#paint2_linear_145_7674)"/>
<path d="M105.47 110.157C113.637 105.991 116.211 104.62 124.447 108.942L145.439 119.425L136.813 123.632L122.561 116.497C117.451 113.94 109.944 109.592 105.47 110.157Z" fill="url(#paint3_linear_145_7674)"/>
<path d="M112.753 137.906L121.179 133.722C121.115 124.307 121.084 119.6 121.084 119.6C118.436 118.021 115.612 116.671 112.653 115.571C112.653 116.077 112.653 116.616 112.653 117.184L112.753 137.906Z" fill="url(#paint4_linear_145_7674)"/>
<path d="M100.039 122.848L100 135.465L100.044 144.183L108.609 139.943L108.526 125.858C108.505 122.514 108.227 118.054 108.83 114.483C106.979 114.111 105.237 114.074 103.828 114.531C101.067 115.43 99.749 118.296 100.039 122.848Z" fill="url(#paint5_linear_145_7674)"/>
<path d="M141.815 156.139C133.649 160.301 131.074 161.676 122.843 157.35L101.851 146.866L110.476 142.66L124.728 149.799C129.839 152.355 137.346 156.703 141.815 156.142V156.139Z" fill="url(#paint6_linear_145_7674)"/>
<path d="M154.528 149.843C146.379 154.009 143.779 155.373 135.543 151.058L114.56 140.575L123.19 136.368L137.442 143.503C142.548 146.06 150.059 150.408 154.528 149.843Z" fill="url(#paint7_linear_145_7674)"/>
</g>
<defs>
<linearGradient id="paint0_linear_145_7674" x1="137.997" y1="139.568" x2="150.743" y2="125.213" gradientUnits="userSpaceOnUse">
<stop stop-color="#4B31B0"/>
<stop offset="0.09" stop-color="#5D41C3"/>
<stop offset="0.21" stop-color="#7152D7"/>
<stop offset="0.34" stop-color="#7C5CE3"/>
<stop offset="0.46" stop-color="#805FE7"/>
<stop offset="0.55" stop-color="#8065E8"/>
<stop offset="0.67" stop-color="#7F76EC"/>
<stop offset="0.81" stop-color="#7E93F3"/>
<stop offset="0.95" stop-color="#7CBAFC"/>
<stop offset="1" stop-color="#7BC8FF"/>
</linearGradient>
<linearGradient id="paint1_linear_145_7674" x1="145.131" y1="140.155" x2="163.752" y2="119.185" gradientUnits="userSpaceOnUse">
<stop stop-color="#4B31B0"/>
<stop offset="0.09" stop-color="#5D41C3"/>
<stop offset="0.21" stop-color="#7152D7"/>
<stop offset="0.34" stop-color="#7C5CE3"/>
<stop offset="0.46" stop-color="#805FE7"/>
<stop offset="0.55" stop-color="#8065E8"/>
<stop offset="0.67" stop-color="#7F76EC"/>
<stop offset="0.81" stop-color="#7E93F3"/>
<stop offset="0.95" stop-color="#7CBAFC"/>
<stop offset="1" stop-color="#7BC8FF"/>
</linearGradient>
<linearGradient id="paint2_linear_145_7674" x1="130.528" y1="114.824" x2="143.544" y2="100.165" gradientUnits="userSpaceOnUse">
<stop stop-color="#4B31B0"/>
<stop offset="0.09" stop-color="#5D41C3"/>
<stop offset="0.21" stop-color="#7152D7"/>
<stop offset="0.34" stop-color="#7C5CE3"/>
<stop offset="0.46" stop-color="#805FE7"/>
<stop offset="0.55" stop-color="#8065E8"/>
<stop offset="0.67" stop-color="#7F76EC"/>
<stop offset="0.81" stop-color="#7E93F3"/>
<stop offset="0.95" stop-color="#7CBAFC"/>
<stop offset="1" stop-color="#7BC8FF"/>
</linearGradient>
<linearGradient id="paint3_linear_145_7674" x1="117.815" y1="121.116" x2="130.831" y2="106.456" gradientUnits="userSpaceOnUse">
<stop stop-color="#4B31B0"/>
<stop offset="0.09" stop-color="#5D41C3"/>
<stop offset="0.21" stop-color="#7152D7"/>
<stop offset="0.34" stop-color="#7C5CE3"/>
<stop offset="0.46" stop-color="#805FE7"/>
<stop offset="0.55" stop-color="#8065E8"/>
<stop offset="0.67" stop-color="#7F76EC"/>
<stop offset="0.81" stop-color="#7E93F3"/>
<stop offset="0.95" stop-color="#7CBAFC"/>
<stop offset="1" stop-color="#7BC8FF"/>
</linearGradient>
<linearGradient id="paint4_linear_145_7674" x1="108.713" y1="131.436" x2="121.459" y2="117.082" gradientUnits="userSpaceOnUse">
<stop stop-color="#4B31B0"/>
<stop offset="0.09" stop-color="#5D41C3"/>
<stop offset="0.21" stop-color="#7152D7"/>
<stop offset="0.34" stop-color="#7C5CE3"/>
<stop offset="0.46" stop-color="#805FE7"/>
<stop offset="0.61" stop-color="#8069E7"/>
<stop offset="0.85" stop-color="#8082E6"/>
<stop offset="1" stop-color="#8095E6"/>
</linearGradient>
<linearGradient id="paint5_linear_145_7674" x1="95.2758" y1="136.067" x2="113.897" y2="115.097" gradientUnits="userSpaceOnUse">
<stop stop-color="#4B31B0"/>
<stop offset="0.09" stop-color="#5D41C3"/>
<stop offset="0.21" stop-color="#7152D7"/>
<stop offset="0.34" stop-color="#7C5CE3"/>
<stop offset="0.46" stop-color="#805FE7"/>
<stop offset="0.61" stop-color="#8069E7"/>
<stop offset="0.85" stop-color="#8082E6"/>
<stop offset="1" stop-color="#8095E6"/>
</linearGradient>
<linearGradient id="paint6_linear_145_7674" x1="116.293" y1="156.087" x2="129.309" y2="141.427" gradientUnits="userSpaceOnUse">
<stop stop-color="#4B31B0"/>
<stop offset="0.09" stop-color="#5D41C3"/>
<stop offset="0.21" stop-color="#7152D7"/>
<stop offset="0.34" stop-color="#7C5CE3"/>
<stop offset="0.46" stop-color="#805FE7"/>
<stop offset="0.61" stop-color="#8069E7"/>
<stop offset="0.85" stop-color="#8082E6"/>
<stop offset="1" stop-color="#8095E6"/>
</linearGradient>
<linearGradient id="paint7_linear_145_7674" x1="128.062" y1="150.575" x2="141.082" y2="135.915" gradientUnits="userSpaceOnUse">
<stop stop-color="#4B31B0"/>
<stop offset="0.09" stop-color="#5D41C3"/>
<stop offset="0.21" stop-color="#7152D7"/>
<stop offset="0.34" stop-color="#7C5CE3"/>
<stop offset="0.46" stop-color="#805FE7"/>
<stop offset="0.61" stop-color="#8069E7"/>
<stop offset="0.85" stop-color="#8082E6"/>
<stop offset="1" stop-color="#8095E6"/>
</linearGradient>
<clipPath id="clip0_145_7674">
<rect width="260" height="260" fill="white"/>
</clipPath>
</defs>
</svg>
