<svg width="32" height="32" viewBox="0 0 32 32" fill="none" xmlns="http://www.w3.org/2000/svg">
<path d="M30.1595 2L17.7637 11.0689L20.0584 5.72945L30.1595 2Z" fill="#E27625"/>
<path d="M1.57812 2L13.851 11.1504L11.6587 5.72945L1.57812 2Z" fill="#E27625"/>
<path d="M25.6932 23.0117L22.3945 28.0046L29.4427 29.9203L31.4711 23.1339L25.6932 23.0117Z" fill="#E27625"/>
<path d="M0.267578 23.1339L2.2755 29.9203L9.32372 28.0046L6.04548 23.0117L0.267578 23.1339Z" fill="#E27625"/>
<path d="M8.93278 14.6152L6.98633 17.5294L13.9731 17.8351L13.7272 10.417L8.93278 14.6152Z" fill="#E27625"/>
<path d="M22.7835 14.6157L17.9276 10.3359L17.7637 17.8356L24.7504 17.5299L22.7835 14.6157Z" fill="#E27625"/>
<path d="M9.32227 28.0043L13.543 25.9867L9.91645 23.1743L9.32227 28.0043Z" fill="#E27625"/>
<path d="M18.1738 25.9867L22.3946 28.0043L21.8209 23.1743L18.1738 25.9867Z" fill="#E27625"/>
<path d="M22.3946 28.0044L18.1738 25.9868L18.5222 28.6769L18.4812 29.8386L22.3946 28.0044Z" fill="#D7C1B3"/>
<path d="M9.32227 28.0044L13.2357 29.8386L13.2152 28.6769L13.543 25.9868L9.32227 28.0044Z" fill="#D7C1B3"/>
<path d="M13.3181 21.382L9.81445 20.3631L12.2936 19.2422L13.3181 21.382Z" fill="#2F343B"/>
<path d="M18.4199 21.382L19.4443 19.2422L21.9235 20.3631L18.4199 21.382Z" fill="#2F343B"/>
<path d="M9.32316 28.0046L9.93783 23.0117L6.04492 23.1339L9.32316 28.0046Z" fill="#CC6228"/>
<path d="M21.8008 23.0117L22.395 28.0046L25.6937 23.1339L21.8008 23.0117Z" fill="#CC6228"/>
<path d="M24.7504 17.5303L17.7637 17.836L18.4193 21.382L19.4438 19.2422L21.9229 20.363L24.7504 17.5303Z" fill="#CC6228"/>
<path d="M9.81381 20.363L12.293 19.2422L13.3174 21.382L13.9731 17.836L6.98633 17.5303L9.81381 20.363Z" fill="#CC6228"/>
<path d="M6.98633 17.5303L9.91626 23.1754L9.81381 20.363L6.98633 17.5303Z" fill="#E27625"/>
<path d="M21.9227 20.363L21.8203 23.1754L24.7502 17.5303L21.9227 20.363Z" fill="#E27625"/>
<path d="M13.974 17.8345L13.3184 21.3806L14.1379 25.5584L14.3223 20.0559L13.974 17.8345Z" fill="#E27625"/>
<path d="M17.7643 17.8345L17.416 20.0355L17.6004 25.5584L18.4199 21.3806L17.7643 17.8345Z" fill="#E27625"/>
<path d="M18.4191 21.3812L17.5996 25.559L18.1732 25.987L21.8203 23.1746L21.9227 20.3623L18.4191 21.3812Z" fill="#F5841F"/>
<path d="M9.81445 20.3623L9.9169 23.1746L13.5435 25.987L14.1376 25.559L13.3181 21.3812L9.81445 20.3623Z" fill="#F5841F"/>
<path d="M18.4809 29.8381L18.5218 28.6765L18.2145 28.4115H13.5225L13.2152 28.6765L13.2357 29.8381L9.32227 28.0039L10.695 29.1044L13.4815 30.9997H18.235L21.042 29.1044L22.3943 28.0039L18.4809 29.8381Z" fill="#C0AD9E"/>
<path d="M18.1732 25.9871L17.5995 25.5591H14.1368L13.5427 25.9871L13.2148 28.6772L13.5222 28.4122H18.2142L18.5215 28.6772L18.1732 25.9871Z" fill="#2F343B"/>
<path d="M30.6721 11.6599L31.7171 6.64653L30.1599 2L18.1738 10.7632L22.7839 14.6149L29.2994 16.4695L30.7336 14.8187L30.0984 14.3704L31.1024 13.4737L30.3443 12.903L31.3278 12.149L30.6721 11.6599Z" fill="#763E1A"/>
<path d="M0 6.64653L1.06543 11.6599L0.38929 12.149L1.39325 12.903L0.635157 13.4737L1.61863 14.3704L1.00396 14.8187L2.43819 16.4695L8.9332 14.6149L13.5432 10.7632L1.57765 2L0 6.64653Z" fill="#763E1A"/>
<path d="M29.2987 16.4698L22.7832 14.6152L24.7502 17.5295L21.8203 23.1746L25.6927 23.1338H31.4706L29.2987 16.4698Z" fill="#F5841F"/>
<path d="M8.93443 14.6152L2.43942 16.4698L0.267578 23.1338H6.04548L9.9179 23.1746L6.98797 17.5295L8.93443 14.6152Z" fill="#F5841F"/>
<path d="M17.7639 17.8349L18.1737 10.7632L20.0587 5.72949H11.6582L13.5432 10.7632L13.9735 17.8349L14.1169 20.0766L14.1374 25.5587H17.6V20.0766L17.7639 17.8349Z" fill="#F5841F"/>
</svg>
