<svg width="260" height="260" viewBox="0 0 260 260" fill="none" xmlns="http://www.w3.org/2000/svg">
<g clip-path="url(#clip0_189_3278)">
<path d="M147.247 122.108L138.825 126.278C138.885 135.693 138.917 140.4 138.92 140.4C141.566 141.984 144.389 143.34 147.346 144.447C147.346 143.938 147.346 143.399 147.346 142.83L147.247 122.108Z" fill="url(#paint0_linear_189_3278)"/>
<path d="M159.96 137.163L159.994 124.528L159.96 115.809L151.39 120.068L151.473 134.153C151.473 137.498 151.776 141.957 151.169 145.529C153.024 145.9 154.762 145.937 156.171 145.48C158.937 144.581 160.254 141.716 159.96 137.163Z" fill="url(#paint1_linear_189_3278)"/>
<path d="M118.205 103.861C126.35 99.6992 128.924 98.3241 137.156 102.65L158.152 113.134L149.522 117.34L135.27 110.205C130.164 107.648 122.652 103.3 118.205 103.861Z" fill="url(#paint2_linear_189_3278)"/>
<path d="M105.47 110.157C113.637 105.991 116.211 104.62 124.447 108.942L145.439 119.425L136.813 123.632L122.561 116.497C117.451 113.94 109.944 109.592 105.47 110.157Z" fill="url(#paint3_linear_189_3278)"/>
<path d="M112.753 137.906L121.179 133.722C121.115 124.307 121.084 119.6 121.084 119.6C118.436 118.021 115.612 116.671 112.653 115.571C112.653 116.077 112.653 116.616 112.653 117.184L112.753 137.906Z" fill="url(#paint4_linear_189_3278)"/>
<path d="M100.039 122.848L100 135.465L100.044 144.183L108.609 139.943L108.526 125.858C108.505 122.514 108.227 118.054 108.83 114.483C106.979 114.111 105.237 114.074 103.828 114.531C101.067 115.43 99.749 118.296 100.039 122.848Z" fill="url(#paint5_linear_189_3278)"/>
<path d="M141.815 156.139C133.649 160.301 131.074 161.676 122.843 157.35L101.851 146.866L110.476 142.66L124.728 149.799C129.839 152.355 137.346 156.703 141.815 156.142V156.139Z" fill="url(#paint6_linear_189_3278)"/>
<path d="M154.528 149.843C146.379 154.009 143.779 155.373 135.543 151.058L114.56 140.575L123.19 136.368L137.442 143.503C142.548 146.06 150.059 150.408 154.528 149.843Z" fill="url(#paint7_linear_189_3278)"/>
<g filter="url(#filter0_d_189_3278)">
<path d="M77.2973 14.0541H70.2703V21.0811H77.2973V14.0541Z" fill="white"/>
<path d="M84.3241 14.0541H77.2971V21.0811H84.3241V14.0541Z" fill="white"/>
<path d="M91.3512 14.0541H84.3242V21.0811H91.3512V14.0541Z" fill="white"/>
<path d="M105.405 14.0541H98.3782V21.0811H105.405V14.0541Z" fill="white"/>
<path d="M112.432 14.0541H105.405V21.0811H112.432V14.0541Z" fill="white"/>
<path d="M119.459 14.0541H112.432V21.0811H119.459V14.0541Z" fill="white"/>
<path d="M140.54 14.0541H133.513V21.0811H140.54V14.0541Z" fill="white"/>
<path d="M147.568 14.0541H140.541V21.0811H147.568V14.0541Z" fill="white"/>
<path d="M154.594 14.0541H147.567V21.0811H154.594V14.0541Z" fill="white"/>
<path d="M182.703 14.0541H175.676V21.0811H182.703V14.0541Z" fill="white"/>
<path d="M189.73 14.0541H182.703V21.0811H189.73V14.0541Z" fill="white"/>
<path d="M77.2973 21.0811H70.2703V28.1081H77.2973V21.0811Z" fill="white"/>
<path d="M98.3783 21.0811H91.3513V28.1081H98.3783V21.0811Z" fill="white"/>
<path d="M112.432 21.0811H105.405V28.1081H112.432V21.0811Z" fill="white"/>
<path d="M126.486 21.0811H119.459V28.1081H126.486V21.0811Z" fill="white"/>
<path d="M133.513 21.0811H126.486V28.1081H133.513V21.0811Z" fill="white"/>
<path d="M140.54 21.0811H133.513V28.1081H140.54V21.0811Z" fill="white"/>
<path d="M147.568 21.0811H140.541V28.1081H147.568V21.0811Z" fill="white"/>
<path d="M154.594 21.0811H147.567V28.1081H154.594V21.0811Z" fill="white"/>
<path d="M168.649 21.0811H161.622V28.1081H168.649V21.0811Z" fill="white"/>
<path d="M189.73 21.0811H182.703V28.1081H189.73V21.0811Z" fill="white"/>
<path d="M77.2973 28.1082H70.2703V35.1352H77.2973V28.1082Z" fill="white"/>
<path d="M105.405 28.1082H98.3782V35.1352H105.405V28.1082Z" fill="white"/>
<path d="M112.432 28.1082H105.405V35.1352H112.432V28.1082Z" fill="white"/>
<path d="M140.54 28.1082H133.513V35.1352H140.54V28.1082Z" fill="white"/>
<path d="M147.568 28.1082H140.541V35.1352H147.568V28.1082Z" fill="white"/>
<path d="M161.622 28.1082H154.594V35.1352H161.622V28.1082Z" fill="white"/>
<path d="M168.649 28.1082H161.622V35.1352H168.649V28.1082Z" fill="white"/>
<path d="M175.675 28.1082H168.648V35.1352H175.675V28.1082Z" fill="white"/>
<path d="M182.703 28.1082H175.676V35.1352H182.703V28.1082Z" fill="white"/>
<path d="M189.73 28.1082H182.703V35.1352H189.73V28.1082Z" fill="white"/>
<path d="M91.3512 35.1351H84.3242V42.1622H91.3512V35.1351Z" fill="white"/>
<path d="M112.432 35.1351H105.405V42.1622H112.432V35.1351Z" fill="white"/>
<path d="M133.513 35.1351H126.486V42.1622H133.513V35.1351Z" fill="white"/>
<path d="M140.54 35.1351H133.513V42.1622H140.54V35.1351Z" fill="white"/>
<path d="M147.568 35.1351H140.541V42.1622H147.568V35.1351Z" fill="white"/>
<path d="M154.594 35.1351H147.567V42.1622H154.594V35.1351Z" fill="white"/>
<path d="M175.675 35.1351H168.648V42.1622H175.675V35.1351Z" fill="white"/>
<path d="M182.703 35.1351H175.676V42.1622H182.703V35.1351Z" fill="white"/>
<path d="M84.3241 42.1622H77.2971V49.1892H84.3241V42.1622Z" fill="white"/>
<path d="M105.405 42.1622H98.3782V49.1892H105.405V42.1622Z" fill="white"/>
<path d="M126.486 42.1622H119.459V49.1892H126.486V42.1622Z" fill="white"/>
<path d="M154.594 42.1622H147.567V49.1892H154.594V42.1622Z" fill="white"/>
<path d="M161.622 42.1622H154.594V49.1892H161.622V42.1622Z" fill="white"/>
<path d="M168.649 42.1622H161.622V49.1892H168.649V42.1622Z" fill="white"/>
<path d="M175.675 42.1622H168.648V49.1892H175.675V42.1622Z" fill="white"/>
<path d="M77.2973 49.1892H70.2703V56.2162H77.2973V49.1892Z" fill="white"/>
<path d="M84.3241 49.1892H77.2971V56.2162H84.3241V49.1892Z" fill="white"/>
<path d="M91.3512 49.1892H84.3242V56.2162H91.3512V49.1892Z" fill="white"/>
<path d="M98.3783 49.1892H91.3513V56.2162H98.3783V49.1892Z" fill="white"/>
<path d="M133.513 49.1892H126.486V56.2162H133.513V49.1892Z" fill="white"/>
<path d="M154.594 49.1892H147.567V56.2162H154.594V49.1892Z" fill="white"/>
<path d="M168.649 49.1892H161.622V56.2162H168.649V49.1892Z" fill="white"/>
<path d="M175.675 49.1892H168.648V56.2162H175.675V49.1892Z" fill="white"/>
<path d="M77.2973 56.2162H70.2703V63.2433H77.2973V56.2162Z" fill="white"/>
<path d="M91.3512 56.2162H84.3242V63.2433H91.3512V56.2162Z" fill="white"/>
<path d="M105.405 56.2162H98.3782V63.2433H105.405V56.2162Z" fill="white"/>
<path d="M119.459 56.2162H112.432V63.2433H119.459V56.2162Z" fill="white"/>
<path d="M133.513 56.2162H126.486V63.2433H133.513V56.2162Z" fill="white"/>
<path d="M147.568 56.2162H140.541V63.2433H147.568V56.2162Z" fill="white"/>
<path d="M161.622 56.2162H154.594V63.2433H161.622V56.2162Z" fill="white"/>
<path d="M175.675 56.2162H168.648V63.2433H175.675V56.2162Z" fill="white"/>
<path d="M189.73 56.2162H182.703V63.2433H189.73V56.2162Z" fill="white"/>
<path d="M77.2973 63.2433H70.2703V70.2703H77.2973V63.2433Z" fill="white"/>
<path d="M105.405 63.2433H98.3782V70.2703H105.405V63.2433Z" fill="white"/>
<path d="M119.459 63.2433H112.432V70.2703H119.459V63.2433Z" fill="white"/>
<path d="M133.513 63.2433H126.486V70.2703H133.513V63.2433Z" fill="white"/>
<path d="M154.594 63.2433H147.567V70.2703H154.594V63.2433Z" fill="white"/>
<path d="M168.649 63.2433H161.622V70.2703H168.649V63.2433Z" fill="white"/>
<path d="M175.675 63.2433H168.648V70.2703H175.675V63.2433Z" fill="white"/>
<path d="M189.73 63.2433H182.703V70.2703H189.73V63.2433Z" fill="white"/>
<path d="M35.1349 70.2703H28.1079V77.2973H35.1349V70.2703Z" fill="white"/>
<path d="M42.162 70.2703H35.135V77.2973H42.162V70.2703Z" fill="white"/>
<path d="M49.1891 70.2703H42.1621V77.2973H49.1891V70.2703Z" fill="white"/>
<path d="M63.2431 70.2703H56.2161V77.2973H63.2431V70.2703Z" fill="white"/>
<path d="M77.2973 70.2703H70.2703V77.2973H77.2973V70.2703Z" fill="white"/>
<path d="M119.459 70.2703H112.432V77.2973H119.459V70.2703Z" fill="white"/>
<path d="M133.513 70.2703H126.486V77.2973H133.513V70.2703Z" fill="white"/>
<path d="M175.675 70.2703H168.648V77.2973H175.675V70.2703Z" fill="white"/>
<path d="M189.73 70.2703H182.703V77.2973H189.73V70.2703Z" fill="white"/>
<path d="M196.757 70.2703H189.73V77.2973H196.757V70.2703Z" fill="white"/>
<path d="M203.784 70.2703H196.757V77.2973H203.784V70.2703Z" fill="white"/>
<path d="M210.811 70.2703H203.784V77.2973H210.811V70.2703Z" fill="white"/>
<path d="M231.892 70.2703H224.865V77.2973H231.892V70.2703Z" fill="white"/>
<path d="M238.919 70.2703H231.892V77.2973H238.919V70.2703Z" fill="white"/>
<path d="M245.946 70.2703H238.919V77.2973H245.946V70.2703Z" fill="white"/>
<path d="M28.1081 77.2973H21.0811V84.3243H28.1081V77.2973Z" fill="white"/>
<path d="M42.162 77.2973H35.135V84.3243H42.162V77.2973Z" fill="white"/>
<path d="M49.1891 77.2973H42.1621V84.3243H49.1891V77.2973Z" fill="white"/>
<path d="M70.2702 77.2973H63.2432V84.3243H70.2702V77.2973Z" fill="white"/>
<path d="M77.2973 77.2973H70.2703V84.3243H77.2973V77.2973Z" fill="white"/>
<path d="M98.3783 77.2973H91.3513V84.3243H98.3783V77.2973Z" fill="white"/>
<path d="M112.432 77.2973H105.405V84.3243H112.432V77.2973Z" fill="white"/>
<path d="M126.486 77.2973H119.459V84.3243H126.486V77.2973Z" fill="white"/>
<path d="M133.513 77.2973H126.486V84.3243H133.513V77.2973Z" fill="white"/>
<path d="M140.54 77.2973H133.513V84.3243H140.54V77.2973Z" fill="white"/>
<path d="M147.568 77.2973H140.541V84.3243H147.568V77.2973Z" fill="white"/>
<path d="M154.594 77.2973H147.567V84.3243H154.594V77.2973Z" fill="white"/>
<path d="M161.622 77.2973H154.594V84.3243H161.622V77.2973Z" fill="white"/>
<path d="M168.649 77.2973H161.622V84.3243H168.649V77.2973Z" fill="white"/>
<path d="M182.703 77.2973H175.676V84.3243H182.703V77.2973Z" fill="white"/>
<path d="M196.757 77.2973H189.73V84.3243H196.757V77.2973Z" fill="white"/>
<path d="M203.784 77.2973H196.757V84.3243H203.784V77.2973Z" fill="white"/>
<path d="M224.865 77.2973H217.838V84.3243H224.865V77.2973Z" fill="white"/>
<path d="M245.946 77.2973H238.919V84.3243H245.946V77.2973Z" fill="white"/>
<path d="M21.081 84.3243H14.054V91.3514H21.081V84.3243Z" fill="white"/>
<path d="M35.1349 84.3243H28.1079V91.3514H35.1349V84.3243Z" fill="white"/>
<path d="M42.162 84.3243H35.135V91.3514H42.162V84.3243Z" fill="white"/>
<path d="M49.1891 84.3243H42.1621V91.3514H49.1891V84.3243Z" fill="white"/>
<path d="M56.2162 84.3243H49.1892V91.3514H56.2162V84.3243Z" fill="white"/>
<path d="M63.2431 84.3243H56.2161V91.3514H63.2431V84.3243Z" fill="white"/>
<path d="M91.3512 84.3243H84.3242V91.3514H91.3512V84.3243Z" fill="white"/>
<path d="M119.459 84.3243H112.432V91.3514H119.459V84.3243Z" fill="white"/>
<path d="M140.54 84.3243H133.513V91.3514H140.54V84.3243Z" fill="white"/>
<path d="M154.594 84.3243H147.567V91.3514H154.594V84.3243Z" fill="white"/>
<path d="M168.649 84.3243H161.622V91.3514H168.649V84.3243Z" fill="white"/>
<path d="M189.73 84.3243H182.703V91.3514H189.73V84.3243Z" fill="white"/>
<path d="M196.757 84.3243H189.73V91.3514H196.757V84.3243Z" fill="white"/>
<path d="M210.811 84.3243H203.784V91.3514H210.811V84.3243Z" fill="white"/>
<path d="M238.919 84.3243H231.892V91.3514H238.919V84.3243Z" fill="white"/>
<path d="M21.081 91.3514H14.054V98.3784H21.081V91.3514Z" fill="white"/>
<path d="M28.1081 91.3514H21.0811V98.3784H28.1081V91.3514Z" fill="white"/>
<path d="M49.1891 91.3514H42.1621V98.3784H49.1891V91.3514Z" fill="white"/>
<path d="M70.2702 91.3514H63.2432V98.3784H70.2702V91.3514Z" fill="white"/>
<path d="M224.865 91.3514H217.838V98.3784H224.865V91.3514Z" fill="white"/>
<path d="M231.892 91.3514H224.865V98.3784H231.892V91.3514Z" fill="white"/>
<path d="M245.946 91.3514H238.919V98.3784H245.946V91.3514Z" fill="white"/>
<path d="M28.1081 98.3784H21.0811V105.405H28.1081V98.3784Z" fill="white"/>
<path d="M35.1349 98.3784H28.1079V105.405H35.1349V98.3784Z" fill="white"/>
<path d="M49.1891 98.3784H42.1621V105.405H49.1891V98.3784Z" fill="white"/>
<path d="M56.2162 98.3784H49.1892V105.405H56.2162V98.3784Z" fill="white"/>
<path d="M63.2431 98.3784H56.2161V105.405H63.2431V98.3784Z" fill="white"/>
<path d="M77.2973 98.3784H70.2703V105.405H77.2973V98.3784Z" fill="white"/>
<path d="M84.3241 98.3784H77.2971V105.405H84.3241V98.3784Z" fill="white"/>
<path d="M189.73 98.3784H182.703V105.405H189.73V98.3784Z" fill="white"/>
<path d="M196.757 98.3784H189.73V105.405H196.757V98.3784Z" fill="white"/>
<path d="M210.811 98.3784H203.784V105.405H210.811V98.3784Z" fill="white"/>
<path d="M217.838 98.3784H210.811V105.405H217.838V98.3784Z" fill="white"/>
<path d="M224.865 98.3784H217.838V105.405H224.865V98.3784Z" fill="white"/>
<path d="M35.1349 105.405H28.1079V112.432H35.1349V105.405Z" fill="white"/>
<path d="M49.1891 105.405H42.1621V112.432H49.1891V105.405Z" fill="white"/>
<path d="M56.2162 105.405H49.1892V112.432H56.2162V105.405Z" fill="white"/>
<path d="M70.2702 105.405H63.2432V112.432H70.2702V105.405Z" fill="white"/>
<path d="M84.3241 105.405H77.2971V112.432H84.3241V105.405Z" fill="white"/>
<path d="M182.703 105.405H175.676V112.432H182.703V105.405Z" fill="white"/>
<path d="M203.784 105.405H196.757V112.432H203.784V105.405Z" fill="white"/>
<path d="M231.892 105.405H224.865V112.432H231.892V105.405Z" fill="white"/>
<path d="M245.946 105.405H238.919V112.432H245.946V105.405Z" fill="white"/>
<path d="M28.1081 112.432H21.0811V119.459H28.1081V112.432Z" fill="white"/>
<path d="M42.162 112.432H35.135V119.459H42.162V112.432Z" fill="white"/>
<path d="M49.1891 112.432H42.1621V119.459H49.1891V112.432Z" fill="white"/>
<path d="M56.2162 112.432H49.1892V119.459H56.2162V112.432Z" fill="white"/>
<path d="M63.2431 112.432H56.2161V119.459H63.2431V112.432Z" fill="white"/>
<path d="M84.3241 112.432H77.2971V119.459H84.3241V112.432Z" fill="white"/>
<path d="M175.675 112.432H168.648V119.459H175.675V112.432Z" fill="white"/>
<path d="M189.73 112.432H182.703V119.459H189.73V112.432Z" fill="white"/>
<path d="M203.784 112.432H196.757V119.459H203.784V112.432Z" fill="white"/>
<path d="M224.865 112.432H217.838V119.459H224.865V112.432Z" fill="white"/>
<path d="M238.919 112.432H231.892V119.459H238.919V112.432Z" fill="white"/>
<path d="M21.081 119.459H14.054V126.486H21.081V119.459Z" fill="white"/>
<path d="M42.162 119.459H35.135V126.486H42.162V119.459Z" fill="white"/>
<path d="M56.2162 119.459H49.1892V126.486H56.2162V119.459Z" fill="white"/>
<path d="M84.3241 119.459H77.2971V126.486H84.3241V119.459Z" fill="white"/>
<path d="M91.3512 119.459H84.3242V126.486H91.3512V119.459Z" fill="white"/>
<path d="M175.675 119.459H168.648V126.486H175.675V119.459Z" fill="white"/>
<path d="M203.784 119.459H196.757V126.486H203.784V119.459Z" fill="white"/>
<path d="M210.811 119.459H203.784V126.486H210.811V119.459Z" fill="white"/>
<path d="M231.892 119.459H224.865V126.486H231.892V119.459Z" fill="white"/>
<path d="M238.919 119.459H231.892V126.486H238.919V119.459Z" fill="white"/>
<path d="M56.2162 126.487H49.1892V133.514H56.2162V126.487Z" fill="white"/>
<path d="M63.2431 126.487H56.2161V133.514H63.2431V126.487Z" fill="white"/>
<path d="M77.2973 126.487H70.2703V133.514H77.2973V126.487Z" fill="white"/>
<path d="M91.3512 126.487H84.3242V133.514H91.3512V126.487Z" fill="white"/>
<path d="M182.703 126.487H175.676V133.514H182.703V126.487Z" fill="white"/>
<path d="M217.838 126.487H210.811V133.514H217.838V126.487Z" fill="white"/>
<path d="M35.1349 133.514H28.1079V140.541H35.1349V133.514Z" fill="white"/>
<path d="M49.1891 133.514H42.1621V140.541H49.1891V133.514Z" fill="white"/>
<path d="M70.2702 133.514H63.2432V140.541H70.2702V133.514Z" fill="white"/>
<path d="M77.2973 133.514H70.2703V140.541H77.2973V133.514Z" fill="white"/>
<path d="M84.3241 133.514H77.2971V140.541H84.3241V133.514Z" fill="white"/>
<path d="M182.703 133.514H175.676V140.541H182.703V133.514Z" fill="white"/>
<path d="M189.73 133.514H182.703V140.541H189.73V133.514Z" fill="white"/>
<path d="M203.784 133.514H196.757V140.541H203.784V133.514Z" fill="white"/>
<path d="M238.919 133.514H231.892V140.541H238.919V133.514Z" fill="white"/>
<path d="M245.946 133.514H238.919V140.541H245.946V133.514Z" fill="white"/>
<path d="M35.1349 140.541H28.1079V147.568H35.1349V140.541Z" fill="white"/>
<path d="M42.162 140.541H35.135V147.568H42.162V140.541Z" fill="white"/>
<path d="M49.1891 140.541H42.1621V147.568H49.1891V140.541Z" fill="white"/>
<path d="M56.2162 140.541H49.1892V147.568H56.2162V140.541Z" fill="white"/>
<path d="M63.2431 140.541H56.2161V147.568H63.2431V140.541Z" fill="white"/>
<path d="M70.2702 140.541H63.2432V147.568H70.2702V140.541Z" fill="white"/>
<path d="M91.3512 140.541H84.3242V147.568H91.3512V140.541Z" fill="white"/>
<path d="M175.675 140.541H168.648V147.568H175.675V140.541Z" fill="white"/>
<path d="M196.757 140.541H189.73V147.568H196.757V140.541Z" fill="white"/>
<path d="M203.784 140.541H196.757V147.568H203.784V140.541Z" fill="white"/>
<path d="M231.892 140.541H224.865V147.568H231.892V140.541Z" fill="white"/>
<path d="M238.919 140.541H231.892V147.568H238.919V140.541Z" fill="white"/>
<path d="M21.081 147.568H14.054V154.595H21.081V147.568Z" fill="white"/>
<path d="M28.1081 147.568H21.0811V154.595H28.1081V147.568Z" fill="white"/>
<path d="M49.1891 147.568H42.1621V154.595H49.1891V147.568Z" fill="white"/>
<path d="M77.2973 147.568H70.2703V154.595H77.2973V147.568Z" fill="white"/>
<path d="M182.703 147.568H175.676V154.595H182.703V147.568Z" fill="white"/>
<path d="M189.73 147.568H182.703V154.595H189.73V147.568Z" fill="white"/>
<path d="M203.784 147.568H196.757V154.595H203.784V147.568Z" fill="white"/>
<path d="M210.811 147.568H203.784V154.595H210.811V147.568Z" fill="white"/>
<path d="M217.838 147.568H210.811V154.595H217.838V147.568Z" fill="white"/>
<path d="M224.865 147.568H217.838V154.595H224.865V147.568Z" fill="white"/>
<path d="M231.892 147.568H224.865V154.595H231.892V147.568Z" fill="white"/>
<path d="M238.919 147.568H231.892V154.595H238.919V147.568Z" fill="white"/>
<path d="M21.081 154.595H14.054V161.622H21.081V154.595Z" fill="white"/>
<path d="M49.1891 154.595H42.1621V161.622H49.1891V154.595Z" fill="white"/>
<path d="M63.2431 154.595H56.2161V161.622H63.2431V154.595Z" fill="white"/>
<path d="M77.2973 154.595H70.2703V161.622H77.2973V154.595Z" fill="white"/>
<path d="M84.3241 154.595H77.2971V161.622H84.3241V154.595Z" fill="white"/>
<path d="M91.3512 154.595H84.3242V161.622H91.3512V154.595Z" fill="white"/>
<path d="M175.675 154.595H168.648V161.622H175.675V154.595Z" fill="white"/>
<path d="M189.73 154.595H182.703V161.622H189.73V154.595Z" fill="white"/>
<path d="M196.757 154.595H189.73V161.622H196.757V154.595Z" fill="white"/>
<path d="M217.838 154.595H210.811V161.622H217.838V154.595Z" fill="white"/>
<path d="M224.865 154.595H217.838V161.622H224.865V154.595Z" fill="white"/>
<path d="M238.919 154.595H231.892V161.622H238.919V154.595Z" fill="white"/>
<path d="M245.946 154.595H238.919V161.622H245.946V154.595Z" fill="white"/>
<path d="M21.081 161.622H14.054V168.649H21.081V161.622Z" fill="white"/>
<path d="M35.1349 161.622H28.1079V168.649H35.1349V161.622Z" fill="white"/>
<path d="M56.2162 161.622H49.1892V168.649H56.2162V161.622Z" fill="white"/>
<path d="M77.2973 161.622H70.2703V168.649H77.2973V161.622Z" fill="white"/>
<path d="M91.3512 161.622H84.3242V168.649H91.3512V161.622Z" fill="white"/>
<path d="M175.675 161.622H168.648V168.649H175.675V161.622Z" fill="white"/>
<path d="M182.703 161.622H175.676V168.649H182.703V161.622Z" fill="white"/>
<path d="M203.784 161.622H196.757V168.649H203.784V161.622Z" fill="white"/>
<path d="M224.865 161.622H217.838V168.649H224.865V161.622Z" fill="white"/>
<path d="M231.892 161.622H224.865V168.649H231.892V161.622Z" fill="white"/>
<path d="M245.946 161.622H238.919V168.649H245.946V161.622Z" fill="white"/>
<path d="M21.081 168.649H14.054V175.676H21.081V168.649Z" fill="white"/>
<path d="M56.2162 168.649H49.1892V175.676H56.2162V168.649Z" fill="white"/>
<path d="M63.2431 168.649H56.2161V175.676H63.2431V168.649Z" fill="white"/>
<path d="M70.2702 168.649H63.2432V175.676H70.2702V168.649Z" fill="white"/>
<path d="M77.2973 168.649H70.2703V175.676H77.2973V168.649Z" fill="white"/>
<path d="M84.3241 168.649H77.2971V175.676H84.3241V168.649Z" fill="white"/>
<path d="M119.459 168.649H112.432V175.676H119.459V168.649Z" fill="white"/>
<path d="M133.513 168.649H126.486V175.676H133.513V168.649Z" fill="white"/>
<path d="M147.568 168.649H140.541V175.676H147.568V168.649Z" fill="white"/>
<path d="M168.649 168.649H161.622V175.676H168.649V168.649Z" fill="white"/>
<path d="M189.73 168.649H182.703V175.676H189.73V168.649Z" fill="white"/>
<path d="M210.811 168.649H203.784V175.676H210.811V168.649Z" fill="white"/>
<path d="M217.838 168.649H210.811V175.676H217.838V168.649Z" fill="white"/>
<path d="M224.865 168.649H217.838V175.676H224.865V168.649Z" fill="white"/>
<path d="M231.892 168.649H224.865V175.676H231.892V168.649Z" fill="white"/>
<path d="M21.081 175.676H14.054V182.703H21.081V175.676Z" fill="white"/>
<path d="M35.1349 175.676H28.1079V182.703H35.1349V175.676Z" fill="white"/>
<path d="M49.1891 175.676H42.1621V182.703H49.1891V175.676Z" fill="white"/>
<path d="M70.2702 175.676H63.2432V182.703H70.2702V175.676Z" fill="white"/>
<path d="M77.2973 175.676H70.2703V182.703H77.2973V175.676Z" fill="white"/>
<path d="M84.3241 175.676H77.2971V182.703H84.3241V175.676Z" fill="white"/>
<path d="M98.3783 175.676H91.3513V182.703H98.3783V175.676Z" fill="white"/>
<path d="M105.405 175.676H98.3782V182.703H105.405V175.676Z" fill="white"/>
<path d="M112.432 175.676H105.405V182.703H112.432V175.676Z" fill="white"/>
<path d="M126.486 175.676H119.459V182.703H126.486V175.676Z" fill="white"/>
<path d="M133.513 175.676H126.486V182.703H133.513V175.676Z" fill="white"/>
<path d="M140.54 175.676H133.513V182.703H140.54V175.676Z" fill="white"/>
<path d="M154.594 175.676H147.567V182.703H154.594V175.676Z" fill="white"/>
<path d="M168.649 175.676H161.622V182.703H168.649V175.676Z" fill="white"/>
<path d="M175.675 175.676H168.648V182.703H175.675V175.676Z" fill="white"/>
<path d="M182.703 175.676H175.676V182.703H182.703V175.676Z" fill="white"/>
<path d="M217.838 175.676H210.811V182.703H217.838V175.676Z" fill="white"/>
<path d="M224.865 175.676H217.838V182.703H224.865V175.676Z" fill="white"/>
<path d="M231.892 175.676H224.865V182.703H231.892V175.676Z" fill="white"/>
<path d="M238.919 175.676H231.892V182.703H238.919V175.676Z" fill="white"/>
<path d="M21.081 182.703H14.054V189.73H21.081V182.703Z" fill="white"/>
<path d="M35.1349 182.703H28.1079V189.73H35.1349V182.703Z" fill="white"/>
<path d="M42.162 182.703H35.135V189.73H42.162V182.703Z" fill="white"/>
<path d="M63.2431 182.703H56.2161V189.73H63.2431V182.703Z" fill="white"/>
<path d="M70.2702 182.703H63.2432V189.73H70.2702V182.703Z" fill="white"/>
<path d="M77.2973 182.703H70.2703V189.73H77.2973V182.703Z" fill="white"/>
<path d="M84.3241 182.703H77.2971V189.73H84.3241V182.703Z" fill="white"/>
<path d="M91.3512 182.703H84.3242V189.73H91.3512V182.703Z" fill="white"/>
<path d="M98.3783 182.703H91.3513V189.73H98.3783V182.703Z" fill="white"/>
<path d="M105.405 182.703H98.3782V189.73H105.405V182.703Z" fill="white"/>
<path d="M133.513 182.703H126.486V189.73H133.513V182.703Z" fill="white"/>
<path d="M161.622 182.703H154.594V189.73H161.622V182.703Z" fill="white"/>
<path d="M175.675 182.703H168.648V189.73H175.675V182.703Z" fill="white"/>
<path d="M182.703 182.703H175.676V189.73H182.703V182.703Z" fill="white"/>
<path d="M189.73 182.703H182.703V189.73H189.73V182.703Z" fill="white"/>
<path d="M196.757 182.703H189.73V189.73H196.757V182.703Z" fill="white"/>
<path d="M203.784 182.703H196.757V189.73H203.784V182.703Z" fill="white"/>
<path d="M210.811 182.703H203.784V189.73H210.811V182.703Z" fill="white"/>
<path d="M217.838 182.703H210.811V189.73H217.838V182.703Z" fill="white"/>
<path d="M245.946 182.703H238.919V189.73H245.946V182.703Z" fill="white"/>
<path d="M77.2973 189.73H70.2703V196.757H77.2973V189.73Z" fill="white"/>
<path d="M84.3241 189.73H77.2971V196.757H84.3241V189.73Z" fill="white"/>
<path d="M91.3512 189.73H84.3242V196.757H91.3512V189.73Z" fill="white"/>
<path d="M105.405 189.73H98.3782V196.757H105.405V189.73Z" fill="white"/>
<path d="M112.432 189.73H105.405V196.757H112.432V189.73Z" fill="white"/>
<path d="M119.459 189.73H112.432V196.757H119.459V189.73Z" fill="white"/>
<path d="M126.486 189.73H119.459V196.757H126.486V189.73Z" fill="white"/>
<path d="M133.513 189.73H126.486V196.757H133.513V189.73Z" fill="white"/>
<path d="M147.568 189.73H140.541V196.757H147.568V189.73Z" fill="white"/>
<path d="M154.594 189.73H147.567V196.757H154.594V189.73Z" fill="white"/>
<path d="M182.703 189.73H175.676V196.757H182.703V189.73Z" fill="white"/>
<path d="M189.73 189.73H182.703V196.757H189.73V189.73Z" fill="white"/>
<path d="M217.838 189.73H210.811V196.757H217.838V189.73Z" fill="white"/>
<path d="M238.919 189.73H231.892V196.757H238.919V189.73Z" fill="white"/>
<path d="M245.946 189.73H238.919V196.757H245.946V189.73Z" fill="white"/>
<path d="M84.3241 196.757H77.2971V203.784H84.3241V196.757Z" fill="white"/>
<path d="M105.405 196.757H98.3782V203.784H105.405V196.757Z" fill="white"/>
<path d="M119.459 196.757H112.432V203.784H119.459V196.757Z" fill="white"/>
<path d="M140.54 196.757H133.513V203.784H140.54V196.757Z" fill="white"/>
<path d="M147.568 196.757H140.541V203.784H147.568V196.757Z" fill="white"/>
<path d="M175.675 196.757H168.648V203.784H175.675V196.757Z" fill="white"/>
<path d="M182.703 196.757H175.676V203.784H182.703V196.757Z" fill="white"/>
<path d="M189.73 196.757H182.703V203.784H189.73V196.757Z" fill="white"/>
<path d="M203.784 196.757H196.757V203.784H203.784V196.757Z" fill="white"/>
<path d="M217.838 196.757H210.811V203.784H217.838V196.757Z" fill="white"/>
<path d="M231.892 196.757H224.865V203.784H231.892V196.757Z" fill="white"/>
<path d="M238.919 196.757H231.892V203.784H238.919V196.757Z" fill="white"/>
<path d="M98.3783 203.784H91.3513V210.811H98.3783V203.784Z" fill="white"/>
<path d="M105.405 203.784H98.3782V210.811H105.405V203.784Z" fill="white"/>
<path d="M112.432 203.784H105.405V210.811H112.432V203.784Z" fill="white"/>
<path d="M119.459 203.784H112.432V210.811H119.459V203.784Z" fill="white"/>
<path d="M126.486 203.784H119.459V210.811H126.486V203.784Z" fill="white"/>
<path d="M140.54 203.784H133.513V210.811H140.54V203.784Z" fill="white"/>
<path d="M161.622 203.784H154.594V210.811H161.622V203.784Z" fill="white"/>
<path d="M182.703 203.784H175.676V210.811H182.703V203.784Z" fill="white"/>
<path d="M189.73 203.784H182.703V210.811H189.73V203.784Z" fill="white"/>
<path d="M217.838 203.784H210.811V210.811H217.838V203.784Z" fill="white"/>
<path d="M224.865 203.784H217.838V210.811H224.865V203.784Z" fill="white"/>
<path d="M231.892 203.784H224.865V210.811H231.892V203.784Z" fill="white"/>
<path d="M238.919 203.784H231.892V210.811H238.919V203.784Z" fill="white"/>
<path d="M245.946 203.784H238.919V210.811H245.946V203.784Z" fill="white"/>
<path d="M77.2973 210.811H70.2703V217.838H77.2973V210.811Z" fill="white"/>
<path d="M84.3241 210.811H77.2971V217.838H84.3241V210.811Z" fill="white"/>
<path d="M98.3783 210.811H91.3513V217.838H98.3783V210.811Z" fill="white"/>
<path d="M126.486 210.811H119.459V217.838H126.486V210.811Z" fill="white"/>
<path d="M133.513 210.811H126.486V217.838H133.513V210.811Z" fill="white"/>
<path d="M147.568 210.811H140.541V217.838H147.568V210.811Z" fill="white"/>
<path d="M161.622 210.811H154.594V217.838H161.622V210.811Z" fill="white"/>
<path d="M168.649 210.811H161.622V217.838H168.649V210.811Z" fill="white"/>
<path d="M175.675 210.811H168.648V217.838H175.675V210.811Z" fill="white"/>
<path d="M189.73 210.811H182.703V217.838H189.73V210.811Z" fill="white"/>
<path d="M196.757 210.811H189.73V217.838H196.757V210.811Z" fill="white"/>
<path d="M203.784 210.811H196.757V217.838H203.784V210.811Z" fill="white"/>
<path d="M210.811 210.811H203.784V217.838H210.811V210.811Z" fill="white"/>
<path d="M217.838 210.811H210.811V217.838H217.838V210.811Z" fill="white"/>
<path d="M224.865 210.811H217.838V217.838H224.865V210.811Z" fill="white"/>
<path d="M238.919 210.811H231.892V217.838H238.919V210.811Z" fill="white"/>
<path d="M245.946 210.811H238.919V217.838H245.946V210.811Z" fill="white"/>
<path d="M77.2973 217.838H70.2703V224.865H77.2973V217.838Z" fill="white"/>
<path d="M84.3241 217.838H77.2971V224.865H84.3241V217.838Z" fill="white"/>
<path d="M126.486 217.838H119.459V224.865H126.486V217.838Z" fill="white"/>
<path d="M168.649 217.838H161.622V224.865H168.649V217.838Z" fill="white"/>
<path d="M182.703 217.838H175.676V224.865H182.703V217.838Z" fill="white"/>
<path d="M196.757 217.838H189.73V224.865H196.757V217.838Z" fill="white"/>
<path d="M217.838 217.838H210.811V224.865H217.838V217.838Z" fill="white"/>
<path d="M224.865 217.838H217.838V224.865H224.865V217.838Z" fill="white"/>
<path d="M245.946 217.838H238.919V224.865H245.946V217.838Z" fill="white"/>
<path d="M77.2973 224.865H70.2703V231.892H77.2973V224.865Z" fill="white"/>
<path d="M84.3241 224.865H77.2971V231.892H84.3241V224.865Z" fill="white"/>
<path d="M91.3512 224.865H84.3242V231.892H91.3512V224.865Z" fill="white"/>
<path d="M119.459 224.865H112.432V231.892H119.459V224.865Z" fill="white"/>
<path d="M126.486 224.865H119.459V231.892H126.486V224.865Z" fill="white"/>
<path d="M147.568 224.865H140.541V231.892H147.568V224.865Z" fill="white"/>
<path d="M154.594 224.865H147.567V231.892H154.594V224.865Z" fill="white"/>
<path d="M168.649 224.865H161.622V231.892H168.649V224.865Z" fill="white"/>
<path d="M175.675 224.865H168.648V231.892H175.675V224.865Z" fill="white"/>
<path d="M182.703 224.865H175.676V231.892H182.703V224.865Z" fill="white"/>
<path d="M196.757 224.865H189.73V231.892H196.757V224.865Z" fill="white"/>
<path d="M203.784 224.865H196.757V231.892H203.784V224.865Z" fill="white"/>
<path d="M224.865 224.865H217.838V231.892H224.865V224.865Z" fill="white"/>
<path d="M84.3241 231.892H77.2971V238.919H84.3241V231.892Z" fill="white"/>
<path d="M91.3512 231.892H84.3242V238.919H91.3512V231.892Z" fill="white"/>
<path d="M98.3783 231.892H91.3513V238.919H98.3783V231.892Z" fill="white"/>
<path d="M105.405 231.892H98.3782V238.919H105.405V231.892Z" fill="white"/>
<path d="M112.432 231.892H105.405V238.919H112.432V231.892Z" fill="white"/>
<path d="M119.459 231.892H112.432V238.919H119.459V231.892Z" fill="white"/>
<path d="M133.513 231.892H126.486V238.919H133.513V231.892Z" fill="white"/>
<path d="M140.54 231.892H133.513V238.919H140.54V231.892Z" fill="white"/>
<path d="M147.568 231.892H140.541V238.919H147.568V231.892Z" fill="white"/>
<path d="M154.594 231.892H147.567V238.919H154.594V231.892Z" fill="white"/>
<path d="M161.622 231.892H154.594V238.919H161.622V231.892Z" fill="white"/>
<path d="M210.811 231.892H203.784V238.919H210.811V231.892Z" fill="white"/>
<path d="M224.865 231.892H217.838V238.919H224.865V231.892Z" fill="white"/>
<path d="M231.892 231.892H224.865V238.919H231.892V231.892Z" fill="white"/>
<path d="M84.3241 238.919H77.2971V245.946H84.3241V238.919Z" fill="white"/>
<path d="M119.459 238.919H112.432V245.946H119.459V238.919Z" fill="white"/>
<path d="M126.486 238.919H119.459V245.946H126.486V238.919Z" fill="white"/>
<path d="M140.54 238.919H133.513V245.946H140.54V238.919Z" fill="white"/>
<path d="M154.594 238.919H147.567V245.946H154.594V238.919Z" fill="white"/>
<path d="M161.622 238.919H154.594V245.946H161.622V238.919Z" fill="white"/>
<path d="M182.703 238.919H175.676V245.946H182.703V238.919Z" fill="white"/>
<path d="M189.73 238.919H182.703V245.946H189.73V238.919Z" fill="white"/>
<path d="M196.757 238.919H189.73V245.946H196.757V238.919Z" fill="white"/>
<path d="M231.892 238.919H224.865V245.946H231.892V238.919Z" fill="white"/>
<path d="M238.919 238.919H231.892V245.946H238.919V238.919Z" fill="white"/>
<path d="M63.2431 14.0541V30.8478V46.4496C63.2431 50.6263 63.2431 63.2433 63.2431 63.2433C63.2431 63.2433 51.664 63.2433 46.6418 63.2433H14.054L14.0638 30.8478C14.0638 21.5899 21.511 14.0541 30.6701 14.0541H46.6418H63.2431ZM55.8648 21.4325H30.6701C25.5819 21.4325 21.4422 25.6559 21.4422 30.8497L21.4343 55.8649H55.8648V21.4325Z" fill="white"/>
<path d="M196.757 14.0541V30.8478V46.4496C196.757 50.6263 196.757 63.2433 196.757 63.2433C196.757 63.2433 208.336 63.2433 213.358 63.2433H245.946L245.936 30.8478C245.936 21.5899 238.489 14.0541 229.33 14.0541H213.358H196.757ZM204.135 21.4325H229.33C234.418 21.4325 238.558 25.6559 238.558 30.8497L238.565 55.8649H204.135V21.4325Z" fill="white"/>
<path d="M63.2431 245.946V229.152V213.55C63.2431 209.374 63.2431 196.757 63.2431 196.757C63.2431 196.757 51.664 196.757 46.6418 196.757H14.054L14.0638 229.152C14.0638 238.41 21.511 245.946 30.6701 245.946H46.6418H63.2431ZM55.8648 238.568H30.6701C25.5819 238.568 21.4422 234.344 21.4422 229.15L21.4343 204.135H55.8648V238.568Z" fill="white"/>
<path d="M49.189 28.1082H28.1079V49.1892H49.189V28.1082Z" fill="white"/>
<path d="M231.892 28.1082H210.811V49.1892H231.892V28.1082Z" fill="white"/>
<path d="M49.189 210.811H28.1079V231.892H49.189V210.811Z" fill="white"/>
</g>
</g>
<defs>
<filter id="filter0_d_189_3278" x="-4" y="0" width="268" height="268" filterUnits="userSpaceOnUse" color-interpolation-filters="sRGB">
<feFlood flood-opacity="0" result="BackgroundImageFix"/>
<feColorMatrix in="SourceAlpha" type="matrix" values="0 0 0 0 0 0 0 0 0 0 0 0 0 0 0 0 0 0 127 0" result="hardAlpha"/>
<feOffset dy="4"/>
<feGaussianBlur stdDeviation="2"/>
<feComposite in2="hardAlpha" operator="out"/>
<feColorMatrix type="matrix" values="0 0 0 0 0 0 0 0 0 0 0 0 0 0 0 0 0 0 0.25 0"/>
<feBlend mode="normal" in2="BackgroundImageFix" result="effect1_dropShadow_189_3278"/>
<feBlend mode="normal" in="SourceGraphic" in2="effect1_dropShadow_189_3278" result="shape"/>
</filter>
<linearGradient id="paint0_linear_189_3278" x1="137.997" y1="139.568" x2="150.743" y2="125.213" gradientUnits="userSpaceOnUse">
<stop stop-color="#4B31B0"/>
<stop offset="0.09" stop-color="#5D41C3"/>
<stop offset="0.21" stop-color="#7152D7"/>
<stop offset="0.34" stop-color="#7C5CE3"/>
<stop offset="0.46" stop-color="#805FE7"/>
<stop offset="0.55" stop-color="#8065E8"/>
<stop offset="0.67" stop-color="#7F76EC"/>
<stop offset="0.81" stop-color="#7E93F3"/>
<stop offset="0.95" stop-color="#7CBAFC"/>
<stop offset="1" stop-color="#7BC8FF"/>
</linearGradient>
<linearGradient id="paint1_linear_189_3278" x1="145.131" y1="140.155" x2="163.753" y2="119.185" gradientUnits="userSpaceOnUse">
<stop stop-color="#4B31B0"/>
<stop offset="0.09" stop-color="#5D41C3"/>
<stop offset="0.21" stop-color="#7152D7"/>
<stop offset="0.34" stop-color="#7C5CE3"/>
<stop offset="0.46" stop-color="#805FE7"/>
<stop offset="0.55" stop-color="#8065E8"/>
<stop offset="0.67" stop-color="#7F76EC"/>
<stop offset="0.81" stop-color="#7E93F3"/>
<stop offset="0.95" stop-color="#7CBAFC"/>
<stop offset="1" stop-color="#7BC8FF"/>
</linearGradient>
<linearGradient id="paint2_linear_189_3278" x1="130.528" y1="114.824" x2="143.544" y2="100.165" gradientUnits="userSpaceOnUse">
<stop stop-color="#4B31B0"/>
<stop offset="0.09" stop-color="#5D41C3"/>
<stop offset="0.21" stop-color="#7152D7"/>
<stop offset="0.34" stop-color="#7C5CE3"/>
<stop offset="0.46" stop-color="#805FE7"/>
<stop offset="0.55" stop-color="#8065E8"/>
<stop offset="0.67" stop-color="#7F76EC"/>
<stop offset="0.81" stop-color="#7E93F3"/>
<stop offset="0.95" stop-color="#7CBAFC"/>
<stop offset="1" stop-color="#7BC8FF"/>
</linearGradient>
<linearGradient id="paint3_linear_189_3278" x1="117.815" y1="121.116" x2="130.831" y2="106.456" gradientUnits="userSpaceOnUse">
<stop stop-color="#4B31B0"/>
<stop offset="0.09" stop-color="#5D41C3"/>
<stop offset="0.21" stop-color="#7152D7"/>
<stop offset="0.34" stop-color="#7C5CE3"/>
<stop offset="0.46" stop-color="#805FE7"/>
<stop offset="0.55" stop-color="#8065E8"/>
<stop offset="0.67" stop-color="#7F76EC"/>
<stop offset="0.81" stop-color="#7E93F3"/>
<stop offset="0.95" stop-color="#7CBAFC"/>
<stop offset="1" stop-color="#7BC8FF"/>
</linearGradient>
<linearGradient id="paint4_linear_189_3278" x1="108.713" y1="131.436" x2="121.459" y2="117.082" gradientUnits="userSpaceOnUse">
<stop stop-color="#4B31B0"/>
<stop offset="0.09" stop-color="#5D41C3"/>
<stop offset="0.21" stop-color="#7152D7"/>
<stop offset="0.34" stop-color="#7C5CE3"/>
<stop offset="0.46" stop-color="#805FE7"/>
<stop offset="0.61" stop-color="#8069E7"/>
<stop offset="0.85" stop-color="#8082E6"/>
<stop offset="1" stop-color="#8095E6"/>
</linearGradient>
<linearGradient id="paint5_linear_189_3278" x1="95.2758" y1="136.067" x2="113.897" y2="115.097" gradientUnits="userSpaceOnUse">
<stop stop-color="#4B31B0"/>
<stop offset="0.09" stop-color="#5D41C3"/>
<stop offset="0.21" stop-color="#7152D7"/>
<stop offset="0.34" stop-color="#7C5CE3"/>
<stop offset="0.46" stop-color="#805FE7"/>
<stop offset="0.61" stop-color="#8069E7"/>
<stop offset="0.85" stop-color="#8082E6"/>
<stop offset="1" stop-color="#8095E6"/>
</linearGradient>
<linearGradient id="paint6_linear_189_3278" x1="116.293" y1="156.087" x2="129.309" y2="141.427" gradientUnits="userSpaceOnUse">
<stop stop-color="#4B31B0"/>
<stop offset="0.09" stop-color="#5D41C3"/>
<stop offset="0.21" stop-color="#7152D7"/>
<stop offset="0.34" stop-color="#7C5CE3"/>
<stop offset="0.46" stop-color="#805FE7"/>
<stop offset="0.61" stop-color="#8069E7"/>
<stop offset="0.85" stop-color="#8082E6"/>
<stop offset="1" stop-color="#8095E6"/>
</linearGradient>
<linearGradient id="paint7_linear_189_3278" x1="128.062" y1="150.575" x2="141.082" y2="135.915" gradientUnits="userSpaceOnUse">
<stop stop-color="#4B31B0"/>
<stop offset="0.09" stop-color="#5D41C3"/>
<stop offset="0.21" stop-color="#7152D7"/>
<stop offset="0.34" stop-color="#7C5CE3"/>
<stop offset="0.46" stop-color="#805FE7"/>
<stop offset="0.61" stop-color="#8069E7"/>
<stop offset="0.85" stop-color="#8082E6"/>
<stop offset="1" stop-color="#8095E6"/>
</linearGradient>
<clipPath id="clip0_189_3278">
<rect width="260" height="260" fill="white"/>
</clipPath>
</defs>
</svg>
