<svg width="64" height="64" viewBox="0 0 64 64" fill="none" xmlns="http://www.w3.org/2000/svg">
<path d="M32.0026 5.33325C46.7306 5.33325 58.6693 17.2719 58.6693 31.9999C58.6693 46.7279 46.7306 58.6666 32.0026 58.6666C27.2901 58.6742 22.6604 57.427 18.5893 55.0533L5.34664 58.6666L8.95197 45.4186C6.57622 41.3463 5.3281 36.7146 5.33597 31.9999C5.33597 17.2719 17.2746 5.33325 32.0026 5.33325ZM22.9146 19.4666L22.3813 19.4879C22.036 19.5089 21.6986 19.5997 21.3893 19.7546C21.1 19.9184 20.836 20.1232 20.6053 20.3626C20.2853 20.6639 20.104 20.9253 19.9093 21.1786C18.923 22.461 18.3919 24.0354 18.4 25.6533C18.4053 26.9599 18.7466 28.2319 19.28 29.4213C20.3706 31.8266 22.1653 34.3733 24.5333 36.7333C25.104 37.3013 25.664 37.8719 26.2666 38.4026C29.209 40.9932 32.7153 42.8614 36.5066 43.8586L38.0213 44.0906C38.5146 44.1173 39.008 44.0799 39.504 44.0559C40.2806 44.0158 41.0389 43.8055 41.7253 43.4399C42.0745 43.26 42.4153 43.0643 42.7466 42.8533C42.7466 42.8533 42.8613 42.7786 43.08 42.6133C43.44 42.3466 43.6613 42.1573 43.96 41.8453C44.1813 41.6159 44.3733 41.3466 44.52 41.0399C44.728 40.6053 44.936 39.7759 45.0213 39.0853C45.0853 38.5573 45.0666 38.2693 45.0586 38.0906C45.048 37.8053 44.8106 37.5093 44.552 37.3839L43 36.6879C43 36.6879 40.68 35.6773 39.2613 35.0319C39.1129 34.9671 38.9538 34.93 38.792 34.9226C38.6095 34.9038 38.4252 34.9244 38.2513 34.9828C38.0774 35.0412 37.9181 35.1362 37.784 35.2613C37.7706 35.2559 37.592 35.4079 35.664 37.7439C35.5533 37.8926 35.4009 38.005 35.2261 38.0667C35.0513 38.1285 34.8621 38.1368 34.6826 38.0906C34.5089 38.044 34.3387 37.9852 34.1733 37.9146C33.8426 37.7759 33.728 37.7226 33.5013 37.6266C31.9708 36.9587 30.5538 36.0563 29.3013 34.9519C28.9653 34.6586 28.6533 34.3386 28.3333 34.0293C27.2842 33.0245 26.3699 31.8879 25.6133 30.6479L25.456 30.3946C25.343 30.2244 25.2516 30.0407 25.184 29.8479C25.0826 29.4559 25.3466 29.1413 25.3466 29.1413C25.3466 29.1413 25.9946 28.4319 26.296 28.0479C26.5893 27.6746 26.8373 27.3119 26.9973 27.0533C27.312 26.5466 27.4106 26.0266 27.2453 25.6239C26.4986 23.7999 25.7253 21.9839 24.9306 20.1813C24.7733 19.8239 24.3066 19.5679 23.8826 19.5173C23.7386 19.5013 23.5946 19.4853 23.4506 19.4746C23.0925 19.4568 22.7337 19.4604 22.376 19.4853L22.9146 19.4666Z" fill="white"/>
</svg>
