<svg width="28" height="28" viewBox="0 0 28 28" fill="none" xmlns="http://www.w3.org/2000/svg">
<path d="M22.995 10.9375C22.1725 10.9375 21.49 11.62 21.49 12.46V18.585C21.49 19.425 22.1725 20.125 22.995 20.125C23.8175 20.125 24.5 19.4425 24.5 18.585V12.46C24.5 11.62 23.8175 10.9375 22.995 10.9375ZM4.98754 10.9375C4.16504 10.9375 3.48254 11.62 3.48254 12.46V18.585C3.48254 19.425 4.16504 20.125 4.98754 20.125C5.81004 20.125 6.49254 19.4425 6.49254 18.585V12.46C6.49254 11.62 5.81004 10.9375 4.98754 10.9375ZM7.24504 19.355C7.24504 19.9675 7.49004 20.545 7.91004 20.9825C8.33004 21.42 8.90754 21.6475 9.50254 21.6475V24.71C9.50254 25.55 10.185 26.25 11.0075 26.25C11.83 26.25 12.5125 25.5675 12.5125 24.71V21.6475H15.505V24.71C15.505 25.55 16.1875 26.25 17.01 26.25C17.8325 26.25 18.515 25.5675 18.515 24.71V21.6475C19.11 21.6475 19.6875 21.4025 20.1075 20.9825C20.5275 20.545 20.7725 19.9675 20.7725 19.355V10.9375H7.24504V19.355ZM20.7025 9.39746C20.5975 8.38246 20.265 7.40246 19.74 6.54496C19.215 5.66996 18.515 4.93496 17.675 4.39246L18.4275 2.85246C18.515 2.67746 18.5325 2.46746 18.4625 2.27496C18.4316 2.17964 18.3815 2.09166 18.3153 2.01642C18.2491 1.94118 18.1682 1.88028 18.0775 1.83746C17.9887 1.79286 17.8916 1.76676 17.7924 1.76075C17.6931 1.75473 17.5937 1.76892 17.5 1.80246C17.3075 1.87246 17.15 2.01246 17.0625 2.18746L16.31 3.72746L16.1175 3.63996C14.735 3.16746 13.2475 3.16746 11.865 3.63996L11.6725 3.72746L10.92 2.18746C10.8288 2.0079 10.6722 1.87012 10.4825 1.80246C10.3889 1.76892 10.2895 1.75473 10.1902 1.76075C10.0909 1.76676 9.99393 1.79286 9.90504 1.83746C9.73004 1.92496 9.59004 2.08246 9.52004 2.27496C9.48651 2.36858 9.47232 2.46803 9.47833 2.5673C9.48435 2.66656 9.51045 2.76357 9.55504 2.85246L10.3075 4.39246C9.46754 4.95246 8.76754 5.68746 8.24254 6.54496C7.71754 7.41996 7.38504 8.38246 7.28004 9.39746V10.1675H20.7375V9.39746H20.7025ZM11.7425 7.87496C11.55 7.87496 11.3575 7.78746 11.2175 7.64746C11.0729 7.50386 10.9911 7.30877 10.99 7.10496C10.99 6.89496 11.06 6.70246 11.2175 6.56246C11.3575 6.42246 11.55 6.33496 11.7425 6.33496C11.935 6.33496 12.1275 6.42246 12.2675 6.56246C12.4075 6.70246 12.495 6.89496 12.495 7.10496C12.495 7.31496 12.4075 7.50746 12.2675 7.64746C12.1275 7.78746 11.935 7.87496 11.7425 7.87496ZM16.24 7.87496C16.0475 7.87496 15.855 7.78746 15.715 7.64746C15.5704 7.50386 15.4886 7.30877 15.4875 7.10496C15.4875 6.89496 15.5575 6.70246 15.715 6.56246C15.855 6.42246 16.0475 6.33496 16.24 6.33496C16.4325 6.33496 16.625 6.42246 16.765 6.56246C16.905 6.70246 16.9925 6.89496 16.9925 7.10496C16.9925 7.31496 16.905 7.50746 16.765 7.64746C16.625 7.78746 16.4325 7.87496 16.24 7.87496Z" fill="#6600CC"/>
</svg>
