<svg width="28" height="28" viewBox="0 0 28 28" fill="none" xmlns="http://www.w3.org/2000/svg">
<path d="M20.577 13.4529C19.9168 10.1303 23.0704 8.18171 23.0704 8.18171C23.0704 8.18171 21.8417 6.40407 19.7767 5.94676C17.7128 5.48844 16.6798 6.06107 15.6488 6.49054C14.6168 6.92107 14.1018 6.92107 14.1018 6.92107C12.6126 6.92107 11.5239 5.34425 8.68652 6.06212C6.73174 6.55543 4.67392 8.81201 4.30212 11.5053C3.93032 14.1996 4.73265 17.6374 6.27958 20.3019C7.82651 22.9683 9.40233 23.9704 10.5208 23.9993C11.6393 24.0271 12.7557 23.198 14.1018 22.9961C15.449 22.7963 16.2781 23.4843 17.5995 23.8561C18.9157 24.2269 19.3771 23.8829 20.8931 22.5934C22.4133 21.304 23.7893 17.6055 23.7893 17.6055C23.7893 17.6055 21.2371 16.7774 20.577 13.4529Z" fill="#6600CC"/>
<path d="M17.6543 3.79731C19.1167 2.30705 18.6214 0 18.6214 0C18.6214 0 16.5677 0.360484 15.1917 1.79206C13.8167 3.22469 14.0444 5.48743 14.0444 5.48743C14.0444 5.48743 16.1917 5.28661 17.6543 3.79731Z" fill="#6600CC"/>
</svg>
