<svg width="110" height="110" viewBox="0 0 110 110" fill="none" xmlns="http://www.w3.org/2000/svg">
<rect width="110" height="110" rx="55" fill="#EFEFEF"/>
<path d="M83.0515 52.8692L82.4065 45.4399C82.3977 44.5503 81.893 42.8502 79.899 42.4719C78.7139 42.247 76.089 41.4865 75.2283 41.1915C74.8269 36.5559 74.5147 33.0756 74.4504 32.3322C74.2215 29.6893 61.7801 28.6518 54.6481 28.6302C47.5162 28.6518 35.0749 29.6891 34.8459 32.3322C34.7815 33.0756 34.4684 36.5559 34.0669 41.1915C33.2062 41.4865 30.5818 42.2472 29.3967 42.4719C27.4027 42.8502 26.8982 44.5502 26.8894 45.4399L26.2446 52.8692C26.1768 53.6508 26.7489 54.3924 27.5305 54.4603L29.0838 54.5948C29.8653 54.6624 30.5571 54.0303 30.6248 53.2488L31.1169 47.5656C31.1845 46.7839 30.6035 46.1361 29.8218 46.0683L28.6306 45.9652L28.666 45.5554L28.6692 45.4674C28.6679 45.3617 28.6629 44.4273 29.7315 44.2246C30.9053 44.0017 33.0471 43.564 33.8819 43.3883C32.8352 55.4751 31.582 70.6759 31.582 70.6759C31.582 72.327 34.6074 76.0392 36.2582 76.0392H37.0513V81.096C37.0513 82.1437 37.9527 82.9334 39.0458 82.9334H43.281C44.374 82.9334 45.253 82.1437 45.253 81.096V76.0392H54.6478H64.0338V81.096C64.0338 82.1437 64.9217 82.9334 66.0148 82.9334H70.25C71.3429 82.9334 72.2355 82.1437 72.2355 81.096V76.0392H73.0375C74.6883 76.0392 77.7136 72.327 77.7136 70.6759C77.7136 70.6759 76.4604 55.4679 75.4137 43.3809C76.2485 43.5567 78.3903 43.9981 79.5641 44.2208C80.6327 44.4235 80.6278 45.3598 80.6266 45.4655L80.6298 45.5545L80.6652 45.9647L79.4739 46.0681C78.6923 46.1357 78.1112 46.7838 78.1789 47.5653L78.671 53.2485C78.7386 54.0302 79.4304 54.6624 80.212 54.5946L81.7653 54.4601C82.5473 54.3925 83.1193 53.6508 83.0515 52.8692ZM38.2026 37.5147L38.5003 34.0132C38.5326 33.6405 38.8814 33.3665 39.2542 33.3988L70.0418 33.3994C70.4146 33.3672 70.7643 33.6439 70.7965 34.0164L71.0932 37.5144C71.1254 37.8871 70.8386 38.24 70.4658 38.24H38.8308C38.458 38.24 38.1704 37.8874 38.2026 37.5147ZM44.0214 69.4915C44.0214 70.9794 41.1087 70.0798 38.9138 69.6999C36.9533 69.3607 37.0515 68.2234 37.0515 68.2234V65.6883C37.0515 65.2605 37.4586 64.9448 37.8748 65.0442C39.1227 65.342 41.4809 65.9145 42.5689 66.2494C44.0877 66.7166 44.0214 69.4915 44.0214 69.4915ZM70.3781 69.6999C68.1832 70.0798 65.2748 70.9794 65.2748 69.4915C65.2748 69.4915 65.2058 66.7166 66.7245 66.2494C67.8125 65.9146 70.1688 65.342 71.4167 65.0442C71.8329 64.9448 72.2358 65.2605 72.2358 65.6883V68.2234C72.2358 68.2234 72.3385 69.3605 70.3781 69.6999ZM70.5248 62.132H70.5191C70.5191 62.132 62.8497 60.3213 54.648 60.2476C46.4463 60.3212 38.7771 62.132 38.7771 62.132H38.7715C37.8268 62.132 37.0559 61.4343 37.0559 60.5159L37.7831 42.2333C37.8624 41.3184 38.7244 40.6172 39.6655 40.736H69.6307C70.5717 40.6172 71.4349 41.3255 71.5141 42.2405L72.2408 60.5211C72.241 61.4398 71.4694 62.132 70.5248 62.132Z" fill="#1E1E32"/>
<path d="M62.9815 55.1974C60.4273 55.1974 58.284 56.9537 57.6914 59.3243C58.1698 59.3161 58.7853 59.3146 59.4976 59.3336C60.0308 57.9278 61.391 56.9255 62.9815 56.9255C64.8916 56.9255 66.4696 58.3708 66.6817 60.2251C67.2741 60.3714 67.8612 60.5403 68.4327 60.736C68.4332 60.7075 68.4348 60.6793 68.4348 60.6508C68.4348 57.6389 65.9933 55.1974 62.9815 55.1974Z" fill="#1E1E32"/>
</svg>
