<svg xmlns="http://www.w3.org/2000/svg" xmlns:xlink="http://www.w3.org/1999/xlink" id="Слой_1" x="0px" y="0px" viewBox="0 0 29.8 29.1" style="enable-background:new 0 0 29.8 29.1;" xml:space="preserve" width="29.8"  height="29.1" > <style type="text/css"> .st0{fill:#FFFFFF;} </style> <path class="st0" d="M23.1,8h-1.6V3.6c0-2-1.6-3.6-3.6-3.6h-5.6c-2,0-3.6,1.6-3.6,3.6V8H6.8C3,8,0,11,0,14.7v10.9 c0,1.9,1.6,3.5,3.5,3.5h22.8c1.9,0,3.5-1.6,3.5-3.5V14.7C29.8,11,26.8,8,23.1,8z M10.6,3.6c0-0.9,0.7-1.6,1.6-1.6h5.6 c0.9,0,1.6,0.7,1.6,1.6V8h-8.8V3.6z M27.8,25.6c0,0.8-0.7,1.5-1.5,1.5H3.5c-0.8,0-1.5-0.7-1.5-1.5V14.7C2,12.1,4.1,10,6.8,10h1.8 h12.8h1.6c2.6,0,4.8,2.1,4.8,4.8V25.6z"/> </svg>