<svg xmlns="http://www.w3.org/2000/svg" xmlns:xlink="http://www.w3.org/1999/xlink" id="Слой_1" x="0px" y="0px" viewBox="0 0 27.7 29.1" style="enable-background:new 0 0 27.7 29.1;" xml:space="preserve" width="27.7"  height="29.1" > <style type="text/css"> .st0{fill:#FFFFFF;} </style> <g> <path class="st0" d="M13.9,14.4c4,0,7.2-3.2,7.2-7.2S17.8,0,13.9,0S6.7,3.2,6.7,7.2S9.9,14.4,13.9,14.4z M13.9,2 c2.9,0,5.2,2.3,5.2,5.2s-2.3,5.2-5.2,5.2s-5.2-2.3-5.2-5.2S11,2,13.9,2z"/> <path class="st0" d="M26.5,22.1c-3.3-3.2-7.7-5.2-12.7-5.2c-4.9,0-9.4,2-12.7,5.2c-2.6,2.6-0.7,7,2.9,7h19.5 C27.2,29.1,29.1,24.7,26.5,22.1z M25.6,25.8c-0.1,0.3-0.7,1.3-2,1.3H4.1c-1.3,0-1.8-1-2-1.3c-0.1-0.3-0.5-1.3,0.4-2.2 c3-3,7-4.6,11.3-4.6c4.2,0,8.2,1.6,11.3,4.6C26,24.4,25.7,25.5,25.6,25.8z"/> </g> </svg>