<svg xmlns="http://www.w3.org/2000/svg" xmlns:xlink="http://www.w3.org/1999/xlink" id="Слой_1" x="0px" y="0px" viewBox="0 0 31.5 28.9" style="enable-background:new 0 0 31.5 28.9;" xml:space="preserve" width="31.5"  height="28.9" > <style type="text/css"> .st0{fill:#FFFFFF;} </style> <path class="st0" d="M31.5,3.7c0-2-1.7-3.7-3.7-3.7s-3.7,1.7-3.7,3.7c0,1.7,1.1,3.1,2.7,3.5v4.3c0,1.1-0.9,1.9-1.9,1.9h-8.1V7.2 c1.6-0.4,2.7-1.9,2.7-3.5c0-2-1.7-3.7-3.7-3.7S12,1.7,12,3.7c0,1.7,1.1,3.1,2.7,3.5v6.2H6.6c-0.7,0-1.4,0.2-1.9,0.5V7.2 c1.6-0.4,2.7-1.9,2.7-3.5c0-2-1.7-3.7-3.7-3.7S0,1.7,0,3.7c0,1.7,1.1,3.1,2.7,3.5v10.1v4.3C1.1,22.1,0,23.5,0,25.2 c0,2,1.7,3.7,3.7,3.7s3.7-1.7,3.7-3.7c0-1.7-1.1-3.1-2.7-3.5v-4.3c0-1.1,0.9-1.9,1.9-1.9h8.1v6.2c-1.6,0.4-2.7,1.9-2.7,3.5 c0,2,1.7,3.7,3.7,3.7s3.7-1.7,3.7-3.7c0-1.7-1.1-3.1-2.7-3.5v-6.2h8.1c2.2,0,3.9-1.8,3.9-3.9V7.2C30.3,6.8,31.5,5.4,31.5,3.7z M14,3.7C14,2.8,14.8,2,15.7,2c0.9,0,1.7,0.8,1.7,1.7s-0.8,1.7-1.7,1.7C14.8,5.4,14,4.6,14,3.7z M2,3.7C2,2.8,2.8,2,3.7,2 s1.7,0.8,1.7,1.7S4.6,5.4,3.7,5.4S2,4.6,2,3.7z M5.4,25.2c0,0.9-0.8,1.7-1.7,1.7S2,26.1,2,25.2s0.8-1.7,1.7-1.7S5.4,24.3,5.4,25.2z M17.4,25.2c0,0.9-0.8,1.7-1.7,1.7c-0.9,0-1.7-0.8-1.7-1.7s0.8-1.7,1.7-1.7C16.7,23.5,17.4,24.3,17.4,25.2z M27.8,5.4 c-0.9,0-1.7-0.8-1.7-1.7S26.8,2,27.8,2s1.7,0.8,1.7,1.7S28.7,5.4,27.8,5.4z"/> </svg>