<svg width="80" height="80" viewBox="0 0 80 80" fill="none" xmlns="http://www.w3.org/2000/svg">
<path d="M76.25 63.75C76.25 63.4185 76.1183 63.1005 75.8839 62.8661C75.6495 62.6317 75.3315 62.5 75 62.5H62.5C62.1685 62.5 61.8505 62.6317 61.6161 62.8661C61.3817 63.1005 61.25 63.4185 61.25 63.75V76.25H47.5V48.75C47.5 48.4185 47.3683 48.1005 47.1339 47.8661C46.8995 47.6317 46.5815 47.5 46.25 47.5H33.75C33.4185 47.5 33.1005 47.6317 32.8661 47.8661C32.6317 48.1005 32.5 48.4185 32.5 48.75V76.25H18.75V31.25C18.75 30.9185 18.6183 30.6005 18.3839 30.3661C18.1495 30.1317 17.8315 30 17.5 30H5C4.66848 30 4.35054 30.1317 4.11612 30.3661C3.8817 30.6005 3.75 30.9185 3.75 31.25V76.25H1.25V78.75H78.75V76.25H76.25V63.75ZM16.25 76.25H6.25V32.5H16.25V76.25ZM45 76.25H35V50H45V76.25ZM73.75 76.25H63.75V65H73.75V76.25Z" fill="url(#paint0_linear_3052_567)"/>
<path d="M12.1563 14.1401L10.3438 15.8601C10.5763 16.1101 33.3312 39.7889 65.4688 51.4301L61.8262 53.1676L62.9025 55.4176L69.2887 52.3751C69.5877 52.2322 69.8177 51.9763 69.9281 51.6639C70.0385 51.3514 70.0203 51.0079 69.8775 50.7089L66.8325 44.3276L64.5825 45.4039L66.3325 49.0801C34.7612 37.6526 12.385 14.3751 12.1563 14.1401Z" fill="url(#paint1_linear_3052_567)"/>
<path d="M61.25 1.25C57.7888 1.25 54.4054 2.27636 51.5275 4.19928C48.6497 6.12221 46.4066 8.85533 45.0821 12.053C43.7576 15.2507 43.411 18.7694 44.0863 22.1641C44.7615 25.5587 46.4282 28.6769 48.8756 31.1244C51.3231 33.5718 54.4413 35.2385 57.8359 35.9137C61.2306 36.589 64.7493 36.2424 67.947 34.9179C71.1447 33.5934 73.8778 31.3503 75.8007 28.4725C77.7237 25.5946 78.75 22.2112 78.75 18.75C78.745 14.1102 76.8997 9.66192 73.6189 6.38111C70.3381 3.1003 65.8898 1.25496 61.25 1.25ZM61.25 33.75C58.2833 33.75 55.3832 32.8703 52.9165 31.222C50.4497 29.5738 48.5271 27.2311 47.3918 24.4903C46.2565 21.7494 45.9595 18.7334 46.5382 15.8236C47.117 12.9139 48.5456 10.2412 50.6434 8.1434C52.7412 6.04561 55.4139 4.617 58.3237 4.03822C61.2334 3.45944 64.2494 3.75649 66.9903 4.89181C69.7311 6.02712 72.0738 7.94971 73.722 10.4164C75.3703 12.8832 76.25 15.7833 76.25 18.75C76.2457 22.7269 74.664 26.5397 71.8519 29.3519C69.0397 32.164 65.2269 33.7457 61.25 33.75Z" fill="url(#paint2_linear_3052_567)"/>
<path d="M54.1704 24.0586L66.5438 11.6852L68.3113 13.4527L55.9379 25.8261L54.1704 24.0586Z" fill="url(#paint3_linear_3052_567)"/>
<path d="M63.5988 19.8489C63.0742 20.3733 62.7169 21.0415 62.5721 21.769C62.4274 22.4964 62.5016 23.2505 62.7853 23.9358C63.0691 24.6211 63.5498 25.2068 64.1665 25.6189C64.7832 26.031 65.5083 26.251 66.25 26.251C66.9917 26.251 67.7168 26.031 68.3335 25.6189C68.9502 25.2068 69.4309 24.6211 69.7147 23.9358C69.9985 23.2505 70.0727 22.4964 69.9279 21.769C69.7831 21.0415 69.4258 20.3733 68.9013 19.8489C68.198 19.1459 67.2444 18.751 66.25 18.751C65.2556 18.751 64.302 19.1459 63.5988 19.8489ZM67.1338 23.3839C66.959 23.5588 66.7362 23.6779 66.4937 23.7261C66.2513 23.7744 65.9999 23.7497 65.7715 23.6551C65.543 23.5605 65.3478 23.4002 65.2104 23.1947C65.0731 22.9891 64.9997 22.7474 64.9997 22.5002C64.9997 22.2529 65.0731 22.0112 65.2104 21.8057C65.3478 21.6001 65.543 21.4399 65.7715 21.3453C65.9999 21.2507 66.2513 21.226 66.4937 21.2742C66.7362 21.3225 66.959 21.4416 67.1338 21.6164C67.3681 21.8508 67.4997 22.1687 67.4997 22.5002C67.4997 22.8316 67.3681 23.1495 67.1338 23.3839Z" fill="url(#paint4_linear_3052_567)"/>
<path d="M58.9013 17.6513C59.5147 17.0377 59.8964 16.2304 59.9813 15.367C60.0662 14.5035 59.8491 13.6374 59.3669 12.9161C58.8848 12.1948 58.1675 11.663 57.3372 11.4113C56.5069 11.1596 55.6151 11.2036 54.8136 11.5357C54.0121 11.8679 53.3506 12.4677 52.9417 13.2329C52.5329 13.9981 52.402 14.8814 52.5715 15.7323C52.7409 16.5832 53.2001 17.349 53.8709 17.8993C54.5417 18.4495 55.3825 18.7502 56.2501 18.75C57.2446 18.7498 58.1982 18.3546 58.9013 17.6513ZM55.3663 14.1163C55.5411 13.9414 55.7639 13.8223 56.0063 13.774C56.2488 13.7258 56.5002 13.7505 56.7286 13.8451C56.957 13.9397 57.1523 14.0999 57.2897 14.3055C57.427 14.5111 57.5003 14.7528 57.5003 15C57.5003 15.2472 57.427 15.4889 57.2897 15.6945C57.1523 15.9001 56.957 16.0603 56.7286 16.1549C56.5002 16.2495 56.2488 16.2742 56.0063 16.226C55.7639 16.1777 55.5411 16.0586 55.3663 15.8838C55.132 15.6493 55.0003 15.3315 55.0003 15C55.0003 14.6685 55.132 14.3507 55.3663 14.1163Z" fill="url(#paint5_linear_3052_567)"/>
<defs>
<linearGradient id="paint0_linear_3052_567" x1="54.811" y1="81.0069" x2="54.7746" y2="24.1146" gradientUnits="userSpaceOnUse">
<stop stop-color="#4831B1"/>
<stop offset="0.0886" stop-color="#5D41C4"/>
<stop offset="0.214" stop-color="#7152D8"/>
<stop offset="0.3396" stop-color="#7C5CE4"/>
<stop offset="0.4649" stop-color="#805FE8"/>
<stop offset="0.5515" stop-color="#8065E9"/>
<stop offset="0.6688" stop-color="#7F76ED"/>
<stop offset="0.8036" stop-color="#7E93F3"/>
<stop offset="0.9506" stop-color="#7CBAFC"/>
<stop offset="1" stop-color="#7BC9FF"/>
</linearGradient>
<linearGradient id="paint1_linear_3052_567" x1="51.5724" y1="57.3286" x2="51.5384" y2="9.15687" gradientUnits="userSpaceOnUse">
<stop stop-color="#4831B1"/>
<stop offset="0.0886" stop-color="#5D41C4"/>
<stop offset="0.214" stop-color="#7152D8"/>
<stop offset="0.3396" stop-color="#7C5CE4"/>
<stop offset="0.4649" stop-color="#805FE8"/>
<stop offset="0.5515" stop-color="#8065E9"/>
<stop offset="0.6688" stop-color="#7F76ED"/>
<stop offset="0.8036" stop-color="#7E93F3"/>
<stop offset="0.9506" stop-color="#7CBAFC"/>
<stop offset="1" stop-color="#7BC9FF"/>
</linearGradient>
<linearGradient id="paint2_linear_3052_567" x1="67.9388" y1="37.8704" x2="67.8972" y2="-2.97539" gradientUnits="userSpaceOnUse">
<stop stop-color="#4831B1"/>
<stop offset="0.0886" stop-color="#5D41C4"/>
<stop offset="0.214" stop-color="#7152D8"/>
<stop offset="0.3396" stop-color="#7C5CE4"/>
<stop offset="0.4649" stop-color="#805FE8"/>
<stop offset="0.5515" stop-color="#8065E9"/>
<stop offset="0.6688" stop-color="#7F76ED"/>
<stop offset="0.8036" stop-color="#7E93F3"/>
<stop offset="0.9506" stop-color="#7CBAFC"/>
<stop offset="1" stop-color="#7BC9FF"/>
</linearGradient>
<linearGradient id="paint3_linear_3052_567" x1="64.5711" y1="17.3566" x2="62.5081" y2="15.2941" gradientUnits="userSpaceOnUse">
<stop stop-color="#4831B1"/>
<stop offset="0.0886" stop-color="#5D41C4"/>
<stop offset="0.214" stop-color="#7152D8"/>
<stop offset="0.3396" stop-color="#7C5CE4"/>
<stop offset="0.4649" stop-color="#805FE8"/>
<stop offset="0.5515" stop-color="#8065E9"/>
<stop offset="0.6688" stop-color="#7F76ED"/>
<stop offset="0.8036" stop-color="#7E93F3"/>
<stop offset="0.9506" stop-color="#7CBAFC"/>
<stop offset="1" stop-color="#7BC9FF"/>
</linearGradient>
<linearGradient id="paint4_linear_3052_567" x1="67.6833" y1="26.5982" x2="67.6744" y2="17.8455" gradientUnits="userSpaceOnUse">
<stop stop-color="#4831B1"/>
<stop offset="0.0886" stop-color="#5D41C4"/>
<stop offset="0.214" stop-color="#7152D8"/>
<stop offset="0.3396" stop-color="#7C5CE4"/>
<stop offset="0.4649" stop-color="#805FE8"/>
<stop offset="0.5515" stop-color="#8065E9"/>
<stop offset="0.6688" stop-color="#7F76ED"/>
<stop offset="0.8036" stop-color="#7E93F3"/>
<stop offset="0.9506" stop-color="#7CBAFC"/>
<stop offset="1" stop-color="#7BC9FF"/>
</linearGradient>
<linearGradient id="paint5_linear_3052_567" x1="57.6826" y1="19.0972" x2="57.6737" y2="10.3446" gradientUnits="userSpaceOnUse">
<stop stop-color="#4831B1"/>
<stop offset="0.0886" stop-color="#5D41C4"/>
<stop offset="0.214" stop-color="#7152D8"/>
<stop offset="0.3396" stop-color="#7C5CE4"/>
<stop offset="0.4649" stop-color="#805FE8"/>
<stop offset="0.5515" stop-color="#8065E9"/>
<stop offset="0.6688" stop-color="#7F76ED"/>
<stop offset="0.8036" stop-color="#7E93F3"/>
<stop offset="0.9506" stop-color="#7CBAFC"/>
<stop offset="1" stop-color="#7BC9FF"/>
</linearGradient>
</defs>
</svg>
