<svg width="81" height="80" viewBox="0 0 81 80" fill="none" xmlns="http://www.w3.org/2000/svg">
<g clip-path="url(#clip0_3052_611)">
<path d="M61.0326 8.86647L41.0326 0.111801C40.6926 -0.0366161 40.306 -0.0366161 39.966 0.111801L19.966 8.86647C19.4803 9.07843 19.1662 9.55789 19.166 10.0878V31.0211C19.1732 35.7256 21.4338 40.1418 25.246 42.8985L39.0686 52.8678C39.9223 53.4857 41.0763 53.4857 41.93 52.8678L55.7526 42.8998C59.5647 40.1431 61.8254 35.7269 61.8326 31.0225V10.0878C61.8323 9.55789 61.5183 9.07843 61.0326 8.86647ZM59.166 31.0225C59.1598 34.8703 57.3107 38.4824 54.1926 40.7371L40.4993 50.6131L26.806 40.7371C23.6879 38.4824 21.8387 34.8703 21.8326 31.0225V10.9598L40.4993 2.78913L59.166 10.9598V31.0225Z" fill="url(#paint0_linear_3052_611)"/>
<path d="M39.9659 5.93309L25.2992 12.3544C24.8135 12.5664 24.4995 13.0458 24.4992 13.5758V31.0224C24.5033 34.014 25.9412 36.8222 28.3659 38.5744L39.7192 46.7638C40.185 47.0997 40.8135 47.0997 41.2792 46.7638L52.6325 38.5744C55.0572 36.8222 56.4951 34.014 56.4992 31.0224V13.5758C56.4989 13.0458 56.1849 12.5664 55.6992 12.3544L41.0325 5.93309C40.6925 5.78467 40.3059 5.78467 39.9659 5.93309ZM53.8325 14.4464V31.0224C53.8285 33.1572 52.8023 35.1608 51.0725 36.4118L40.4992 44.0384L29.9259 36.4118C28.1961 35.1608 27.17 33.1572 27.1659 31.0224V14.4464L40.4992 8.61042L53.8325 14.4464Z" fill="url(#paint1_linear_3052_611)"/>
<path d="M11.5459 44.2664L8.66188 37.5278C8.04858 36.1385 6.74068 35.1819 5.23087 35.0184C3.72106 34.8549 2.23871 35.5093 1.3422 36.7351C0.445699 37.9609 0.271242 39.5718 0.884548 40.9611L6.10988 52.4558C6.81483 54.0119 7.79552 55.4276 9.00455 56.6344L17.2219 64.8531C16.7591 65.3436 16.5007 65.9921 16.4992 66.6664V77.3331C16.4992 78.8059 17.6931 79.9998 19.1659 79.9998H33.8326C35.3053 79.9998 36.4992 78.8059 36.4992 77.3331V66.6664C36.4992 65.1937 35.3053 63.9998 33.8326 63.9998V61.5184C33.8734 58.3607 32.8432 55.2822 30.9099 52.7851C29.7764 51.2943 28.2317 50.1676 26.4659 49.5438C23.6577 48.3639 21.075 46.7065 18.8326 44.6451C16.751 42.9308 13.7939 42.7771 11.5459 44.2664ZM33.8326 77.3331H19.1659V66.6664H33.8326V77.3331ZM28.8286 54.4504C30.3827 56.4753 31.2064 58.9662 31.1659 61.5184V63.9998H20.1406L10.8899 54.7491C9.90739 53.768 9.11016 52.6175 8.53655 51.3531L3.31121 39.8584C3.08822 39.3678 3.12972 38.7975 3.4214 38.3444C3.71307 37.8912 4.21498 37.6173 4.75388 37.6171C5.38808 37.6166 5.96123 37.995 6.20988 38.5784L9.19255 45.5344C9.98458 47.3903 11.1262 49.0765 12.5552 50.5011L18.6459 56.5931C18.9806 56.9397 19.4764 57.0787 19.9426 56.9567C20.4087 56.8347 20.7728 56.4706 20.8948 56.0044C21.0168 55.5383 20.8778 55.0425 20.5312 54.7078L14.4405 48.6158C13.8281 48.0048 13.2774 47.3349 12.7965 46.6158C14.077 45.6305 15.8683 45.6603 17.1152 46.6878C19.6077 48.9752 22.4884 50.7993 25.6219 52.0744C26.8986 52.5387 28.0127 53.3642 28.8286 54.4504Z" fill="url(#paint2_linear_3052_611)"/>
<path d="M29.8325 70.6665H28.4992C27.7628 70.6665 27.1658 71.2635 27.1658 71.9998C27.1658 72.7362 27.7628 73.3332 28.4992 73.3332H29.8325C30.5689 73.3332 31.1658 72.7362 31.1658 71.9998C31.1658 71.2635 30.5689 70.6665 29.8325 70.6665Z" fill="url(#paint3_linear_3052_611)"/>
<path d="M74.8885 52.4558L80.1139 40.9611C80.7564 39.5671 80.5974 37.9351 79.698 36.6912C78.7987 35.4474 77.2986 34.7851 75.7735 34.9584C74.2484 35.1318 72.9352 36.1139 72.3379 37.5278L69.4605 44.2411C67.2047 42.7591 64.2461 42.9213 62.1659 44.6411C59.9234 46.7025 57.3408 48.3599 54.5325 49.5398C52.7668 50.1636 51.222 51.2903 50.0885 52.7811C48.1544 55.2793 47.1241 58.3593 47.1659 61.5185V63.9998C45.6931 63.9998 44.4992 65.1937 44.4992 66.6665V77.3331C44.4992 78.8059 45.6931 79.9998 47.1659 79.9998H61.8325C63.3053 79.9998 64.4992 78.8059 64.4992 77.3331V66.6665C64.4978 65.9921 64.2393 65.3436 63.7765 64.8531L71.9939 56.6345C73.2029 55.4276 74.1836 54.0119 74.8885 52.4558ZM61.8325 77.3331H47.1659V66.6665H61.8325V77.3331ZM60.8579 63.9998H49.8325V61.5185C49.7923 58.9667 50.616 56.4763 52.1699 54.4518C52.9839 53.3663 54.0956 52.5404 55.3699 52.0745C58.5039 50.7997 61.3852 48.9755 63.8779 46.6878C65.1234 45.6525 66.9198 45.6177 68.2045 46.6038C67.7223 47.3282 67.1688 48.0027 66.5525 48.6171L60.4619 54.7091C59.9566 55.2323 59.9638 56.0639 60.4781 56.5782C60.9924 57.0925 61.824 57.0998 62.3472 56.5945L68.4379 50.5025C69.8669 49.0779 71.0085 47.3917 71.8005 45.5358L74.7832 38.5785C75.0326 37.9958 75.6054 37.6181 76.2392 37.6185C76.7781 37.6187 77.28 37.8926 77.5717 38.3457C77.8634 38.7989 77.9049 39.3692 77.6819 39.8598L72.4565 51.3545C71.8829 52.6189 71.0857 53.7694 70.1032 54.7505L60.8579 63.9998Z" fill="url(#paint4_linear_3052_611)"/>
<path d="M52.4993 70.6665H51.1659C50.4296 70.6665 49.8326 71.2635 49.8326 71.9998C49.8326 72.7362 50.4296 73.3332 51.1659 73.3332H52.4993C53.2357 73.3332 53.8326 72.7362 53.8326 71.9998C53.8326 71.2635 53.2357 70.6665 52.4993 70.6665Z" fill="url(#paint5_linear_3052_611)"/>
<path d="M33.2994 28.2664C32.7103 27.8245 31.8746 27.9439 31.4328 28.533C30.9909 29.1221 31.1103 29.9579 31.6994 30.3997L37.0328 34.3997C37.2636 34.5728 37.5443 34.6664 37.8328 34.6664C37.9082 34.6661 37.9836 34.6599 38.0581 34.6477C38.4192 34.5857 38.7389 34.3779 38.9421 34.073L49.6088 18.073C49.8731 17.6767 49.906 17.1694 49.695 16.7423C49.4839 16.3152 49.061 16.0331 48.5856 16.0023C48.1102 15.9715 47.6545 16.1967 47.3901 16.593L37.5048 31.421L33.2994 28.2664Z" fill="url(#paint6_linear_3052_611)"/>
</g>
<defs>
<linearGradient id="paint0_linear_3052_611" x1="48.6533" y1="55.8002" x2="48.5741" y2="-6.43785" gradientUnits="userSpaceOnUse">
<stop stop-color="#4831B1"/>
<stop offset="0.0886" stop-color="#5D41C4"/>
<stop offset="0.214" stop-color="#7152D8"/>
<stop offset="0.3396" stop-color="#7C5CE4"/>
<stop offset="0.4649" stop-color="#805FE8"/>
<stop offset="0.5515" stop-color="#8065E9"/>
<stop offset="0.6688" stop-color="#7F76ED"/>
<stop offset="0.8036" stop-color="#7E93F3"/>
<stop offset="0.9506" stop-color="#7CBAFC"/>
<stop offset="1" stop-color="#7BC9FF"/>
</linearGradient>
<linearGradient id="paint1_linear_3052_611" x1="46.6147" y1="48.9228" x2="46.5517" y2="0.84866" gradientUnits="userSpaceOnUse">
<stop stop-color="#4831B1"/>
<stop offset="0.0886" stop-color="#5D41C4"/>
<stop offset="0.214" stop-color="#7152D8"/>
<stop offset="0.3396" stop-color="#7C5CE4"/>
<stop offset="0.4649" stop-color="#805FE8"/>
<stop offset="0.5515" stop-color="#8065E9"/>
<stop offset="0.6688" stop-color="#7F76ED"/>
<stop offset="0.8036" stop-color="#7E93F3"/>
<stop offset="0.9506" stop-color="#7CBAFC"/>
<stop offset="1" stop-color="#7BC9FF"/>
</linearGradient>
<linearGradient id="paint2_linear_3052_611" x1="25.3863" y1="82.0834" x2="25.3194" y2="29.5603" gradientUnits="userSpaceOnUse">
<stop stop-color="#4831B1"/>
<stop offset="0.0886" stop-color="#5D41C4"/>
<stop offset="0.214" stop-color="#7152D8"/>
<stop offset="0.3396" stop-color="#7C5CE4"/>
<stop offset="0.4649" stop-color="#805FE8"/>
<stop offset="0.5515" stop-color="#8065E9"/>
<stop offset="0.6688" stop-color="#7F76ED"/>
<stop offset="0.8036" stop-color="#7E93F3"/>
<stop offset="0.9506" stop-color="#7CBAFC"/>
<stop offset="1" stop-color="#7BC9FF"/>
</linearGradient>
<linearGradient id="paint3_linear_3052_611" x1="29.9303" y1="73.4566" x2="29.9282" y2="70.3446" gradientUnits="userSpaceOnUse">
<stop stop-color="#4831B1"/>
<stop offset="0.0886" stop-color="#5D41C4"/>
<stop offset="0.214" stop-color="#7152D8"/>
<stop offset="0.3396" stop-color="#7C5CE4"/>
<stop offset="0.4649" stop-color="#805FE8"/>
<stop offset="0.5515" stop-color="#8065E9"/>
<stop offset="0.6688" stop-color="#7F76ED"/>
<stop offset="0.8036" stop-color="#7E93F3"/>
<stop offset="0.9506" stop-color="#7CBAFC"/>
<stop offset="1" stop-color="#7BC9FF"/>
</linearGradient>
<linearGradient id="paint4_linear_3052_611" x1="69.3826" y1="82.0863" x2="69.3156" y2="29.4903" gradientUnits="userSpaceOnUse">
<stop stop-color="#4831B1"/>
<stop offset="0.0886" stop-color="#5D41C4"/>
<stop offset="0.214" stop-color="#7152D8"/>
<stop offset="0.3396" stop-color="#7C5CE4"/>
<stop offset="0.4649" stop-color="#805FE8"/>
<stop offset="0.5515" stop-color="#8065E9"/>
<stop offset="0.6688" stop-color="#7F76ED"/>
<stop offset="0.8036" stop-color="#7E93F3"/>
<stop offset="0.9506" stop-color="#7CBAFC"/>
<stop offset="1" stop-color="#7BC9FF"/>
</linearGradient>
<linearGradient id="paint5_linear_3052_611" x1="52.597" y1="73.4566" x2="52.5949" y2="70.3446" gradientUnits="userSpaceOnUse">
<stop stop-color="#4831B1"/>
<stop offset="0.0886" stop-color="#5D41C4"/>
<stop offset="0.214" stop-color="#7152D8"/>
<stop offset="0.3396" stop-color="#7C5CE4"/>
<stop offset="0.4649" stop-color="#805FE8"/>
<stop offset="0.5515" stop-color="#8065E9"/>
<stop offset="0.6688" stop-color="#7F76ED"/>
<stop offset="0.8036" stop-color="#7E93F3"/>
<stop offset="0.9506" stop-color="#7CBAFC"/>
<stop offset="1" stop-color="#7BC9FF"/>
</linearGradient>
<linearGradient id="paint6_linear_3052_611" x1="44.0669" y1="35.5306" x2="44.0447" y2="13.746" gradientUnits="userSpaceOnUse">
<stop stop-color="#4831B1"/>
<stop offset="0.0886" stop-color="#5D41C4"/>
<stop offset="0.214" stop-color="#7152D8"/>
<stop offset="0.3396" stop-color="#7C5CE4"/>
<stop offset="0.4649" stop-color="#805FE8"/>
<stop offset="0.5515" stop-color="#8065E9"/>
<stop offset="0.6688" stop-color="#7F76ED"/>
<stop offset="0.8036" stop-color="#7E93F3"/>
<stop offset="0.9506" stop-color="#7CBAFC"/>
<stop offset="1" stop-color="#7BC9FF"/>
</linearGradient>
<clipPath id="clip0_3052_611">
<rect width="80" height="80" fill="white" transform="translate(0.5)"/>
</clipPath>
</defs>
</svg>
