<svg width="118" height="116" viewBox="0 0 118 116" fill="none" xmlns="http://www.w3.org/2000/svg">
<rect width="110" height="110" rx="55" fill="#EFEFEF"/>
<path d="M83.0513 52.8692L82.4062 45.4399C82.3974 44.5503 81.8927 42.8501 79.8987 42.4719C78.7137 42.247 76.0887 41.4865 75.228 41.1915C74.8266 36.5559 74.5145 33.0756 74.4502 32.3322C74.2212 29.6892 61.7798 28.6518 54.6479 28.6301C47.5159 28.6518 35.0746 29.6891 34.8457 32.3322C34.7813 33.0756 34.4682 36.5559 34.0666 41.1915C33.2059 41.4865 30.5815 42.2471 29.3964 42.4719C27.4024 42.8501 26.898 44.5502 26.8892 45.4399L26.2443 52.8692C26.1766 53.6508 26.7487 54.3924 27.5302 54.4602L29.0836 54.5948C29.8651 54.6624 30.5569 54.0303 30.6245 53.2488L31.1166 47.5655C31.1843 46.7839 30.6033 46.1361 29.8216 46.0683L28.6303 45.9651L28.6657 45.5554L28.669 45.4673C28.6677 45.3617 28.6627 44.4273 29.7313 44.2246C30.9051 44.0017 33.0469 43.5639 33.8817 43.3883C32.835 55.4751 31.5818 70.6759 31.5818 70.6759C31.5818 72.3269 34.6071 76.0392 36.2579 76.0392H37.051V81.096C37.051 82.1437 37.9525 82.9334 39.0456 82.9334H43.2808C44.3737 82.9334 45.2527 82.1437 45.2527 81.096V76.0392H54.6475H64.0335V81.096C64.0335 82.1437 64.9214 82.9334 66.0145 82.9334H70.2497C71.3427 82.9334 72.2352 82.1437 72.2352 81.096V76.0392H73.0372C74.688 76.0392 77.7134 72.3269 77.7134 70.6759C77.7134 70.6759 76.4602 55.4679 75.4135 43.3809C76.2483 43.5567 78.3901 43.998 79.5639 44.2208C80.6325 44.4235 80.6275 45.3598 80.6263 45.4654L80.6295 45.5545L80.665 45.9647L79.4737 46.0681C78.692 46.1357 78.111 46.7838 78.1786 47.5653L78.6707 53.2485C78.7384 54.0302 79.4302 54.6624 80.2117 54.5946L81.7651 54.4601C82.5471 54.3925 83.1191 53.6508 83.0513 52.8692ZM38.2023 37.5146L38.5001 34.0132C38.5323 33.6404 38.8812 33.3665 39.2539 33.3988L70.0416 33.3994C70.4143 33.3672 70.764 33.6439 70.7962 34.0164L71.0929 37.5144C71.1252 37.887 70.8383 38.2399 70.4656 38.2399H38.8305C38.4578 38.2399 38.1701 37.8874 38.2023 37.5146ZM44.0212 69.4915C44.0212 70.9793 41.1085 70.0798 38.9135 69.6999C36.9531 69.3606 37.0512 68.2233 37.0512 68.2233V65.6883C37.0512 65.2605 37.4584 64.9448 37.8745 65.0441C39.1225 65.342 41.4807 65.9145 42.5686 66.2493C44.0875 66.7166 44.0212 69.4915 44.0212 69.4915ZM70.3778 69.6999C68.183 70.0798 65.2746 70.9793 65.2746 69.4915C65.2746 69.4915 65.2055 66.7166 66.7243 66.2493C67.8122 65.9146 70.1685 65.342 71.4165 65.0441C71.8326 64.9448 72.2356 65.2605 72.2356 65.6883V68.2233C72.2356 68.2233 72.3383 69.3605 70.3778 69.6999ZM70.5245 62.1319H70.5188C70.5188 62.1319 62.8495 60.3213 54.6478 60.2476C46.446 60.3211 38.7768 62.1319 38.7768 62.1319H38.7712C37.8266 62.1319 37.0556 61.4343 37.0556 60.5158L37.7829 42.2332C37.8621 41.3183 38.7242 40.6171 39.6652 40.736H69.6304C70.5715 40.6171 71.4347 41.3255 71.5138 42.2405L72.2406 60.5211C72.2407 61.4398 71.4691 62.1319 70.5245 62.1319Z" fill="#1E1E32"/>
<path d="M62.9813 55.1974C60.4271 55.1974 58.2837 56.9537 57.6912 59.3243C58.1696 59.3161 58.7851 59.3146 59.4973 59.3336C60.0306 57.9278 61.3907 56.9255 62.9813 56.9255C64.8913 56.9255 66.4694 58.3708 66.6814 60.2251C67.2739 60.3714 67.861 60.5403 68.4325 60.736C68.4329 60.7075 68.4346 60.6793 68.4346 60.6508C68.4346 57.6389 65.9931 55.1974 62.9813 55.1974Z" fill="#1E1E32"/>
<path d="M96 74.75C92.1927 74.75 88.4709 75.879 85.3053 77.9942C82.1396 80.1094 79.6723 83.1159 78.2153 86.6333C76.7583 90.1508 76.3771 94.0214 77.1199 97.7555C77.8627 101.49 79.696 104.92 82.3882 107.612C85.0804 110.304 88.5104 112.137 92.2445 112.88C95.9787 113.623 99.8492 113.242 103.367 111.785C106.884 110.328 109.891 107.86 112.006 104.695C114.121 101.529 115.25 97.8073 115.25 94C115.25 88.8946 113.222 83.9983 109.612 80.3882C106.002 76.7781 101.105 74.75 96 74.75ZM93.25 101.686L86.375 94.8113L88.5613 92.625L93.25 97.3137L103.439 87.125L105.633 89.3058L93.25 101.686Z" fill="#6600CC"/>
</svg>
