<svg width="80" height="80" viewBox="0 0 80 80" fill="none" xmlns="http://www.w3.org/2000/svg">
<path d="M31.25 26.25H35C36.6428 26.2221 36.643 23.7777 34.9999 23.75C35 23.75 32.5 23.75 32.5 23.75V21.25C32.5 20.5597 31.9403 20 31.25 20C30.5597 20 30 20.5597 30 21.25V23.9275C24.3997 25.4287 25.4055 33.6702 31.2501 33.75C34.5454 33.8356 34.547 38.6642 31.2499 38.75H27.5C26.8097 38.75 26.25 39.3097 26.25 40C26.25 40.6903 26.8097 41.25 27.5 41.25H30V43.75C30 44.4403 30.5597 45 31.25 45C31.9403 45 32.5 44.4403 32.5 43.75V41.0725C38.099 39.5733 37.0953 31.3291 31.2499 31.25C27.9547 31.1656 27.9534 26.335 31.25 26.25Z" fill="url(#paint0_linear_3052_590)"/>
<path d="M31.25 51.25C35.1074 51.25 38.8135 50.0824 41.9672 47.8735C42.5324 47.478 42.6697 46.6986 42.2742 46.1328C41.8775 45.567 41.0987 45.429 40.5329 45.8264C30.0491 53.3788 14.8272 45.4262 15.0002 32.4997C15.638 12.0117 44.7354 10.5028 47.4195 30.8394C47.489 31.5246 48.0933 32.0263 48.7897 31.9555C49.4763 31.886 49.9762 31.2719 49.906 30.5853C48.9697 21.4064 41.5891 14.4036 32.5 13.8083V6.30803C45.0587 6.90945 55.5943 16.4473 57.2608 29.002C57.5018 30.629 59.9329 30.2994 59.7388 28.673C53.8647 -6.56929 3.64193 -3.26471 2.5 32.5002C2.49746 47.5813 14.3046 60.207 29.339 61.1749C30.9205 61.1647 31.0005 58.7926 29.4226 58.6779C16.1473 57.7727 5.69116 46.9333 5.06075 33.75H12.5633C13.2115 43.5056 21.3332 51.25 31.25 51.25ZM30 6.31329V13.8133C20.6594 14.4339 13.1839 21.9094 12.5633 31.25H5.06334C5.70261 17.7747 16.5248 6.95256 30 6.31329Z" fill="url(#paint1_linear_3052_590)"/>
<path d="M77.5 39.082C77.4363 30.3324 45.0634 30.3323 45 39.082C45 39.082 45 46.1914 45 46.1914C45 46.2462 45.0165 46.2968 45.0191 46.351C45.0165 46.3838 45 46.4118 45 46.4453V53.5546C45 53.6095 45.0165 53.6601 45.0191 53.7142C45.0165 53.747 45 53.7751 45 53.8085V56.4246C38.5996 56.9767 32.5 59.0795 32.5 62.7502V69.7497C32.563 78.3905 64.9372 78.3906 65 69.7496V67.3293C71.6723 66.7383 77.5 64.5654 77.5 60.9179V53.8085C77.5 53.7751 77.4835 53.747 77.4809 53.7142C77.4835 53.6601 77.5 53.6095 77.5 53.5546V46.4453C77.5 46.4118 77.4835 46.3838 77.4809 46.351C77.4835 46.2968 77.5 46.2462 77.5 46.1914V39.082ZM75 53.5546C75 54.5237 73.174 55.7453 70 56.5992V51.8143C71.9783 51.3373 73.699 50.6793 75 49.8548V53.5546ZM63.7788 64.9185C63.3633 64.9401 62.9364 64.9668 62.5 64.9776V60.1148C64.209 60.0654 65.8992 59.9144 67.5 59.6648V64.5007C66.3661 64.6922 65.1233 64.8364 63.7788 64.9185ZM47.5 69.2282V73.7273C45.666 73.6722 43.9919 73.4979 42.5 73.2448V68.7838C44.1008 69.0303 45.791 69.1795 47.5 69.2282ZM50 69.2262C51.7316 69.1761 53.4212 69.0269 55 68.7807V73.2448C53.5081 73.4979 51.834 73.6722 50 73.7273V69.2262ZM75 46.1914C75 47.1604 73.174 48.382 70 49.2359V44.7049C71.9783 44.2279 73.699 43.57 75 42.7454V46.1914ZM62.5 57.6143V52.7515C64.209 52.7021 65.8992 52.5511 67.5 52.3015V57.1374C66.0138 57.3884 64.3414 57.5601 62.5 57.6143ZM55 52.3015C56.6008 52.5511 58.291 52.7021 60 52.7515V57.6143C58.1586 57.5601 56.4862 57.3884 55 57.1374V52.3015ZM67.5 49.7741C66.0138 50.0251 64.3414 50.1969 62.5 50.251V45.6421C64.209 45.5928 65.8992 45.4418 67.5 45.1921V49.7741ZM60 50.251C58.1586 50.1969 56.4862 50.0251 55 49.7741V45.1921C56.6008 45.4418 58.291 45.5928 60 45.6421V50.251ZM52.5 44.7998V49.2359C49.326 48.382 47.5 47.1604 47.5 46.1914V42.7454C48.8051 43.5726 50.5322 44.2324 52.5182 44.7097C52.5158 44.7411 52.5 44.7678 52.5 44.7998ZM52.5031 51.8151C52.5035 51.854 52.5213 51.8871 52.5253 51.925C52.5208 51.9682 52.5 52.0057 52.5 52.0501V56.5992C49.326 55.7453 47.5 54.5237 47.5 53.5546V49.8548C48.8017 50.6798 50.5235 51.338 52.5031 51.8151ZM47.5 57.218C48.801 58.0426 50.5217 58.7006 52.5 59.1776V63.9625C49.326 63.1085 47.5 61.887 47.5 60.9179V57.218ZM55 64.5007V59.6648C56.6008 59.9144 58.291 60.0654 60 60.1148V64.9776C58.1586 64.9234 56.4862 64.7517 55 64.5007ZM61.25 34.9999C69.6436 34.9999 75 37.4176 75 39.082C75 40.7464 69.6436 43.164 61.25 43.164C52.8564 43.164 47.5 40.7464 47.5 39.082C47.5 37.4176 52.8564 34.9999 61.25 34.9999ZM45 58.9318V60.9179C45 63.6234 48.205 65.5207 52.583 66.5617C45.75 67.5131 34.9585 65.2596 35.0001 62.75C35 61.4942 38.5464 59.5121 45 58.9318ZM35 69.7497V66.3676C36.301 67.1819 38.0217 67.8316 40 68.3026V72.7078C36.8475 71.8647 35 70.6717 35 69.7497ZM62.5 69.7497C62.5 70.6717 60.6525 71.8647 57.5 72.7078V68.2849C58.4605 68.0538 59.3571 67.7864 60.1659 67.4809C60.9435 67.5063 61.7226 67.5042 62.5 67.4781V69.7497ZM70 63.9625V59.1776C71.9783 58.7006 73.699 58.0426 75 57.218V60.9179C75 61.887 73.174 63.1085 70 63.9625Z" fill="url(#paint2_linear_3052_590)"/>
<defs>
<linearGradient id="paint0_linear_3052_590" x1="33.1488" y1="46.1574" x2="33.0744" y2="16.982" gradientUnits="userSpaceOnUse">
<stop stop-color="#4831B1"/>
<stop offset="0.0886" stop-color="#5D41C4"/>
<stop offset="0.214" stop-color="#7152D8"/>
<stop offset="0.3396" stop-color="#7C5CE4"/>
<stop offset="0.4649" stop-color="#805FE8"/>
<stop offset="0.5515" stop-color="#8065E9"/>
<stop offset="0.6688" stop-color="#7F76ED"/>
<stop offset="0.8036" stop-color="#7E93F3"/>
<stop offset="0.9506" stop-color="#7CBAFC"/>
<stop offset="1" stop-color="#7BC9FF"/>
</linearGradient>
<linearGradient id="paint1_linear_3052_590" x1="42.0659" y1="63.8269" x2="41.9978" y2="-3.02367" gradientUnits="userSpaceOnUse">
<stop stop-color="#4831B1"/>
<stop offset="0.0886" stop-color="#5D41C4"/>
<stop offset="0.214" stop-color="#7152D8"/>
<stop offset="0.3396" stop-color="#7C5CE4"/>
<stop offset="0.4649" stop-color="#805FE8"/>
<stop offset="0.5515" stop-color="#8065E9"/>
<stop offset="0.6688" stop-color="#7F76ED"/>
<stop offset="0.8036" stop-color="#7E93F3"/>
<stop offset="0.9506" stop-color="#7CBAFC"/>
<stop offset="1" stop-color="#7BC9FF"/>
</linearGradient>
<linearGradient id="paint2_linear_3052_590" x1="63.5999" y1="78.254" x2="63.5495" y2="27.2428" gradientUnits="userSpaceOnUse">
<stop stop-color="#4831B1"/>
<stop offset="0.0886" stop-color="#5D41C4"/>
<stop offset="0.214" stop-color="#7152D8"/>
<stop offset="0.3396" stop-color="#7C5CE4"/>
<stop offset="0.4649" stop-color="#805FE8"/>
<stop offset="0.5515" stop-color="#8065E9"/>
<stop offset="0.6688" stop-color="#7F76ED"/>
<stop offset="0.8036" stop-color="#7E93F3"/>
<stop offset="0.9506" stop-color="#7CBAFC"/>
<stop offset="1" stop-color="#7BC9FF"/>
</linearGradient>
</defs>
</svg>
