<svg width="81" height="80" viewBox="0 0 81 80" fill="none" xmlns="http://www.w3.org/2000/svg">
<g clip-path="url(#clip0_3052_600)">
<path d="M72.3739 61.7159C72.3678 61.7003 72.3616 61.6848 72.355 61.6695C70.9169 58.3044 67.5441 57.0606 63.5525 58.4239L52.6669 61.4342C52.0375 59.5283 50.4677 57.9064 48.248 57.0826C48.2342 57.0776 48.2205 57.0726 48.2066 57.0679L36.2408 53.0067C35.2448 51.7194 32.1252 48.4253 26.2841 48.4253C22.202 48.4253 18.5909 51.2256 16.525 54.2779H2.0625C1.19953 54.2779 0.5 54.9775 0.5 55.8404V75.54C0.5 76.4029 1.19953 77.1025 2.0625 77.1025H11.3527C12.2156 77.1025 12.9152 76.4029 12.9152 75.54V74.1909H17.2719C18.1348 74.1909 18.8344 73.4914 18.8344 72.6284V72.1787C21.3741 72.4003 22.2094 72.882 24.5419 74.227C26.3356 75.2614 29.0467 76.8247 33.9289 79.0198C33.9516 79.03 33.9745 79.0397 33.9975 79.0487C34.9345 79.4173 36.7663 79.9964 39.0245 79.9964C40.5964 79.9964 42.3753 79.7156 44.2012 78.8879L68.2623 70.273C68.3052 70.2576 68.3473 70.2404 68.3886 70.2214C70.6881 69.1634 74.1148 66.1817 72.3739 61.7159ZM9.79016 73.9773H3.625V57.4028H9.79016V73.9773ZM15.7094 71.0658H12.9152V57.4028H15.7094V71.0658ZM67.14 67.3553L43.0897 75.9664C43.0686 75.9739 43.04 75.9851 43.0192 75.9936C42.9981 76.0022 42.977 76.0112 42.9562 76.0208C39.6067 77.5601 36.4228 76.6386 35.175 76.1534C30.4591 74.0314 27.942 72.58 26.103 71.5195C23.5461 70.0451 22.3141 69.3345 18.8344 69.0472V56.4625C20.3155 54.035 23.1877 51.5501 26.2842 51.5501C31.5945 51.5501 33.8447 55.004 33.9331 55.1434C34.1239 55.4537 34.4172 55.6876 34.762 55.8047L47.18 60.0194C49.1633 60.7637 50.2114 62.4622 49.7297 64.1559C49.5073 64.9381 48.9936 65.5869 48.2833 65.9826C47.5791 66.375 46.765 66.472 45.9891 66.2573L31.9902 61.8211C31.167 61.5603 30.2892 62.0159 30.0286 62.8386C29.7678 63.6612 30.2234 64.5394 31.0461 64.8001L45.0694 69.244C45.0842 69.2487 45.0991 69.2533 45.1141 69.2575C45.6739 69.4167 46.2439 69.4954 46.8105 69.4954C47.8477 69.4954 48.8734 69.2312 49.8044 68.7125C51.2439 67.9105 52.2848 66.5958 52.7355 65.0106C52.7714 64.884 52.8033 64.7575 52.8309 64.6309L64.5627 61.3809C66.257 60.8022 68.4812 60.5936 69.4716 62.8744C70.4966 65.552 67.8325 67.025 67.14 67.3553Z" fill="url(#paint0_linear_3052_600)"/>
<path d="M78.9384 5.29525H69.6482C68.7852 5.29525 68.0857 5.99478 68.0857 6.85775V8.20682H63.729C62.866 8.20682 62.1665 8.90635 62.1665 9.76932V10.219C59.6268 9.99729 58.7915 9.51572 56.4591 8.17072C54.6654 7.13635 51.9543 5.57307 47.072 3.37791C47.0493 3.3676 47.0265 3.35807 47.0032 3.349C45.414 2.72369 41.2488 1.49338 36.8002 3.50947L30.5127 5.76072L25.2129 0.461035C24.6027 -0.149121 23.6134 -0.149121 23.0032 0.461035L5.60353 17.8606C5.04071 18.4235 4.93274 19.3996 5.60353 20.0704L35.3359 49.8028C35.8116 50.2787 36.9257 50.4226 37.5457 49.8028L53.4309 33.9178C53.8438 33.9534 54.2724 33.9726 54.7166 33.9726C58.7988 33.9726 62.4098 31.1723 64.4756 28.1201H78.9384C79.8013 28.1201 80.5009 27.4206 80.5009 26.5576V6.85775C80.5009 5.99478 79.8013 5.29525 78.9384 5.29525ZM24.1079 3.77557L27.6691 7.33682C26.6106 7.9915 25.3867 8.34182 24.1079 8.34182C22.829 8.34182 21.6052 7.99166 20.5466 7.33682L24.1079 3.77557ZM12.4795 22.5268L8.91821 18.9654L12.4795 15.4042C13.1342 16.4628 13.4845 17.6867 13.4845 18.9654C13.4845 20.2442 13.1343 21.4681 12.4795 22.5268ZM36.4409 46.4881L32.8802 42.9274C35.0541 41.5859 37.8273 41.5859 40.0013 42.9274L36.4409 46.4881ZM42.2526 40.6765C38.7998 38.1718 34.082 38.1718 30.6291 40.6765L14.7306 24.7778C15.9507 23.0996 16.6095 21.0838 16.6095 18.9654C16.6095 16.8468 15.9509 14.8312 14.7306 13.1531L18.2957 9.58807C19.9738 10.8082 21.9895 11.467 24.1081 11.467C26.2267 11.467 28.2423 10.8082 29.9204 9.58807L33.2999 12.9676C32.5707 13.0753 31.8596 13.3156 31.1965 13.6851C30.0765 14.3092 29.1977 15.2437 28.6506 16.3743C26.8881 16.7007 25.2563 17.554 23.9763 18.8338C20.5037 22.3067 20.5037 27.9571 23.9765 31.4299C25.7127 33.1662 27.9935 34.0345 30.2745 34.0345C32.5552 34.0345 34.8362 33.1663 36.5726 31.4299C37.7023 30.3003 38.4937 28.9118 38.8901 27.3987L44.1657 29.1892C43.5718 31.9404 44.1801 34.8348 45.8209 37.1082L42.2526 40.6765ZM32.7529 25.3151C32.7666 25.3201 32.7804 25.3251 32.7943 25.3298L35.9187 26.3903C35.6827 27.4551 35.1488 28.4342 34.3629 29.2203C32.1085 31.4743 28.4404 31.4746 26.1863 29.2203C23.932 26.966 23.932 23.2981 26.1863 21.0437C26.7301 20.4996 27.3718 20.0745 28.071 19.7862C28.3595 22.1865 30.0877 24.326 32.7529 25.3151ZM48.0723 34.8567C47.4692 33.8738 47.1279 32.7521 47.074 31.6073C47.8224 32.1484 48.7371 32.6785 49.8296 33.0993L48.0723 34.8567ZM62.1663 25.9346C60.6854 28.3624 57.8132 30.8473 54.7166 30.8473C54.1373 30.8473 53.5943 30.806 53.0867 30.7326C53.0846 30.7323 53.0826 30.732 53.0806 30.7317C49.7062 30.2415 47.891 28.3237 47.2927 27.5643C47.2609 27.5174 47.1251 27.3398 47.1049 27.3103C46.9229 26.9849 46.6245 26.7234 46.2438 26.5942L33.8207 22.3778C31.8382 21.6337 30.7902 19.936 31.2706 18.2429C31.2709 18.2418 31.2712 18.2407 31.2715 18.2396C31.272 18.2384 31.2723 18.237 31.2726 18.2357C31.4959 17.456 32.0087 16.8093 32.7174 16.4145C33.4215 16.0221 34.2354 15.9248 35.0117 16.1399L49.0106 20.576C49.8334 20.8371 50.7115 20.3812 50.9721 19.5585C51.2327 18.7359 50.7773 17.8578 49.9546 17.597L38.821 14.0688L38.7238 13.9717C38.7229 13.9707 38.722 13.9696 38.7209 13.9687L32.9568 8.20463L37.9112 6.43057C37.9279 6.42447 37.9485 6.41682 37.9651 6.4101C37.9693 6.40838 37.9774 6.40525 37.9815 6.40354C38.0027 6.39494 38.0237 6.38588 38.0445 6.37635C41.3938 4.83697 44.5776 5.75838 45.8256 6.24369C50.5416 8.36572 53.0588 9.81713 54.8979 10.8776C57.4548 12.3521 58.6868 13.0626 62.1663 13.3499V25.9346ZM68.0857 24.9948H65.2915V11.3318H68.0857V24.9948ZM77.3759 24.9948H71.2107V8.42025H77.3759V24.9948Z" fill="url(#paint1_linear_3052_600)"/>
</g>
<defs>
<linearGradient id="paint0_linear_3052_600" x1="50.5016" y1="81.458" x2="50.4852" y2="44.6138" gradientUnits="userSpaceOnUse">
<stop stop-color="#4831B1"/>
<stop offset="0.0886" stop-color="#5D41C4"/>
<stop offset="0.214" stop-color="#7152D8"/>
<stop offset="0.3396" stop-color="#7C5CE4"/>
<stop offset="0.4649" stop-color="#805FE8"/>
<stop offset="0.5515" stop-color="#8065E9"/>
<stop offset="0.6688" stop-color="#7F76ED"/>
<stop offset="0.8036" stop-color="#7E93F3"/>
<stop offset="0.9506" stop-color="#7CBAFC"/>
<stop offset="1" stop-color="#7BC9FF"/>
</linearGradient>
<linearGradient id="paint1_linear_3052_600" x1="57.2226" y1="52.54" x2="57.1829" y2="-6.05848" gradientUnits="userSpaceOnUse">
<stop stop-color="#4831B1"/>
<stop offset="0.0886" stop-color="#5D41C4"/>
<stop offset="0.214" stop-color="#7152D8"/>
<stop offset="0.3396" stop-color="#7C5CE4"/>
<stop offset="0.4649" stop-color="#805FE8"/>
<stop offset="0.5515" stop-color="#8065E9"/>
<stop offset="0.6688" stop-color="#7F76ED"/>
<stop offset="0.8036" stop-color="#7E93F3"/>
<stop offset="0.9506" stop-color="#7CBAFC"/>
<stop offset="1" stop-color="#7BC9FF"/>
</linearGradient>
<clipPath id="clip0_3052_600">
<rect width="80" height="80" fill="white" transform="translate(0.5)"/>
</clipPath>
</defs>
</svg>
