<svg width="80" height="80" viewBox="0 0 80 80" fill="none" xmlns="http://www.w3.org/2000/svg">
<path d="M65.9376 59.625L57.5001 42.5L66.2501 38.3L65.1626 36.05L55.3251 40.8C55.1771 40.872 55.0449 40.9725 54.9358 41.0958C54.8268 41.219 54.7432 41.3625 54.6898 41.5182C54.6364 41.6738 54.6142 41.8384 54.6245 42.0026C54.6349 42.1668 54.6775 42.3274 54.7501 42.475L55.3876 43.725C53.5876 43.8875 50.4876 43.5625 45.3876 41.5C43.5175 40.6702 41.466 40.3333 39.4288 40.5215C37.3915 40.7096 35.4365 41.4167 33.7501 42.5751C32.1228 43.7113 30.6952 45.1094 29.5251 46.7125C28.3151 46.3626 27.1616 45.8406 26.1001 45.1625L26.4001 44.6501C26.4824 44.5077 26.5358 44.3505 26.5572 44.1875C26.5787 44.0245 26.5677 43.8588 26.5251 43.7C26.4824 43.5404 26.4085 43.3909 26.3077 43.26C26.2068 43.1291 26.081 43.0195 25.9376 42.9375L16.7251 37.675L15.4751 39.8375L23.6126 44.4875L13.9626 61.0625L5.82507 56.4125L4.57507 58.5751L13.7501 63.8501C14.0371 64.013 14.3769 64.0558 14.6954 63.9692C15.0139 63.8826 15.2852 63.6735 15.4501 63.3875L15.7501 62.875L18.1376 64.6375L17.8751 65.025C17.6255 65.386 17.4496 65.7926 17.3574 66.2215C17.2652 66.6505 17.2584 67.0935 17.3376 67.525C17.4149 67.9673 17.5796 68.3896 17.8221 68.7674C18.0647 69.1451 18.3802 69.4707 18.7501 69.725L19.3376 70.125C19.9 70.5134 20.5666 70.7226 21.2501 70.7251C21.3458 70.7311 21.4418 70.7311 21.5376 70.7251C21.7217 71.4704 22.1647 72.1261 22.7876 72.5751L23.3751 72.9875C23.934 73.3719 24.5968 73.5768 25.2751 73.5751C25.483 73.5941 25.6922 73.5941 25.9001 73.5751C26.1411 73.5266 26.3759 73.4511 26.6001 73.35C26.8503 73.7736 27.1868 74.1398 27.5876 74.425L28.1751 74.8251C28.7329 75.2131 29.3955 75.4224 30.0751 75.425H30.3751C30.5799 76.1743 31.0453 76.8258 31.6876 77.2626L32.2626 77.6626C32.8215 78.0469 33.4843 78.2518 34.1626 78.25C34.7128 78.251 35.255 78.1185 35.7427 77.8637C36.2304 77.609 36.649 77.2397 36.9626 76.7875L37.3126 76.275L40.6876 78.3125C41.2652 78.6604 41.9258 78.8461 42.6001 78.8501C43.2463 78.8504 43.8817 78.6836 44.4446 78.3661C45.0074 78.0485 45.4787 77.5909 45.8126 77.0376C46.0435 76.6534 46.2003 76.2294 46.2751 75.7876C46.6078 75.8862 46.953 75.9367 47.3001 75.9375C47.9463 75.9379 48.5817 75.7711 49.1446 75.4536C49.7074 75.136 50.1787 74.6784 50.5126 74.125C50.7496 73.7201 50.9105 73.2753 50.9876 72.8125C51.3157 72.913 51.657 72.9635 52.0001 72.9625C52.6442 72.9607 53.277 72.793 53.8375 72.4755C54.398 72.158 54.8673 71.7016 55.2001 71.15C55.4172 70.7875 55.5695 70.3899 55.6501 69.975L55.8376 70.0875C56.4188 70.4376 57.0841 70.6233 57.7626 70.625C58.4088 70.6254 59.0442 70.4586 59.6071 70.1411C60.1699 69.8235 60.6412 69.3659 60.9751 68.8125C61.3207 68.2301 61.5021 67.5648 61.5001 66.8875C61.5025 66.357 61.3924 65.832 61.1769 65.3472C60.9614 64.8623 60.6455 64.4287 60.2501 64.075C61.0867 62.7058 62.1821 61.5128 63.4751 60.5625L64.1876 62C64.2907 62.2104 64.4508 62.3876 64.6497 62.5114C64.8486 62.6351 65.0783 62.7005 65.3126 62.7C65.4988 62.6989 65.6825 62.6562 65.8501 62.5751L75.6876 57.825L74.6001 55.575L65.9376 59.625ZM22.0251 67.8375C21.9587 67.9355 21.8734 68.0193 21.7742 68.0838C21.675 68.1483 21.5639 68.1924 21.4475 68.2133C21.331 68.2343 21.2115 68.2318 21.096 68.2059C20.9806 68.18 20.8714 68.1312 20.7751 68.0625L20.1876 67.6625C20.0896 67.5962 20.0059 67.5109 19.9413 67.4117C19.8768 67.3125 19.8328 67.2014 19.8118 67.0849C19.7908 66.9685 19.7934 66.849 19.8193 66.7335C19.8452 66.618 19.8939 66.5089 19.9626 66.4125L21.8001 63.75C21.9321 63.5595 22.1344 63.4291 22.3626 63.3875C22.4774 63.3678 22.5951 63.3709 22.7087 63.3967C22.8224 63.4224 22.9299 63.4703 23.0251 63.5376L23.6001 63.9375C23.6981 63.9989 23.7814 64.0812 23.844 64.1784C23.9067 64.2756 23.9472 64.3854 23.9626 64.5C23.987 64.614 23.9874 64.7317 23.9637 64.8458C23.94 64.9599 23.8928 65.0678 23.8251 65.1625L22.0251 67.8375ZM26.1126 70.6625C25.9805 70.8531 25.7782 70.9835 25.5501 71.025C25.3199 71.0621 25.084 71.0131 24.8876 70.8875L24.3001 70.4875C24.2021 70.4212 24.1184 70.3359 24.0538 70.2367C23.9893 70.1375 23.9452 70.0264 23.9243 69.9099C23.9033 69.7935 23.9059 69.674 23.9318 69.5585C23.9577 69.443 24.0064 69.3339 24.0751 69.2375L26.5751 65.575C26.6389 65.4792 26.7218 65.3975 26.8185 65.3352C26.9153 65.2728 27.0239 65.2311 27.1376 65.2125H27.3001C27.4779 65.2121 27.6519 65.2643 27.8001 65.3625L28.3751 65.7626C28.5675 65.8951 28.7017 66.0965 28.7501 66.3251C28.7705 66.4399 28.7677 66.5577 28.742 66.6714C28.7162 66.7852 28.668 66.8927 28.6001 66.9875L26.1126 70.6625ZM30.9126 72.5C30.8462 72.598 30.7609 72.6818 30.6617 72.7463C30.5625 72.8108 30.4514 72.8549 30.335 72.8758C30.2185 72.8968 30.099 72.8943 29.9835 72.8684C29.8681 72.8425 29.7589 72.7937 29.6626 72.725L29.0751 72.3251C28.8874 72.1902 28.7578 71.9892 28.7126 71.7626C28.6755 71.5323 28.7245 71.2965 28.8501 71.1001L30.6626 68.475C30.7969 68.2779 31.004 68.1421 31.2384 68.0975C31.4728 68.053 31.7153 68.1034 31.9126 68.2375L32.5001 68.65C32.5981 68.7164 32.6818 68.8017 32.7463 68.9009C32.8109 69.0001 32.8549 69.1112 32.8759 69.2277C32.8968 69.3441 32.8943 69.4636 32.8684 69.5791C32.8425 69.6946 32.7938 69.8037 32.7251 69.9L30.9126 72.5ZM36.1126 73.75L35.0001 75.2751C34.8618 75.4676 34.654 75.5987 34.4206 75.6407C34.1873 75.6827 33.9468 75.6323 33.7501 75.5L33.1626 75.1001C33.0646 75.0337 32.9809 74.9484 32.9163 74.8492C32.8518 74.75 32.8078 74.6389 32.7868 74.5224C32.7658 74.406 32.7684 74.2865 32.7943 74.171C32.8202 74.0555 32.8689 73.9464 32.9376 73.8501L34.0501 72.2375C34.1164 72.1396 34.2017 72.0558 34.3009 71.9913C34.4001 71.9268 34.5112 71.8827 34.6277 71.8618C34.7442 71.8408 34.8636 71.8433 34.9791 71.8692C35.0946 71.8951 35.2037 71.9439 35.3001 72.0126L35.8751 72.4125C35.974 72.4779 36.0589 72.5625 36.1246 72.6612C36.1904 72.76 36.2357 72.8709 36.2578 72.9874C36.2799 73.1039 36.2785 73.2237 36.2535 73.3397C36.2286 73.4556 36.1807 73.5654 36.1126 73.6625V73.75ZM58.9376 67.5C58.7671 67.7803 58.4932 67.9824 58.1751 68.0625C57.8566 68.1415 57.5199 68.0921 57.2376 67.925L49.7376 63.4375L48.4876 65.575L52.7501 68.075C53.0304 68.2455 53.2324 68.5194 53.3126 68.8375C53.3916 69.156 53.3422 69.4927 53.1751 69.775C53.0046 70.0553 52.7307 70.2574 52.4126 70.3375C52.0941 70.4165 51.7574 70.3671 51.4751 70.2001L46.1501 66.9875L44.9001 69.125L48.1001 71.05C48.3752 71.2262 48.5755 71.4977 48.6626 71.8125C48.7161 72.049 48.6998 72.2959 48.6155 72.5232C48.5313 72.7505 48.3827 72.9484 48.188 73.0928C47.9933 73.2372 47.7607 73.3219 47.5188 73.3365C47.2768 73.3511 47.0358 73.295 46.8251 73.175L41.5001 69.9626L40.2501 72.1L43.4626 74.05C43.6718 74.2447 43.8081 74.5051 43.8486 74.788C43.8891 75.0709 43.8315 75.3591 43.6854 75.6047C43.5392 75.8502 43.3133 76.0383 43.0453 76.1375C42.7773 76.2368 42.4834 76.2412 42.2126 76.15L38.6626 74C38.7988 73.5121 38.8287 73.0005 38.7501 72.5C38.6712 72.0633 38.5069 71.6463 38.2667 71.2731C38.0265 70.8999 37.715 70.5777 37.3501 70.325L36.7251 70C36.3206 69.7228 35.8594 69.5392 35.3751 69.4625C35.3999 69.2215 35.3999 68.9786 35.3751 68.7375C35.298 68.2986 35.1332 67.8798 34.8905 67.5061C34.6478 67.1323 34.3322 66.8114 33.9626 66.5625L33.3876 66.1625C32.7433 65.7212 31.9654 65.5179 31.1876 65.5876C30.9641 64.8337 30.4815 64.1829 29.8251 63.75L29.2376 63.35C28.5081 62.8474 27.6092 62.6541 26.7376 62.8125C26.498 62.8609 26.2636 62.932 26.0376 63.025C25.7868 62.6054 25.4503 62.2433 25.0501 61.9625L24.4626 61.5625C23.7242 61.0559 22.8153 60.8623 21.9346 61.0239C21.0539 61.1855 20.2729 61.6893 19.7626 62.425L19.6376 62.6125L17.1376 60.7375L24.8626 47.3625C25.8787 48.0017 26.965 48.5218 28.1001 48.9125C26.8754 50.7513 26.0454 52.8242 25.6626 55C25.694 55.6453 25.9456 56.2603 26.3755 56.7425C26.8054 57.2247 27.3876 57.545 28.0251 57.65C30.3001 58.25 34.6001 57.3375 37.7501 52.65L58.5001 65.6625C58.6849 65.7721 58.8383 65.9274 58.9456 66.1135C59.0529 66.2996 59.1104 66.5102 59.1126 66.725C59.1125 66.9494 59.0521 67.1696 58.9376 67.3625V67.5ZM58.2126 62.5L49.0126 56.7375C50.3661 55.9565 51.5177 54.8691 52.3751 53.5625L50.2001 52.3125C49.2912 53.6047 48.0216 54.6003 46.5501 55.175L38.0126 49.825C37.8687 49.7352 37.7081 49.6756 37.5405 49.6498C37.3729 49.624 37.2018 49.6326 37.0376 49.6751C36.8757 49.7162 36.7237 49.7894 36.5906 49.8903C36.4575 49.9912 36.346 50.1178 36.2626 50.2625C34.1751 53.95 31.2626 55.2625 29.4251 55.2625C28.9829 55.3079 28.5392 55.1925 28.1751 54.9375C29.2329 50.8075 31.6667 47.1612 35.0751 44.6C36.4178 43.6626 37.9816 43.0913 39.6124 42.9422C41.2432 42.7932 42.8847 43.0716 44.3751 43.75C49.5001 45.8375 53.5626 46.5875 56.4751 46.025L62.4126 58.0876C60.7276 59.258 59.2985 60.7594 58.2126 62.5Z" fill="url(#paint0_linear_3052_580)"/>
<path d="M65 32.5V11.25C65.0009 11.0855 64.9694 10.9224 64.9072 10.7701C64.845 10.6178 64.7533 10.4793 64.6375 10.3625L55.8875 1.61252C55.7707 1.49667 55.6322 1.40501 55.4799 1.34281C55.3276 1.2806 55.1645 1.24907 55 1.25002H17.5C16.837 1.25002 16.2011 1.51341 15.7322 1.98225C15.2634 2.45109 15 3.08698 15 3.75002V33.75H17.5V3.75002H53.75V10C53.75 10.6631 54.0134 11.2989 54.4822 11.7678C54.9511 12.2366 55.587 12.5 56.25 12.5H62.5V32.5H65ZM56.25 10V5.51252L60.7375 10H56.25Z" fill="url(#paint1_linear_3052_580)"/>
<path d="M27.5 21.25C27.5 23.7223 28.2331 26.139 29.6066 28.1946C30.9801 30.2502 32.9324 31.8524 35.2165 32.7985C37.5005 33.7446 40.0139 33.9921 42.4386 33.5098C44.8634 33.0275 47.0907 31.837 48.8388 30.0888C50.587 28.3407 51.7775 26.1134 52.2598 23.6886C52.7421 21.2639 52.4946 18.7505 51.5485 16.4665C50.6024 14.1824 49.0002 12.2301 46.9446 10.8566C44.889 9.48311 42.4723 8.75 40 8.75C36.6848 8.75 33.5054 10.067 31.1612 12.4112C28.817 14.7554 27.5 17.9348 27.5 21.25ZM50 21.25C50 23.2278 49.4135 25.1612 48.3147 26.8057C47.2159 28.4502 45.6541 29.7319 43.8268 30.4888C41.9996 31.2457 39.9889 31.4437 38.0491 31.0579C36.1093 30.672 34.3275 29.7196 32.9289 28.3211C31.5304 26.9225 30.578 25.1407 30.1921 23.2009C29.8063 21.2611 30.0043 19.2504 30.7612 17.4232C31.5181 15.5959 32.7998 14.0341 34.4443 12.9353C36.0888 11.8365 38.0222 11.25 40 11.25C42.6522 11.25 45.1957 12.3036 47.0711 14.1789C48.9464 16.0543 50 18.5978 50 21.25Z" fill="url(#paint2_linear_3052_580)"/>
<path d="M35.3625 21.0625L33.5875 22.8375L36.6875 25.925C36.9217 26.1578 37.2385 26.2885 37.5688 26.2885C37.899 26.2885 38.2158 26.1578 38.45 25.925L46.4125 17.975L44.6375 16.25L37.575 23.325L35.3625 21.0625Z" fill="url(#paint3_linear_3052_580)"/>
<defs>
<linearGradient id="paint0_linear_3052_580" x1="53.7216" y1="80.8315" x2="53.691" y2="30.883" gradientUnits="userSpaceOnUse">
<stop stop-color="#4831B1"/>
<stop offset="0.0886" stop-color="#5D41C4"/>
<stop offset="0.214" stop-color="#7152D8"/>
<stop offset="0.3396" stop-color="#7C5CE4"/>
<stop offset="0.4649" stop-color="#805FE8"/>
<stop offset="0.5515" stop-color="#8065E9"/>
<stop offset="0.6688" stop-color="#7F76ED"/>
<stop offset="0.8036" stop-color="#7E93F3"/>
<stop offset="0.9506" stop-color="#7CBAFC"/>
<stop offset="1" stop-color="#7BC9FF"/>
</linearGradient>
<linearGradient id="paint1_linear_3052_580" x1="49.5555" y1="35.2546" x2="49.5304" y2="-2.6736" gradientUnits="userSpaceOnUse">
<stop stop-color="#4831B1"/>
<stop offset="0.0886" stop-color="#5D41C4"/>
<stop offset="0.214" stop-color="#7152D8"/>
<stop offset="0.3396" stop-color="#7C5CE4"/>
<stop offset="0.4649" stop-color="#805FE8"/>
<stop offset="0.5515" stop-color="#8065E9"/>
<stop offset="0.6688" stop-color="#7F76ED"/>
<stop offset="0.8036" stop-color="#7E93F3"/>
<stop offset="0.9506" stop-color="#7CBAFC"/>
<stop offset="1" stop-color="#7BC9FF"/>
</linearGradient>
<linearGradient id="paint2_linear_3052_580" x1="44.7777" y1="34.9074" x2="44.748" y2="5.73187" gradientUnits="userSpaceOnUse">
<stop stop-color="#4831B1"/>
<stop offset="0.0886" stop-color="#5D41C4"/>
<stop offset="0.214" stop-color="#7152D8"/>
<stop offset="0.3396" stop-color="#7C5CE4"/>
<stop offset="0.4649" stop-color="#805FE8"/>
<stop offset="0.5515" stop-color="#8065E9"/>
<stop offset="0.6688" stop-color="#7F76ED"/>
<stop offset="0.8036" stop-color="#7E93F3"/>
<stop offset="0.9506" stop-color="#7CBAFC"/>
<stop offset="1" stop-color="#7BC9FF"/>
</linearGradient>
<linearGradient id="paint3_linear_3052_580" x1="42.451" y1="26.7532" x2="42.4417" y2="15.0381" gradientUnits="userSpaceOnUse">
<stop stop-color="#4831B1"/>
<stop offset="0.0886" stop-color="#5D41C4"/>
<stop offset="0.214" stop-color="#7152D8"/>
<stop offset="0.3396" stop-color="#7C5CE4"/>
<stop offset="0.4649" stop-color="#805FE8"/>
<stop offset="0.5515" stop-color="#8065E9"/>
<stop offset="0.6688" stop-color="#7F76ED"/>
<stop offset="0.8036" stop-color="#7E93F3"/>
<stop offset="0.9506" stop-color="#7CBAFC"/>
<stop offset="1" stop-color="#7BC9FF"/>
</linearGradient>
</defs>
</svg>
