<svg width="121" height="28" viewBox="0 0 121 28" fill="none" xmlns="http://www.w3.org/2000/svg">
<g clip-path="url(#clip0_420_232)">
<g clip-path="url(#clip1_420_232)">
<g clip-path="url(#clip2_420_232)">
<path d="M38.7391 11.7426C38.1747 11.672 37.5398 11.6015 36.9049 11.6015C35.7761 11.6015 34.859 11.7426 33.9419 12.0248V19.0089H30.7673V8.99127H31.5433L32.6015 9.62619C33.8714 8.92073 35.2823 8.56799 37.046 8.56799C37.6809 8.56799 38.2453 8.63854 38.7391 8.70909V11.7426Z" fill="black"/>
<path d="M45.7931 19.3616C41.3487 19.3616 40.0789 17.1041 40.0789 14.3528V13.5768C40.0789 10.8255 41.3487 8.56799 45.7931 8.56799H46.3575C50.8725 8.56799 51.8601 9.97892 51.8601 11.7426V11.9542C51.8601 13.5768 51.3663 14.9172 46.428 14.9172C45.2288 14.9172 44.2411 14.8466 43.324 14.5644C43.3945 15.6932 43.8178 16.3987 46.428 16.3987C47.6979 16.3987 49.6732 16.187 51.0841 15.8343V18.7972C49.6732 19.15 47.7684 19.2911 46.2164 19.2911H45.7931V19.3616ZM43.324 12.5186C44.1 12.7302 44.9466 12.8008 46.1459 12.8008C48.4739 12.8008 48.615 12.3775 48.615 12.0248C48.615 11.672 48.4739 11.1077 46.3575 11.1077C44.2411 11.1077 43.5356 11.6015 43.324 12.5186Z" fill="black"/>
<path d="M54.6117 8.99127L55.6699 9.62619C56.9397 8.92073 58.3507 8.56799 60.1143 8.56799C64.5588 8.56799 65.8286 10.8255 65.8286 13.5768V18.9383H62.654V13.9295C62.654 12.6597 62.654 11.4604 59.9732 11.4604C58.8445 11.4604 57.9274 11.6015 57.0103 11.8837V18.9383H53.8357V8.99127H54.6117Z" fill="black"/>
<path d="M70.9087 8.99138H74.0128V11.8132H70.9087V14.9878C70.9087 15.8344 70.9793 16.3988 72.8135 16.3988C73.4484 16.3988 74.1539 16.3282 74.6477 16.1871V19.0795C74.0833 19.2206 73.3779 19.2912 72.6724 19.2912C69.0745 19.2912 67.7341 17.8802 67.7341 15.4111V5.04077H68.5101L70.9087 6.4517V8.99138Z" fill="black"/>
<path d="M88.3337 19.009H87.4872L86.429 18.3741C85.0886 19.0796 83.6776 19.3617 81.8434 19.3617C77.5401 19.3617 76.2703 17.8097 76.2703 16.0461V15.8344C76.2703 14.1413 77.6106 12.8009 81.7729 12.8009C83.1133 12.8009 84.1715 12.942 85.0886 13.1536C85.018 12.0955 84.7358 11.5311 82.1256 11.5311C80.7147 11.5311 78.7394 11.7427 77.3285 12.0955V9.1325C78.7394 8.77976 80.6441 8.63867 82.1962 8.63867C86.6406 8.63867 88.2632 10.1907 88.2632 13.0126V19.009H88.3337ZM85.1591 16.4693V15.5522C84.242 15.3406 83.2544 15.1995 82.0551 15.1995C79.6565 15.1995 79.586 15.6933 79.586 16.0461C79.586 16.5399 79.727 16.8926 82.2667 16.8926C83.2544 16.8926 84.242 16.7515 85.1591 16.4693Z" fill="black"/>
<path d="M91.226 4.0531L93.6245 5.46403V19.009H90.45V4.0531H91.226Z" fill="black"/>
<path d="M95.6704 5.53458C95.6704 4.68802 96.0231 4.0531 97.3635 4.0531H97.5046C98.845 4.0531 99.1977 4.75857 99.1977 5.53458V5.74622C99.1977 6.59277 98.845 7.22769 97.5046 7.22769H97.3635C96.0231 7.22769 95.6704 6.52223 95.6704 5.74622V5.53458ZM96.6581 8.99136L99.0566 10.4023V19.009H95.882V8.99136H96.6581Z" fill="black"/>
<path d="M104.347 8.99138H107.451V11.8132H104.347V14.9878C104.347 15.8344 104.418 16.3988 106.252 16.3988C106.887 16.3988 107.592 16.3282 108.086 16.1871V19.0795C107.522 19.2206 106.816 19.2912 106.111 19.2912C102.513 19.2912 101.173 17.8802 101.173 15.4111V5.04077H101.949L104.347 6.4517V8.99138Z" fill="black"/>
<path d="M116.34 20.0671C115.282 22.3952 114.365 23.9472 111.684 23.9472C111.19 23.9472 110.485 23.8766 109.991 23.7356V20.9137C110.414 20.9842 111.12 21.0548 111.543 21.0548C112.883 21.0548 113.095 20.561 113.518 19.6439L113.659 19.2911L108.862 9.76734V8.99133H111.825L115 15.9049L117.821 8.99133H120.784V9.76734L116.34 20.0671Z" fill="black"/>
<path d="M17.8562 10.5433L14.6816 12.3775C14.6816 16.5398 14.7522 18.5856 14.7522 18.5856C15.5282 19.15 16.7275 19.8555 17.9268 20.3493C17.9268 20.1377 17.9268 19.8555 17.9268 19.6438L17.8562 10.5433Z" fill="url(#paint0_linear_420_232)"/>
<path d="M22.6536 17.1747V11.6015V7.79199L19.4084 9.6262V15.8343C19.4084 17.3158 19.5495 19.2911 19.2673 20.8431C19.9728 20.9842 20.6077 21.0547 21.1721 20.8431C22.2303 20.4198 22.7241 19.15 22.6536 17.1747Z" fill="url(#paint1_linear_420_232)"/>
<path d="M6.85132 2.50095C9.95536 0.666739 10.8725 0.0318207 13.9765 1.93658C19.2675 5.04062 21.9483 6.59265 21.9483 6.59265C19.7613 7.79194 18.7031 8.42686 18.7031 8.42686C16.3046 7.01593 14.4703 5.95773 13.3416 5.32281C11.3663 4.19406 8.54443 2.28931 6.85132 2.50095Z" fill="url(#paint2_linear_420_232)"/>
<path d="M2.05444 5.25229C5.15849 3.41808 6.07559 2.78316 9.17964 4.68792C14.4706 7.79197 17.0809 9.27344 17.0809 9.27344C14.8939 10.4727 13.8357 11.1077 13.8357 11.1077C11.4371 9.69672 9.60292 8.63852 8.47418 8.0036C6.56942 6.94541 3.74756 5.04065 2.05444 5.25229Z" fill="url(#paint3_linear_420_232)"/>
<path d="M4.80443 17.4568L7.97903 15.6226C7.97903 11.4604 7.90848 9.41454 7.90848 9.41454C7.13247 8.85017 5.93318 8.1447 4.73389 7.65088C4.73389 7.86252 4.73389 8.1447 4.73389 8.35634L4.80443 17.4568Z" fill="url(#paint4_linear_420_232)"/>
<path d="M0.00807858 10.8254V16.3986V20.2081L3.25322 18.3739V12.1658C3.25322 10.6843 3.11213 8.70903 3.39431 7.15701C2.68885 7.01592 2.05393 6.94537 1.48956 7.15701C0.431358 7.58029 -0.0624679 8.85013 0.00807858 10.8254Z" fill="url(#paint5_linear_420_232)"/>
<path d="M15.8106 25.4991C12.7065 27.3334 11.7894 27.9683 8.68538 26.0635C3.32384 22.9595 0.713623 21.4075 0.713623 21.4075C2.90056 20.2082 3.95876 19.5732 3.95876 19.5732C6.35734 20.9842 8.19155 22.0424 9.3203 22.6773C11.2251 23.806 14.1175 25.7813 15.8106 25.4991Z" fill="url(#paint6_linear_420_232)"/>
<path d="M20.5367 22.7478C17.4326 24.582 16.5155 25.2169 13.4115 23.3122C8.12047 20.2081 5.51025 18.7267 5.51025 18.7267C7.6972 17.5274 8.75539 16.8925 8.75539 16.8925C11.154 18.3034 12.9882 19.3616 14.1169 19.9965C16.0217 21.0547 18.9141 22.9595 20.5367 22.7478Z" fill="url(#paint7_linear_420_232)"/>
</g>
</g>
</g>
<defs>
<linearGradient id="paint0_linear_420_232" x1="14.3364" y1="18.2108" x2="19.9787" y2="12.7621" gradientUnits="userSpaceOnUse">
<stop stop-color="#4B31B1"/>
<stop offset="0.0886415" stop-color="#5D41C4"/>
<stop offset="0.214" stop-color="#7152D8"/>
<stop offset="0.3396" stop-color="#7C5CE4"/>
<stop offset="0.4649" stop-color="#805FE8"/>
<stop offset="0.5515" stop-color="#8065E9"/>
<stop offset="0.6688" stop-color="#7F76ED"/>
<stop offset="0.8036" stop-color="#7E93F3"/>
<stop offset="0.9506" stop-color="#7CBAFC"/>
<stop offset="1" stop-color="#7BC9FF"/>
</linearGradient>
<linearGradient id="paint1_linear_420_232" x1="17.0271" y1="18.4688" x2="25.269" y2="10.5097" gradientUnits="userSpaceOnUse">
<stop stop-color="#4B31B1"/>
<stop offset="0.0886415" stop-color="#5D41C4"/>
<stop offset="0.214" stop-color="#7152D8"/>
<stop offset="0.3396" stop-color="#7C5CE4"/>
<stop offset="0.4649" stop-color="#805FE8"/>
<stop offset="0.5515" stop-color="#8065E9"/>
<stop offset="0.6688" stop-color="#7F76ED"/>
<stop offset="0.8036" stop-color="#7E93F3"/>
<stop offset="0.9506" stop-color="#7CBAFC"/>
<stop offset="1" stop-color="#7BC9FF"/>
</linearGradient>
<linearGradient id="paint2_linear_420_232" x1="11.5202" y1="7.32739" x2="17.2817" y2="1.7636" gradientUnits="userSpaceOnUse">
<stop stop-color="#4B31B1"/>
<stop offset="0.0886415" stop-color="#5D41C4"/>
<stop offset="0.214" stop-color="#7152D8"/>
<stop offset="0.3396" stop-color="#7C5CE4"/>
<stop offset="0.4649" stop-color="#805FE8"/>
<stop offset="0.5515" stop-color="#8065E9"/>
<stop offset="0.6688" stop-color="#7F76ED"/>
<stop offset="0.8036" stop-color="#7E93F3"/>
<stop offset="0.9506" stop-color="#7CBAFC"/>
<stop offset="1" stop-color="#7BC9FF"/>
</linearGradient>
<linearGradient id="paint3_linear_420_232" x1="6.7266" y1="10.0951" x2="12.4888" y2="4.5306" gradientUnits="userSpaceOnUse">
<stop stop-color="#4B31B1"/>
<stop offset="0.0886415" stop-color="#5D41C4"/>
<stop offset="0.214" stop-color="#7152D8"/>
<stop offset="0.3396" stop-color="#7C5CE4"/>
<stop offset="0.4649" stop-color="#805FE8"/>
<stop offset="0.5515" stop-color="#8065E9"/>
<stop offset="0.6688" stop-color="#7F76ED"/>
<stop offset="0.8036" stop-color="#7E93F3"/>
<stop offset="0.9506" stop-color="#7CBAFC"/>
<stop offset="1" stop-color="#7BC9FF"/>
</linearGradient>
<linearGradient id="paint4_linear_420_232" x1="3.29276" y1="14.6344" x2="8.93507" y2="9.18569" gradientUnits="userSpaceOnUse">
<stop stop-color="#4B31B1"/>
<stop offset="0.0886415" stop-color="#5D41C4"/>
<stop offset="0.214" stop-color="#7152D8"/>
<stop offset="0.3396" stop-color="#7C5CE4"/>
<stop offset="0.4649" stop-color="#805FE8"/>
<stop offset="0.6084" stop-color="#8069E8"/>
<stop offset="0.8475" stop-color="#8082E7"/>
<stop offset="1" stop-color="#8096E7"/>
</linearGradient>
<linearGradient id="paint5_linear_420_232" x1="-1.77308" y1="16.6709" x2="6.4688" y2="8.71185" gradientUnits="userSpaceOnUse">
<stop stop-color="#4B31B1"/>
<stop offset="0.0886415" stop-color="#5D41C4"/>
<stop offset="0.214" stop-color="#7152D8"/>
<stop offset="0.3396" stop-color="#7C5CE4"/>
<stop offset="0.4649" stop-color="#805FE8"/>
<stop offset="0.6084" stop-color="#8069E8"/>
<stop offset="0.8475" stop-color="#8082E7"/>
<stop offset="1" stop-color="#8096E7"/>
</linearGradient>
<linearGradient id="paint6_linear_420_232" x1="6.15262" y1="25.4769" x2="11.9141" y2="19.913" gradientUnits="userSpaceOnUse">
<stop stop-color="#4B31B1"/>
<stop offset="0.0886415" stop-color="#5D41C4"/>
<stop offset="0.214" stop-color="#7152D8"/>
<stop offset="0.3396" stop-color="#7C5CE4"/>
<stop offset="0.4649" stop-color="#805FE8"/>
<stop offset="0.6084" stop-color="#8069E8"/>
<stop offset="0.8475" stop-color="#8082E7"/>
<stop offset="1" stop-color="#8096E7"/>
</linearGradient>
<linearGradient id="paint7_linear_420_232" x1="10.59" y1="23.0528" x2="16.3523" y2="17.4883" gradientUnits="userSpaceOnUse">
<stop stop-color="#4B31B1"/>
<stop offset="0.0886415" stop-color="#5D41C4"/>
<stop offset="0.214" stop-color="#7152D8"/>
<stop offset="0.3396" stop-color="#7C5CE4"/>
<stop offset="0.4649" stop-color="#805FE8"/>
<stop offset="0.6084" stop-color="#8069E8"/>
<stop offset="0.8475" stop-color="#8082E7"/>
<stop offset="1" stop-color="#8096E7"/>
</linearGradient>
<clipPath id="clip0_420_232">
<rect width="120.863" height="26.3844" fill="white" transform="translate(0 0.807861)"/>
</clipPath>
<clipPath id="clip1_420_232">
<rect width="120.863" height="26.3844" fill="white" transform="translate(0 0.807861)"/>
</clipPath>
<clipPath id="clip2_420_232">
<rect width="120.846" height="26.3844" fill="white" transform="translate(0.00878906 0.807861)"/>
</clipPath>
</defs>
</svg>
