<?xml version="1.0" encoding="UTF-8"?> <!-- Generator: Adobe Illustrator 25.0.0, SVG Export Plug-In . SVG Version: 6.00 Build 0) --> <svg xmlns="http://www.w3.org/2000/svg" xmlns:xlink="http://www.w3.org/1999/xlink" id="Слой_1" x="0px" y="0px" viewBox="0 0 171.3 37.4" style="enable-background:new 0 0 171.3 37.4;" xml:space="preserve"> <style type="text/css"> .st0{fill:#FFFFFF;} .st1{fill:url(#SVGID_1_);} .st2{fill:url(#SVGID_2_);} .st3{fill:url(#SVGID_3_);} .st4{fill:url(#SVGID_4_);} .st5{fill:url(#SVGID_5_);} .st6{fill:url(#SVGID_6_);} .st7{fill:url(#SVGID_7_);} .st8{fill:url(#SVGID_8_);} </style> <g> <g> <path class="st0" d="M54.9,15.5c-0.8-0.1-1.7-0.2-2.6-0.2c-1.6,0-2.9,0.2-4.2,0.6v9.9h-4.5V11.6h1.1l1.5,0.9 c1.8-1,3.8-1.5,6.3-1.5c0.9,0,1.7,0.1,2.4,0.2V15.5z"></path> <path class="st0" d="M64.9,26.3c-6.3,0-8.1-3.2-8.1-7.1v-1.1c0-3.9,1.8-7.1,8.1-7.1h0.8c6.4,0,7.8,2,7.8,4.5v0.3 c0,2.3-0.7,4.2-7.7,4.2c-1.7,0-3.1-0.1-4.4-0.5c0.1,1.6,0.7,2.6,4.4,2.6c1.8,0,4.6-0.3,6.6-0.8v4.2c-2,0.5-4.7,0.7-6.9,0.7H64.9z M61.4,16.6c1.1,0.3,2.3,0.4,4,0.4c3.3,0,3.5-0.6,3.5-1.1c0-0.5-0.2-1.3-3.2-1.3C62.7,14.6,61.7,15.3,61.4,16.6z"></path> <path class="st0" d="M77.4,11.6l1.5,0.9c1.8-1,3.8-1.5,6.3-1.5c6.3,0,8.1,3.2,8.1,7.1v7.6h-4.5v-7.1c0-1.8,0-3.5-3.8-3.5 c-1.6,0-2.9,0.2-4.2,0.6v10h-4.5V11.6H77.4z"></path> <path class="st0" d="M100.5,11.6h4.4v4h-4.4v4.5c0,1.2,0.1,2,2.7,2c0.9,0,1.9-0.1,2.6-0.3v4.1c-0.8,0.2-1.8,0.3-2.8,0.3 c-5.1,0-7-2-7-5.5V6h1.1l3.4,2V11.6z"></path> <path class="st0" d="M125.2,25.8H124l-1.5-0.9c-1.9,1-3.9,1.4-6.5,1.4c-6.1,0-7.9-2.2-7.9-4.7v-0.3c0-2.4,1.9-4.3,7.8-4.3 c1.9,0,3.4,0.2,4.7,0.5c-0.1-1.5-0.5-2.3-4.2-2.3c-2,0-4.8,0.3-6.8,0.8v-4.2c2-0.5,4.7-0.7,6.9-0.7c6.3,0,8.6,2.2,8.6,6.2V25.8z M120.7,22.2v-1.3c-1.3-0.3-2.7-0.5-4.4-0.5c-3.4,0-3.5,0.7-3.5,1.2c0,0.7,0.2,1.2,3.8,1.2C118,22.8,119.4,22.6,120.7,22.2z"></path> <path class="st0" d="M129.3,4.6l3.4,2v19.2h-4.5V4.6H129.3z"></path> <path class="st0" d="M135.6,6.7c0-1.2,0.5-2.1,2.4-2.1h0.2c1.9,0,2.4,1,2.4,2.1V7c0,1.2-0.5,2.1-2.4,2.1h-0.2 c-1.9,0-2.4-1-2.4-2.1V6.7z M137,11.6l3.4,2v12.2h-4.5V11.6H137z"></path> <path class="st0" d="M147.9,11.6h4.4v4h-4.4v4.5c0,1.2,0.1,2,2.7,2c0.9,0,1.9-0.1,2.6-0.3v4.1c-0.8,0.2-1.8,0.3-2.8,0.3 c-5.1,0-7-2-7-5.5V6h1.1l3.4,2V11.6z"></path> <path class="st0" d="M164.9,27.3c-1.5,3.3-2.8,5.5-6.6,5.5c-0.7,0-1.7-0.1-2.4-0.3v-4c0.6,0.1,1.6,0.2,2.2,0.2 c1.9,0,2.2-0.7,2.8-2l0.2-0.5l-6.8-13.5v-1.1h4.2l4.5,9.8l4-9.8h4.2v1.1L164.9,27.3z"></path> </g> <g> <linearGradient id="SVGID_1_" gradientUnits="userSpaceOnUse" x1="20.3106" y1="24.6687" x2="28.3086" y2="16.9451"> <stop offset="0" style="stop-color:#4B31B1"></stop> <stop offset="8.864151e-02" style="stop-color:#5D41C4"></stop> <stop offset="0.214" style="stop-color:#7152D8"></stop> <stop offset="0.3396" style="stop-color:#7C5CE4"></stop> <stop offset="0.4649" style="stop-color:#805FE8"></stop> <stop offset="0.5515" style="stop-color:#8065E9"></stop> <stop offset="0.6688" style="stop-color:#7F76ED"></stop> <stop offset="0.8036" style="stop-color:#7E93F3"></stop> <stop offset="0.9506" style="stop-color:#7CBAFC"></stop> <stop offset="1" style="stop-color:#7BC9FF"></stop> </linearGradient> <path class="st1" d="M25.3,13.8l-4.5,2.6c0,5.9,0.1,8.8,0.1,8.8c1.1,0.8,2.8,1.8,4.5,2.5c0-0.3,0-0.7,0-1L25.3,13.8L25.3,13.8z"></path> <linearGradient id="SVGID_2_" gradientUnits="userSpaceOnUse" x1="24.1245" y1="25.0344" x2="35.8074" y2="13.7524"> <stop offset="0" style="stop-color:#4B31B1"></stop> <stop offset="8.864151e-02" style="stop-color:#5D41C4"></stop> <stop offset="0.214" style="stop-color:#7152D8"></stop> <stop offset="0.3396" style="stop-color:#7C5CE4"></stop> <stop offset="0.4649" style="stop-color:#805FE8"></stop> <stop offset="0.5515" style="stop-color:#8065E9"></stop> <stop offset="0.6688" style="stop-color:#7F76ED"></stop> <stop offset="0.8036" style="stop-color:#7E93F3"></stop> <stop offset="0.9506" style="stop-color:#7CBAFC"></stop> <stop offset="1" style="stop-color:#7BC9FF"></stop> </linearGradient> <path class="st2" d="M32.1,23.2l0-7.9l0-5.4l-4.6,2.6l0,8.8c0,2.1,0.2,4.9-0.2,7.1c1,0.2,1.9,0.3,2.7,0 C31.5,27.8,32.2,26,32.1,23.2L32.1,23.2z"></path> <linearGradient id="SVGID_3_" gradientUnits="userSpaceOnUse" x1="16.3181" y1="9.2415" x2="24.4851" y2="1.3548"> <stop offset="0" style="stop-color:#4B31B1"></stop> <stop offset="8.864151e-02" style="stop-color:#5D41C4"></stop> <stop offset="0.214" style="stop-color:#7152D8"></stop> <stop offset="0.3396" style="stop-color:#7C5CE4"></stop> <stop offset="0.4649" style="stop-color:#805FE8"></stop> <stop offset="0.5515" style="stop-color:#8065E9"></stop> <stop offset="0.6688" style="stop-color:#7F76ED"></stop> <stop offset="0.8036" style="stop-color:#7E93F3"></stop> <stop offset="0.9506" style="stop-color:#7CBAFC"></stop> <stop offset="1" style="stop-color:#7BC9FF"></stop> </linearGradient> <path class="st3" d="M9.7,2.4c4.4-2.6,5.7-3.5,10.1-0.8C27.3,6,31.1,8.2,31.1,8.2c-3.1,1.7-4.6,2.6-4.6,2.6c-3.4-2-6-3.5-7.6-4.4 C16.1,4.8,12.1,2.1,9.7,2.4L9.7,2.4z"></path> <linearGradient id="SVGID_4_" gradientUnits="userSpaceOnUse" x1="9.5228" y1="13.1647" x2="17.6908" y2="5.277"> <stop offset="0" style="stop-color:#4B31B1"></stop> <stop offset="8.864151e-02" style="stop-color:#5D41C4"></stop> <stop offset="0.214" style="stop-color:#7152D8"></stop> <stop offset="0.3396" style="stop-color:#7C5CE4"></stop> <stop offset="0.4649" style="stop-color:#805FE8"></stop> <stop offset="0.5515" style="stop-color:#8065E9"></stop> <stop offset="0.6688" style="stop-color:#7F76ED"></stop> <stop offset="0.8036" style="stop-color:#7E93F3"></stop> <stop offset="0.9506" style="stop-color:#7CBAFC"></stop> <stop offset="1" style="stop-color:#7BC9FF"></stop> </linearGradient> <path class="st4" d="M2.9,6.3c4.4-2.6,5.7-3.5,10.1-0.8c7.5,4.4,11.2,6.5,11.2,6.5c-3.1,1.7-4.6,2.6-4.6,2.6c-3.4-2-6-3.5-7.6-4.4 C9.3,8.7,5.3,6,2.9,6.3L2.9,6.3z"></path> <g> <linearGradient id="SVGID_5_" gradientUnits="userSpaceOnUse" x1="4.6572" y1="19.5992" x2="12.6552" y2="11.8756"> <stop offset="0" style="stop-color:#4B31B1"></stop> <stop offset="8.864151e-02" style="stop-color:#5D41C4"></stop> <stop offset="0.214" style="stop-color:#7152D8"></stop> <stop offset="0.3396" style="stop-color:#7C5CE4"></stop> <stop offset="0.4649" style="stop-color:#805FE8"></stop> <stop offset="0.6084" style="stop-color:#8069E8"></stop> <stop offset="0.8475" style="stop-color:#8082E7"></stop> <stop offset="1" style="stop-color:#8096E7"></stop> </linearGradient> <path class="st5" d="M6.8,23.6l4.5-2.6c0-5.9-0.1-8.8-0.1-8.8c-1.1-0.8-2.8-1.8-4.5-2.5c0,0.3,0,0.7,0,1L6.8,23.6L6.8,23.6z"></path> <linearGradient id="SVGID_6_" gradientUnits="userSpaceOnUse" x1="-2.5248" y1="22.486" x2="9.1581" y2="11.204"> <stop offset="0" style="stop-color:#4B31B1"></stop> <stop offset="8.864151e-02" style="stop-color:#5D41C4"></stop> <stop offset="0.214" style="stop-color:#7152D8"></stop> <stop offset="0.3396" style="stop-color:#7C5CE4"></stop> <stop offset="0.4649" style="stop-color:#805FE8"></stop> <stop offset="0.6084" style="stop-color:#8069E8"></stop> <stop offset="0.8475" style="stop-color:#8082E7"></stop> <stop offset="1" style="stop-color:#8096E7"></stop> </linearGradient> <path class="st6" d="M0,14.2l0,7.9l0,5.4l4.6-2.6l0-8.8c0-2.1-0.2-4.9,0.2-7.1c-1-0.2-1.9-0.3-2.7,0C0.6,9.6-0.1,11.4,0,14.2 L0,14.2z"></path> <linearGradient id="SVGID_7_" gradientUnits="userSpaceOnUse" x1="8.7098" y1="34.9684" x2="16.8767" y2="27.0816"> <stop offset="0" style="stop-color:#4B31B1"></stop> <stop offset="8.864151e-02" style="stop-color:#5D41C4"></stop> <stop offset="0.214" style="stop-color:#7152D8"></stop> <stop offset="0.3396" style="stop-color:#7C5CE4"></stop> <stop offset="0.4649" style="stop-color:#805FE8"></stop> <stop offset="0.6084" style="stop-color:#8069E8"></stop> <stop offset="0.8475" style="stop-color:#8082E7"></stop> <stop offset="1" style="stop-color:#8096E7"></stop> </linearGradient> <path class="st7" d="M22.4,35c-4.4,2.6-5.7,3.5-10.1,0.8C4.7,31.4,1,29.2,1,29.2c3.1-1.7,4.6-2.6,4.6-2.6c3.4,2,6,3.5,7.6,4.4 C15.9,32.6,20,35.4,22.4,35L22.4,35z"></path> <linearGradient id="SVGID_8_" gradientUnits="userSpaceOnUse" x1="15.0006" y1="31.5323" x2="23.1686" y2="23.6446"> <stop offset="0" style="stop-color:#4B31B1"></stop> <stop offset="8.864151e-02" style="stop-color:#5D41C4"></stop> <stop offset="0.214" style="stop-color:#7152D8"></stop> <stop offset="0.3396" style="stop-color:#7C5CE4"></stop> <stop offset="0.4649" style="stop-color:#805FE8"></stop> <stop offset="0.6084" style="stop-color:#8069E8"></stop> <stop offset="0.8475" style="stop-color:#8082E7"></stop> <stop offset="1" style="stop-color:#8096E7"></stop> </linearGradient> <path class="st8" d="M29.1,31.1c-4.4,2.6-5.7,3.5-10.1,0.8c-7.5-4.4-11.2-6.5-11.2-6.5c3.1-1.7,4.6-2.6,4.6-2.6 c3.4,2,6,3.5,7.6,4.4C22.7,28.7,26.8,31.4,29.1,31.1L29.1,31.1z"></path> </g> </g> </g> </svg> 