<svg width="28" height="29" viewBox="0 0 28 29" fill="none" xmlns="http://www.w3.org/2000/svg">
<path d="M25.8342 13.2904L23.5195 11.14L21.4662 7.03334C21.2899 6.7466 21.0427 6.5101 20.7485 6.34663C20.4542 6.18316 20.1228 6.09822 19.7862 6.1H8.21288C7.87627 6.09822 7.54488 6.18316 7.25063 6.34663C6.95638 6.5101 6.70919 6.7466 6.53288 7.03334L4.47954 11.14L2.16488 13.2904C2.07058 13.3779 1.99538 13.4838 1.94398 13.6017C1.89259 13.7196 1.86611 13.8469 1.86621 13.9755V21.9667C1.86621 22.2142 1.96454 22.4516 2.13958 22.6266C2.31461 22.8017 2.55201 22.9 2.79954 22.9H6.53288C6.90621 22.9 7.46621 22.5267 7.46621 22.1533V21.0333H20.5329V21.9667C20.5329 22.34 20.9062 22.9 21.2795 22.9H25.1995C25.4471 22.9 25.6845 22.8017 25.8595 22.6266C26.0345 22.4516 26.1329 22.2142 26.1329 21.9667V13.9755C26.133 13.8469 26.1065 13.7196 26.0551 13.6017C26.0037 13.4838 25.9285 13.3779 25.8342 13.2904ZM8.39954 7.96667H19.5995L21.4662 11.7H6.53288L8.39954 7.96667ZM9.33288 16.5533C9.33288 16.9267 8.77288 17.3 8.39954 17.3H4.47954C4.10621 17.3 3.73288 16.74 3.73288 16.3667V14.3133C3.91954 13.7533 4.29288 13.38 4.85288 13.5667L8.58621 14.3133C8.95954 14.3133 9.33288 14.8733 9.33288 15.2467V16.5533ZM24.2662 16.3667C24.2662 16.74 23.8929 17.3 23.5195 17.3H19.5995C19.2262 17.3 18.6662 16.9267 18.6662 16.5533V15.2467C18.6662 14.8733 19.0395 14.3133 19.4129 14.3133L23.1462 13.5667C23.7062 13.38 24.0795 13.7533 24.2662 14.3133V16.3667Z" fill="#6600CC"/>
</svg>
