<svg width="33" height="33" viewBox="0 0 33 33" fill="none" xmlns="http://www.w3.org/2000/svg">
<path d="M30.0248 15.1176L27.3795 12.66L25.0328 7.96666C24.8313 7.63896 24.5488 7.36868 24.2125 7.18185C23.8762 6.99503 23.4975 6.89796 23.1128 6.89999H9.88615C9.50146 6.89796 9.12272 6.99503 8.78644 7.18185C8.45015 7.36868 8.16765 7.63896 7.96615 7.96666L5.61948 12.66L2.97415 15.1176C2.86638 15.2175 2.78043 15.3387 2.7217 15.4734C2.66296 15.6081 2.6327 15.7536 2.63281 15.9005V25.0333C2.63281 25.3162 2.74519 25.5875 2.94523 25.7876C3.14527 25.9876 3.41658 26.1 3.69948 26.1H7.96615C8.39281 26.1 9.03281 25.6733 9.03281 25.2467V23.9667H23.9661V25.0333C23.9661 25.46 24.3928 26.1 24.8195 26.1H29.2995C29.5824 26.1 29.8537 25.9876 30.0537 25.7876C30.2538 25.5875 30.3661 25.3162 30.3661 25.0333V15.9005C30.3663 15.7536 30.336 15.6081 30.2773 15.4734C30.2185 15.3387 30.1326 15.2175 30.0248 15.1176ZM10.0995 9.03333H22.8995L25.0328 13.3H7.96615L10.0995 9.03333ZM11.1661 18.8467C11.1661 19.2733 10.5261 19.7 10.0995 19.7H5.61948C5.19281 19.7 4.76615 19.06 4.76615 18.6333V16.2867C4.97948 15.6467 5.40615 15.22 6.04615 15.4333L10.3128 16.2867C10.7395 16.2867 11.1661 16.9267 11.1661 17.3533V18.8467ZM28.2328 18.6333C28.2328 19.06 27.8061 19.7 27.3795 19.7H22.8995C22.4728 19.7 21.8328 19.2733 21.8328 18.8467V17.3533C21.8328 16.9267 22.2595 16.2867 22.6861 16.2867L26.9528 15.4333C27.5928 15.22 28.0195 15.6467 28.2328 16.2867V18.6333Z" fill="#7445CF"/>
</svg>
