<svg width="78" height="79" viewBox="0 0 78 79" fill="none" xmlns="http://www.w3.org/2000/svg">
<path d="M31.3245 31.8318C32.9977 30.1586 32.9977 27.4458 31.3245 25.7726C29.6513 24.0994 26.9385 24.0994 25.2653 25.7726C23.5921 27.4458 23.5921 30.1586 25.2653 31.8318C26.9385 33.505 29.6513 33.505 31.3245 31.8318Z" fill="#B398FF"/>
<path d="M49.6978 54.4838C52.0645 54.4838 53.983 52.5652 53.983 50.1986C53.983 47.832 52.0645 45.9135 49.6978 45.9135C47.3312 45.9135 45.4127 47.832 45.4127 50.1986C45.4127 52.5652 47.3312 54.4838 49.6978 54.4838Z" fill="#B398FF"/>
<path d="M71.4934 31.9023C70.1096 30.4704 69.4742 28.516 69.7522 26.5448L70.9375 18.1335C71.0983 16.9859 70.3313 15.9282 69.1879 15.7275L60.8205 14.2601C58.8555 13.9152 57.1918 12.705 56.2573 10.9429L52.2816 3.44282C51.7361 2.41435 50.4881 2.01094 49.4492 2.52099L41.8218 6.25432C40.0283 7.13228 37.9715 7.13228 36.1781 6.25432L28.5506 2.52099C28.2454 2.3726 27.9214 2.30146 27.6036 2.30146C26.8385 2.30146 26.1027 2.71538 25.7182 3.44282L21.7446 10.9407C20.8228 12.6799 19.1171 13.9193 17.1795 14.258L8.81411 15.7254C7.67077 15.926 6.90144 16.9837 7.06247 18.1333L8.2477 26.5447C8.52573 28.5159 7.8903 30.4681 6.50854 31.9022L0.605376 38.0122C-0.201436 38.8483 -0.201436 40.1526 0.603243 40.9887L6.50626 47.0986C7.89 48.5305 8.52542 50.4849 8.2474 52.4561L7.06216 60.8674C6.90129 62.017 7.66834 63.0727 8.81168 63.2734L17.1792 64.7408C19.1441 65.0857 20.8078 66.2959 21.7423 68.058L25.718 75.5581C26.2616 76.5865 27.5116 76.9878 28.5504 76.4799L36.1778 72.7466C37.9713 71.8686 40.0281 71.8686 41.8215 72.7466L49.4489 76.4799C50.4878 76.9878 51.7357 76.5865 52.2813 75.5581L56.2549 68.0602C57.1767 66.3232 58.8823 65.0816 60.82 64.7429L69.1854 63.2755C70.3287 63.0749 71.098 62.0172 70.937 60.8676L69.7518 52.4562C69.4737 50.485 70.1072 48.5328 71.4909 47.0987L77.3939 40.9888H77.3961C78.2008 40.1528 78.2008 38.8484 77.3961 38.0124L71.4934 31.9023ZM19.7356 28.8023C19.7356 24.0782 23.5776 20.2363 28.3016 20.2363C33.0257 20.2363 36.8676 24.0782 36.8676 28.8023C36.8676 33.5263 33.0257 37.3682 28.3016 37.3682C23.5776 37.3682 19.7356 33.5264 19.7356 28.8023ZM27.6705 53.8566C27.2524 54.2746 26.7048 54.4836 26.1571 54.4836C25.6094 54.4836 25.0617 54.2746 24.6437 53.8566C23.8076 53.0205 23.8076 51.6659 24.6437 50.8298L50.3292 25.1443C51.1652 24.3083 52.5199 24.3083 53.3559 25.1443C54.192 25.9804 54.192 27.335 53.3559 28.1711L27.6705 53.8566ZM49.698 58.7646C44.974 58.7646 41.132 54.9227 41.132 50.1986C41.132 45.4746 44.974 41.6327 49.698 41.6327C54.422 41.6327 58.264 45.4746 58.264 50.1986C58.264 54.9227 54.422 58.7646 49.698 58.7646Z" fill="#B398FF"/>
</svg>
