<svg width="32" height="32" viewBox="0 0 32 32" fill="none" xmlns="http://www.w3.org/2000/svg">
<path d="M16.1055 7.95611e-07C14.9036 0.00599475 13.7147 0.249947 12.6067 0.717968C11.4986 1.18598 10.4931 1.86895 9.64756 2.72772C8.80203 3.5865 8.13303 4.60434 7.67878 5.72311C7.22452 6.84187 6.99392 8.03964 7.00012 9.24802V12.3027H14.3983V7.87708C14.3982 7.66924 14.4389 7.46342 14.5179 7.27138C14.597 7.07934 14.7129 6.90485 14.859 6.75787C15.0052 6.61089 15.1787 6.49435 15.3697 6.41482C15.5607 6.33529 15.7654 6.29439 15.9721 6.29443H16.2388C16.4456 6.29439 16.6503 6.3353 16.8413 6.41482C17.0323 6.49435 17.2059 6.61089 17.352 6.75787C17.4982 6.90485 17.6142 7.07934 17.6933 7.27138C17.7724 7.46343 17.813 7.66923 17.813 7.87708V19.7411C18.7846 19.7412 19.7466 19.5488 20.6442 19.175C21.5418 18.8012 22.3574 18.2533 23.0444 17.5625C23.7314 16.8718 24.2763 16.0518 24.6481 15.1493C25.0199 14.2469 25.2112 13.2795 25.2112 12.3027V9.24802C25.2164 6.79969 24.2575 4.44878 22.5441 2.70913C21.7033 1.85066 20.701 1.16901 19.5956 0.703905C18.4902 0.238793 17.3038 -0.000503564 16.1055 7.95611e-07Z" fill="#F2F2F2"/>
<path d="M16.2392 25.7472H15.9725C15.7658 25.7472 15.5611 25.7063 15.3702 25.6268C15.1792 25.5473 15.0057 25.4307 14.8595 25.2837C14.7134 25.1368 14.5974 24.9624 14.5184 24.7704C14.4393 24.5784 14.3986 24.3726 14.3987 24.1647V12.3008C13.4271 12.3007 12.465 12.493 11.5674 12.8668C10.6698 13.2406 9.85417 13.7885 9.16717 14.4792C8.48017 15.17 7.93521 15.99 7.56345 16.8925C7.19169 17.795 7.00039 18.7623 7.00048 19.7391V22.7513C6.98815 23.9614 7.21457 25.162 7.66664 26.2836C8.11871 27.4052 8.78745 28.4256 9.6342 29.2857C10.481 30.1459 11.4889 30.8287 12.5998 31.2946C13.7106 31.7606 14.9023 32.0006 16.106 32.0006C17.3097 32.0006 18.5014 31.7606 19.6122 31.2946C20.7231 30.8287 21.7311 30.1459 22.5778 29.2857C23.4246 28.4256 24.0933 27.4052 24.5454 26.2836C24.9974 25.162 25.2239 23.9614 25.2115 22.7513V19.7391H17.8134V24.1647C17.8134 24.3726 17.7726 24.5784 17.6935 24.7704C17.6144 24.9624 17.4985 25.1369 17.3523 25.2838C17.2061 25.4307 17.0326 25.5473 16.8416 25.6268C16.6506 25.7063 16.4459 25.7472 16.2392 25.7472Z" fill="#F2F2F2"/>
</svg>
