<svg width="64" height="64" viewBox="0 0 64 64" fill="none" xmlns="http://www.w3.org/2000/svg">
<path d="M13.0848 12.7245H23.6913L27.11 21.2713L21.618 24.9326C20.9608 25.3707 20.5661 26.1083 20.5661 26.8981C20.5721 27.1193 20.5661 26.9005 20.5661 26.9005L20.5661 26.9029L20.5661 26.9082L20.5662 26.9201L20.5665 26.9493C20.5668 26.9711 20.5674 26.9975 20.5684 27.0285C20.5704 27.0904 20.5741 27.1705 20.5805 27.2675C20.5934 27.4614 20.6178 27.7236 20.6636 28.0442C20.7552 28.6851 20.9329 29.563 21.2778 30.5979C21.9705 32.676 23.3316 35.3667 25.9825 38.0175C28.6333 40.6684 31.324 42.0295 33.4021 42.7222C34.437 43.0671 35.3149 43.2448 35.9558 43.3364C36.2764 43.3822 36.5386 43.4066 36.7325 43.4195C36.8295 43.426 36.9096 43.4296 36.9715 43.4316C37.0025 43.4326 37.0289 43.4332 37.0507 43.4335L37.0799 43.4339L37.0918 43.4339L37.0971 43.4339L37.0995 43.4339C37.0995 43.4339 37.3632 43.4195 37.1019 43.4339C37.9967 43.4339 38.8146 42.9284 39.2148 42.1281L40.7968 38.9641L51.2755 40.7106V50.9152C46.2885 51.6364 32.8201 52.3472 22.2364 41.7636C11.6528 31.1799 12.3636 17.7115 13.0848 12.7245ZM25.4646 28.0464L29.7306 25.2023C31.5896 23.963 32.3263 21.591 31.4966 19.5166L28.0779 10.9699C27.3604 9.17618 25.6231 8 23.6913 8H12.9614C10.8153 8 8.79511 9.49097 8.44279 11.8195C7.64125 17.1172 6.55025 32.7589 18.8957 45.1043C31.2411 57.4498 46.8828 56.3588 52.1805 55.5572C54.509 55.2049 56 53.1847 56 51.0386V40.7106C56 38.401 54.3303 36.43 52.0522 36.0503L41.5735 34.3039C39.5276 33.9629 37.4986 34.9961 36.571 36.8512L35.7525 38.4883C35.4953 38.4251 35.2081 38.3441 34.8961 38.2401C33.4308 37.7516 31.3969 36.7505 29.3232 34.6768C27.2495 32.6031 26.2484 30.5692 25.7599 29.1039C25.6279 28.708 25.5329 28.352 25.4646 28.0464Z" fill="white"/>
</svg>
