<svg width="260" height="260" viewBox="0 0 260 260" fill="none" xmlns="http://www.w3.org/2000/svg">
<g clip-path="url(#clip0_282_3226)">
<path d="M147.247 122.108L138.825 126.278C138.885 135.693 138.917 140.4 138.92 140.4C141.566 141.984 144.389 143.34 147.346 144.447C147.346 143.938 147.346 143.399 147.346 142.83L147.247 122.108Z" fill="url(#paint0_linear_282_3226)"/>
<path d="M159.959 137.163L159.994 124.528L159.959 115.809L151.39 120.068L151.472 134.153C151.472 137.498 151.776 141.957 151.169 145.529C153.024 145.9 154.762 145.937 156.171 145.48C158.936 144.581 160.254 141.716 159.959 137.163Z" fill="url(#paint1_linear_282_3226)"/>
<path d="M118.205 103.861C126.35 99.6992 128.924 98.3241 137.156 102.65L158.152 113.134L149.522 117.34L135.27 110.205C130.164 107.648 122.652 103.3 118.205 103.861Z" fill="url(#paint2_linear_282_3226)"/>
<path d="M105.47 110.157C113.636 105.991 116.211 104.62 124.447 108.942L145.439 119.425L136.813 123.632L122.561 116.497C117.451 113.94 109.943 109.592 105.47 110.157Z" fill="url(#paint3_linear_282_3226)"/>
<path d="M112.753 137.906L121.179 133.722C121.115 124.307 121.083 119.6 121.083 119.6C118.436 118.021 115.612 116.671 112.653 115.571C112.653 116.077 112.653 116.616 112.653 117.184L112.753 137.906Z" fill="url(#paint4_linear_282_3226)"/>
<path d="M100.039 122.848L100 135.465L100.044 144.183L108.609 139.943L108.526 125.858C108.505 122.514 108.227 118.054 108.83 114.483C106.979 114.111 105.237 114.074 103.828 114.531C101.067 115.43 99.749 118.296 100.039 122.848Z" fill="url(#paint5_linear_282_3226)"/>
<path d="M141.815 156.139C133.649 160.301 131.074 161.676 122.843 157.35L101.851 146.866L110.476 142.66L124.728 149.799C129.839 152.355 137.346 156.703 141.815 156.142V156.139Z" fill="url(#paint6_linear_282_3226)"/>
<path d="M154.528 149.843C146.379 154.009 143.779 155.373 135.543 151.058L114.56 140.575L123.19 136.368L137.441 143.503C142.548 146.06 150.059 150.408 154.528 149.843Z" fill="url(#paint7_linear_282_3226)"/>
<g filter="url(#filter0_d_282_3226)">
<path d="M84.2696 14H77.2427V21.027H84.2696V14Z" fill="white"/>
<path d="M98.3238 14H91.2969V21.027H98.3238V14Z" fill="white"/>
<path d="M119.404 14H112.377V21.027H119.404V14Z" fill="white"/>
<path d="M147.512 14H140.485V21.027H147.512V14Z" fill="white"/>
<path d="M175.62 14H168.593V21.027H175.62V14Z" fill="white"/>
<path d="M189.674 14H182.647V21.027H189.674V14Z" fill="white"/>
<path d="M84.2696 21.027H77.2427V28.0539H84.2696V21.027Z" fill="white"/>
<path d="M105.351 21.027H98.3237V28.0539H105.351V21.027Z" fill="white"/>
<path d="M119.404 21.027H112.377V28.0539H119.404V21.027Z" fill="white"/>
<path d="M126.432 21.027H119.405V28.0539H126.432V21.027Z" fill="white"/>
<path d="M133.459 21.027H126.432V28.0539H133.459V21.027Z" fill="white"/>
<path d="M140.485 21.027H133.458V28.0539H140.485V21.027Z" fill="white"/>
<path d="M147.512 21.027H140.485V28.0539H147.512V21.027Z" fill="white"/>
<path d="M161.567 21.027H154.54V28.0539H161.567V21.027Z" fill="white"/>
<path d="M189.674 21.027H182.647V28.0539H189.674V21.027Z" fill="white"/>
<path d="M77.2428 28.054H70.2158V35.0809H77.2428V28.054Z" fill="white"/>
<path d="M91.2965 28.054H84.2695V35.0809H91.2965V28.054Z" fill="white"/>
<path d="M105.351 28.054H98.3237V35.0809H105.351V28.054Z" fill="white"/>
<path d="M140.485 28.054H133.458V35.0809H140.485V28.054Z" fill="white"/>
<path d="M147.512 28.054H140.485V35.0809H147.512V28.054Z" fill="white"/>
<path d="M154.539 28.054H147.512V35.0809H154.539V28.054Z" fill="white"/>
<path d="M168.593 28.054H161.566V35.0809H168.593V28.054Z" fill="white"/>
<path d="M182.647 28.054H175.62V35.0809H182.647V28.054Z" fill="white"/>
<path d="M189.674 28.054H182.647V35.0809H189.674V28.054Z" fill="white"/>
<path d="M77.2428 35.0809H70.2158V42.1079H77.2428V35.0809Z" fill="white"/>
<path d="M84.2696 35.0809H77.2427V42.1079H84.2696V35.0809Z" fill="white"/>
<path d="M112.378 35.0809H105.351V42.1079H112.378V35.0809Z" fill="white"/>
<path d="M119.404 35.0809H112.377V42.1079H119.404V35.0809Z" fill="white"/>
<path d="M140.485 35.0809H133.458V42.1079H140.485V35.0809Z" fill="white"/>
<path d="M147.512 35.0809H140.485V42.1079H147.512V35.0809Z" fill="white"/>
<path d="M154.539 35.0809H147.512V42.1079H154.539V35.0809Z" fill="white"/>
<path d="M168.593 35.0809H161.566V42.1079H168.593V35.0809Z" fill="white"/>
<path d="M182.647 35.0809H175.62V42.1079H182.647V35.0809Z" fill="white"/>
<path d="M189.674 35.0809H182.647V42.1079H189.674V35.0809Z" fill="white"/>
<path d="M112.378 42.1079H105.351V49.1348H112.378V42.1079Z" fill="white"/>
<path d="M119.404 42.1079H112.377V49.1348H119.404V42.1079Z" fill="white"/>
<path d="M140.485 42.1079H133.458V49.1348H140.485V42.1079Z" fill="white"/>
<path d="M168.593 42.1079H161.566V49.1348H168.593V42.1079Z" fill="white"/>
<path d="M175.62 42.1079H168.593V49.1348H175.62V42.1079Z" fill="white"/>
<path d="M182.647 42.1079H175.62V49.1348H182.647V42.1079Z" fill="white"/>
<path d="M189.674 42.1079H182.647V49.1348H189.674V42.1079Z" fill="white"/>
<path d="M98.3238 49.1349H91.2969V56.1618H98.3238V49.1349Z" fill="white"/>
<path d="M133.459 49.1349H126.432V56.1618H133.459V49.1349Z" fill="white"/>
<path d="M154.539 49.1349H147.512V56.1618H154.539V49.1349Z" fill="white"/>
<path d="M161.567 49.1349H154.54V56.1618H161.567V49.1349Z" fill="white"/>
<path d="M175.62 49.1349H168.593V56.1618H175.62V49.1349Z" fill="white"/>
<path d="M182.647 49.1349H175.62V56.1618H182.647V49.1349Z" fill="white"/>
<path d="M77.2428 56.1618H70.2158V63.1888H77.2428V56.1618Z" fill="white"/>
<path d="M91.2965 56.1618H84.2695V63.1888H91.2965V56.1618Z" fill="white"/>
<path d="M105.351 56.1618H98.3237V63.1888H105.351V56.1618Z" fill="white"/>
<path d="M119.404 56.1618H112.377V63.1888H119.404V56.1618Z" fill="white"/>
<path d="M133.459 56.1618H126.432V63.1888H133.459V56.1618Z" fill="white"/>
<path d="M147.512 56.1618H140.485V63.1888H147.512V56.1618Z" fill="white"/>
<path d="M161.567 56.1618H154.54V63.1888H161.567V56.1618Z" fill="white"/>
<path d="M175.62 56.1618H168.593V63.1888H175.62V56.1618Z" fill="white"/>
<path d="M189.674 56.1618H182.647V63.1888H189.674V56.1618Z" fill="white"/>
<path d="M84.2696 63.1888H77.2427V70.2158H84.2696V63.1888Z" fill="white"/>
<path d="M98.3238 63.1888H91.2969V70.2158H98.3238V63.1888Z" fill="white"/>
<path d="M112.378 63.1888H105.351V70.2158H112.378V63.1888Z" fill="white"/>
<path d="M175.62 63.1888H168.593V70.2158H175.62V63.1888Z" fill="white"/>
<path d="M182.647 63.1888H175.62V70.2158H182.647V63.1888Z" fill="white"/>
<path d="M189.674 63.1888H182.647V70.2158H189.674V63.1888Z" fill="white"/>
<path d="M42.108 70.2158H35.0811V77.2427H42.108V70.2158Z" fill="white"/>
<path d="M49.1349 70.2158H42.1079V77.2427H49.1349V70.2158Z" fill="white"/>
<path d="M63.1886 70.2158H56.1616V77.2427H63.1886V70.2158Z" fill="white"/>
<path d="M70.2159 70.2158H63.189V77.2427H70.2159V70.2158Z" fill="white"/>
<path d="M98.3238 70.2158H91.2969V77.2427H98.3238V70.2158Z" fill="white"/>
<path d="M105.351 70.2158H98.3237V77.2427H105.351V70.2158Z" fill="white"/>
<path d="M119.404 70.2158H112.377V77.2427H119.404V70.2158Z" fill="white"/>
<path d="M133.459 70.2158H126.432V77.2427H133.459V70.2158Z" fill="white"/>
<path d="M147.512 70.2158H140.485V77.2427H147.512V70.2158Z" fill="white"/>
<path d="M161.567 70.2158H154.54V77.2427H161.567V70.2158Z" fill="white"/>
<path d="M189.674 70.2158H182.647V77.2427H189.674V70.2158Z" fill="white"/>
<path d="M224.809 70.2158H217.782V77.2427H224.809V70.2158Z" fill="white"/>
<path d="M231.836 70.2158H224.809V77.2427H231.836V70.2158Z" fill="white"/>
<path d="M35.0807 77.2427H28.0537V84.2697H35.0807V77.2427Z" fill="white"/>
<path d="M42.108 77.2427H35.0811V84.2697H42.108V77.2427Z" fill="white"/>
<path d="M70.2159 77.2427H63.189V84.2697H70.2159V77.2427Z" fill="white"/>
<path d="M105.351 77.2427H98.3237V84.2697H105.351V77.2427Z" fill="white"/>
<path d="M112.378 77.2427H105.351V84.2697H112.378V77.2427Z" fill="white"/>
<path d="M126.432 77.2427H119.405V84.2697H126.432V77.2427Z" fill="white"/>
<path d="M133.459 77.2427H126.432V84.2697H133.459V77.2427Z" fill="white"/>
<path d="M154.539 77.2427H147.512V84.2697H154.539V77.2427Z" fill="white"/>
<path d="M168.593 77.2427H161.566V84.2697H168.593V77.2427Z" fill="white"/>
<path d="M175.62 77.2427H168.593V84.2697H175.62V77.2427Z" fill="white"/>
<path d="M182.647 77.2427H175.62V84.2697H182.647V77.2427Z" fill="white"/>
<path d="M196.701 77.2427H189.674V84.2697H196.701V77.2427Z" fill="white"/>
<path d="M210.755 77.2427H203.728V84.2697H210.755V77.2427Z" fill="white"/>
<path d="M217.782 77.2427H210.755V84.2697H217.782V77.2427Z" fill="white"/>
<path d="M224.809 77.2427H217.782V84.2697H224.809V77.2427Z" fill="white"/>
<path d="M21.027 84.2697H14V91.2967H21.027V84.2697Z" fill="white"/>
<path d="M35.0807 84.2697H28.0537V91.2967H35.0807V84.2697Z" fill="white"/>
<path d="M42.108 84.2697H35.0811V91.2967H42.108V84.2697Z" fill="white"/>
<path d="M49.1349 84.2697H42.1079V91.2967H49.1349V84.2697Z" fill="white"/>
<path d="M63.1886 84.2697H56.1616V91.2967H63.1886V84.2697Z" fill="white"/>
<path d="M70.2159 84.2697H63.189V91.2967H70.2159V84.2697Z" fill="white"/>
<path d="M84.2696 84.2697H77.2427V91.2967H84.2696V84.2697Z" fill="white"/>
<path d="M91.2965 84.2697H84.2695V91.2967H91.2965V84.2697Z" fill="white"/>
<path d="M119.404 84.2697H112.377V91.2967H119.404V84.2697Z" fill="white"/>
<path d="M147.512 84.2697H140.485V91.2967H147.512V84.2697Z" fill="white"/>
<path d="M161.567 84.2697H154.54V91.2967H161.567V84.2697Z" fill="white"/>
<path d="M175.62 84.2697H168.593V91.2967H175.62V84.2697Z" fill="white"/>
<path d="M182.647 84.2697H175.62V91.2967H182.647V84.2697Z" fill="white"/>
<path d="M196.701 84.2697H189.674V91.2967H196.701V84.2697Z" fill="white"/>
<path d="M203.728 84.2697H196.701V91.2967H203.728V84.2697Z" fill="white"/>
<path d="M210.755 84.2697H203.728V91.2967H210.755V84.2697Z" fill="white"/>
<path d="M224.809 84.2697H217.782V91.2967H224.809V84.2697Z" fill="white"/>
<path d="M238.863 84.2697H231.836V91.2967H238.863V84.2697Z" fill="white"/>
<path d="M245.89 84.2697H238.863V91.2967H245.89V84.2697Z" fill="white"/>
<path d="M21.027 91.2967H14V98.3236H21.027V91.2967Z" fill="white"/>
<path d="M28.0538 91.2967H21.0269V98.3236H28.0538V91.2967Z" fill="white"/>
<path d="M35.0807 91.2967H28.0537V98.3236H35.0807V91.2967Z" fill="white"/>
<path d="M56.1617 91.2967H49.1348V98.3236H56.1617V91.2967Z" fill="white"/>
<path d="M175.62 91.2967H168.593V98.3236H175.62V91.2967Z" fill="white"/>
<path d="M182.647 91.2967H175.62V98.3236H182.647V91.2967Z" fill="white"/>
<path d="M210.755 91.2967H203.728V98.3236H210.755V91.2967Z" fill="white"/>
<path d="M217.782 91.2967H210.755V98.3236H217.782V91.2967Z" fill="white"/>
<path d="M231.836 91.2967H224.809V98.3236H231.836V91.2967Z" fill="white"/>
<path d="M245.89 91.2967H238.863V98.3236H245.89V91.2967Z" fill="white"/>
<path d="M35.0807 98.3236H28.0537V105.351H35.0807V98.3236Z" fill="white"/>
<path d="M42.108 98.3236H35.0811V105.351H42.108V98.3236Z" fill="white"/>
<path d="M63.1886 98.3236H56.1616V105.351H63.1886V98.3236Z" fill="white"/>
<path d="M70.2159 98.3236H63.189V105.351H70.2159V98.3236Z" fill="white"/>
<path d="M77.2428 98.3236H70.2158V105.351H77.2428V98.3236Z" fill="white"/>
<path d="M84.2696 98.3236H77.2427V105.351H84.2696V98.3236Z" fill="white"/>
<path d="M91.2965 98.3236H84.2695V105.351H91.2965V98.3236Z" fill="white"/>
<path d="M182.647 98.3236H175.62V105.351H182.647V98.3236Z" fill="white"/>
<path d="M189.674 98.3236H182.647V105.351H189.674V98.3236Z" fill="white"/>
<path d="M203.728 98.3236H196.701V105.351H203.728V98.3236Z" fill="white"/>
<path d="M210.755 98.3236H203.728V105.351H210.755V98.3236Z" fill="white"/>
<path d="M224.809 98.3236H217.782V105.351H224.809V98.3236Z" fill="white"/>
<path d="M238.863 98.3236H231.836V105.351H238.863V98.3236Z" fill="white"/>
<path d="M245.89 98.3236H238.863V105.351H245.89V98.3236Z" fill="white"/>
<path d="M21.027 105.351H14V112.378H21.027V105.351Z" fill="white"/>
<path d="M28.0538 105.351H21.0269V112.378H28.0538V105.351Z" fill="white"/>
<path d="M35.0807 105.351H28.0537V112.378H35.0807V105.351Z" fill="white"/>
<path d="M56.1617 105.351H49.1348V112.378H56.1617V105.351Z" fill="white"/>
<path d="M70.2159 105.351H63.189V112.378H70.2159V105.351Z" fill="white"/>
<path d="M84.2696 105.351H77.2427V112.378H84.2696V105.351Z" fill="white"/>
<path d="M182.647 105.351H175.62V112.378H182.647V105.351Z" fill="white"/>
<path d="M196.701 105.351H189.674V112.378H196.701V105.351Z" fill="white"/>
<path d="M210.755 105.351H203.728V112.378H210.755V105.351Z" fill="white"/>
<path d="M224.809 105.351H217.782V112.378H224.809V105.351Z" fill="white"/>
<path d="M238.863 105.351H231.836V112.378H238.863V105.351Z" fill="white"/>
<path d="M21.027 112.378H14V119.405H21.027V112.378Z" fill="white"/>
<path d="M28.0538 112.378H21.0269V119.405H28.0538V112.378Z" fill="white"/>
<path d="M42.108 112.378H35.0811V119.405H42.108V112.378Z" fill="white"/>
<path d="M63.1886 112.378H56.1616V119.405H63.1886V112.378Z" fill="white"/>
<path d="M77.2428 112.378H70.2158V119.405H77.2428V112.378Z" fill="white"/>
<path d="M91.2965 112.378H84.2695V119.405H91.2965V112.378Z" fill="white"/>
<path d="M189.674 112.378H182.647V119.405H189.674V112.378Z" fill="white"/>
<path d="M203.728 112.378H196.701V119.405H203.728V112.378Z" fill="white"/>
<path d="M224.809 112.378H217.782V119.405H224.809V112.378Z" fill="white"/>
<path d="M35.0807 119.405H28.0537V126.432H35.0807V119.405Z" fill="white"/>
<path d="M49.1349 119.405H42.1079V126.432H49.1349V119.405Z" fill="white"/>
<path d="M56.1617 119.405H49.1348V126.432H56.1617V119.405Z" fill="white"/>
<path d="M70.2159 119.405H63.189V126.432H70.2159V119.405Z" fill="white"/>
<path d="M84.2696 119.405H77.2427V126.432H84.2696V119.405Z" fill="white"/>
<path d="M196.701 119.405H189.674V126.432H196.701V119.405Z" fill="white"/>
<path d="M210.755 119.405H203.728V126.432H210.755V119.405Z" fill="white"/>
<path d="M217.782 119.405H210.755V126.432H217.782V119.405Z" fill="white"/>
<path d="M224.809 119.405H217.782V126.432H224.809V119.405Z" fill="white"/>
<path d="M231.836 119.405H224.809V126.432H231.836V119.405Z" fill="white"/>
<path d="M245.89 119.405H238.863V126.432H245.89V119.405Z" fill="white"/>
<path d="M35.0807 126.432H28.0537V133.458H35.0807V126.432Z" fill="white"/>
<path d="M49.1349 126.432H42.1079V133.458H49.1349V126.432Z" fill="white"/>
<path d="M56.1617 126.432H49.1348V133.458H56.1617V126.432Z" fill="white"/>
<path d="M63.1886 126.432H56.1616V133.458H63.1886V126.432Z" fill="white"/>
<path d="M70.2159 126.432H63.189V133.458H70.2159V126.432Z" fill="white"/>
<path d="M196.701 126.432H189.674V133.458H196.701V126.432Z" fill="white"/>
<path d="M203.728 126.432H196.701V133.458H203.728V126.432Z" fill="white"/>
<path d="M210.755 126.432H203.728V133.458H210.755V126.432Z" fill="white"/>
<path d="M217.782 126.432H210.755V133.458H217.782V126.432Z" fill="white"/>
<path d="M224.809 126.432H217.782V133.458H224.809V126.432Z" fill="white"/>
<path d="M231.836 126.432H224.809V133.458H231.836V126.432Z" fill="white"/>
<path d="M245.89 126.432H238.863V133.458H245.89V126.432Z" fill="white"/>
<path d="M21.027 133.458H14V140.485H21.027V133.458Z" fill="white"/>
<path d="M35.0807 133.458H28.0537V140.485H35.0807V133.458Z" fill="white"/>
<path d="M49.1349 133.458H42.1079V140.485H49.1349V133.458Z" fill="white"/>
<path d="M70.2159 133.458H63.189V140.485H70.2159V133.458Z" fill="white"/>
<path d="M77.2428 133.458H70.2158V140.485H77.2428V133.458Z" fill="white"/>
<path d="M175.62 133.458H168.593V140.485H175.62V133.458Z" fill="white"/>
<path d="M189.674 133.458H182.647V140.485H189.674V133.458Z" fill="white"/>
<path d="M196.701 133.458H189.674V140.485H196.701V133.458Z" fill="white"/>
<path d="M203.728 133.458H196.701V140.485H203.728V133.458Z" fill="white"/>
<path d="M217.782 133.458H210.755V140.485H217.782V133.458Z" fill="white"/>
<path d="M224.809 133.458H217.782V140.485H224.809V133.458Z" fill="white"/>
<path d="M245.89 133.458H238.863V140.485H245.89V133.458Z" fill="white"/>
<path d="M35.0807 140.485H28.0537V147.512H35.0807V140.485Z" fill="white"/>
<path d="M63.1886 140.485H56.1616V147.512H63.1886V140.485Z" fill="white"/>
<path d="M70.2159 140.485H63.189V147.512H70.2159V140.485Z" fill="white"/>
<path d="M77.2428 140.485H70.2158V147.512H77.2428V140.485Z" fill="white"/>
<path d="M182.647 140.485H175.62V147.512H182.647V140.485Z" fill="white"/>
<path d="M224.809 140.485H217.782V147.512H224.809V140.485Z" fill="white"/>
<path d="M231.836 140.485H224.809V147.512H231.836V140.485Z" fill="white"/>
<path d="M238.863 140.485H231.836V147.512H238.863V140.485Z" fill="white"/>
<path d="M245.89 140.485H238.863V147.512H245.89V140.485Z" fill="white"/>
<path d="M28.0538 147.512H21.0269V154.539H28.0538V147.512Z" fill="white"/>
<path d="M35.0807 147.512H28.0537V154.539H35.0807V147.512Z" fill="white"/>
<path d="M42.108 147.512H35.0811V154.539H42.108V147.512Z" fill="white"/>
<path d="M49.1349 147.512H42.1079V154.539H49.1349V147.512Z" fill="white"/>
<path d="M84.2696 147.512H77.2427V154.539H84.2696V147.512Z" fill="white"/>
<path d="M182.647 147.512H175.62V154.539H182.647V147.512Z" fill="white"/>
<path d="M189.674 147.512H182.647V154.539H189.674V147.512Z" fill="white"/>
<path d="M210.755 147.512H203.728V154.539H210.755V147.512Z" fill="white"/>
<path d="M217.782 147.512H210.755V154.539H217.782V147.512Z" fill="white"/>
<path d="M224.809 147.512H217.782V154.539H224.809V147.512Z" fill="white"/>
<path d="M231.836 147.512H224.809V154.539H231.836V147.512Z" fill="white"/>
<path d="M35.0807 154.539H28.0537V161.566H35.0807V154.539Z" fill="white"/>
<path d="M63.1886 154.539H56.1616V161.566H63.1886V154.539Z" fill="white"/>
<path d="M70.2159 154.539H63.189V161.566H70.2159V154.539Z" fill="white"/>
<path d="M77.2428 154.539H70.2158V161.566H77.2428V154.539Z" fill="white"/>
<path d="M84.2696 154.539H77.2427V161.566H84.2696V154.539Z" fill="white"/>
<path d="M189.674 154.539H182.647V161.566H189.674V154.539Z" fill="white"/>
<path d="M224.809 154.539H217.782V161.566H224.809V154.539Z" fill="white"/>
<path d="M238.863 154.539H231.836V161.566H238.863V154.539Z" fill="white"/>
<path d="M21.027 161.566H14V168.593H21.027V161.566Z" fill="white"/>
<path d="M28.0538 161.566H21.0269V168.593H28.0538V161.566Z" fill="white"/>
<path d="M42.108 161.566H35.0811V168.593H42.108V161.566Z" fill="white"/>
<path d="M56.1617 161.566H49.1348V168.593H56.1617V161.566Z" fill="white"/>
<path d="M84.2696 161.566H77.2427V168.593H84.2696V161.566Z" fill="white"/>
<path d="M196.701 161.566H189.674V168.593H196.701V161.566Z" fill="white"/>
<path d="M210.755 161.566H203.728V168.593H210.755V161.566Z" fill="white"/>
<path d="M217.782 161.566H210.755V168.593H217.782V161.566Z" fill="white"/>
<path d="M224.809 161.566H217.782V168.593H224.809V161.566Z" fill="white"/>
<path d="M231.836 161.566H224.809V168.593H231.836V161.566Z" fill="white"/>
<path d="M21.027 168.593H14V175.62H21.027V168.593Z" fill="white"/>
<path d="M35.0807 168.593H28.0537V175.62H35.0807V168.593Z" fill="white"/>
<path d="M49.1349 168.593H42.1079V175.62H49.1349V168.593Z" fill="white"/>
<path d="M63.1886 168.593H56.1616V175.62H63.1886V168.593Z" fill="white"/>
<path d="M70.2159 168.593H63.189V175.62H70.2159V168.593Z" fill="white"/>
<path d="M84.2696 168.593H77.2427V175.62H84.2696V168.593Z" fill="white"/>
<path d="M91.2965 168.593H84.2695V175.62H91.2965V168.593Z" fill="white"/>
<path d="M105.351 168.593H98.3237V175.62H105.351V168.593Z" fill="white"/>
<path d="M147.512 168.593H140.485V175.62H147.512V168.593Z" fill="white"/>
<path d="M154.539 168.593H147.512V175.62H154.539V168.593Z" fill="white"/>
<path d="M168.593 168.593H161.566V175.62H168.593V168.593Z" fill="white"/>
<path d="M175.62 168.593H168.593V175.62H175.62V168.593Z" fill="white"/>
<path d="M182.647 168.593H175.62V175.62H182.647V168.593Z" fill="white"/>
<path d="M189.674 168.593H182.647V175.62H189.674V168.593Z" fill="white"/>
<path d="M203.728 168.593H196.701V175.62H203.728V168.593Z" fill="white"/>
<path d="M210.755 168.593H203.728V175.62H210.755V168.593Z" fill="white"/>
<path d="M217.782 168.593H210.755V175.62H217.782V168.593Z" fill="white"/>
<path d="M231.836 168.593H224.809V175.62H231.836V168.593Z" fill="white"/>
<path d="M245.89 168.593H238.863V175.62H245.89V168.593Z" fill="white"/>
<path d="M21.027 175.62H14V182.647H21.027V175.62Z" fill="white"/>
<path d="M35.0807 175.62H28.0537V182.647H35.0807V175.62Z" fill="white"/>
<path d="M42.108 175.62H35.0811V182.647H42.108V175.62Z" fill="white"/>
<path d="M49.1349 175.62H42.1079V182.647H49.1349V175.62Z" fill="white"/>
<path d="M70.2159 175.62H63.189V182.647H70.2159V175.62Z" fill="white"/>
<path d="M77.2428 175.62H70.2158V182.647H77.2428V175.62Z" fill="white"/>
<path d="M98.3238 175.62H91.2969V182.647H98.3238V175.62Z" fill="white"/>
<path d="M105.351 175.62H98.3237V182.647H105.351V175.62Z" fill="white"/>
<path d="M112.378 175.62H105.351V182.647H112.378V175.62Z" fill="white"/>
<path d="M119.404 175.62H112.377V182.647H119.404V175.62Z" fill="white"/>
<path d="M133.459 175.62H126.432V182.647H133.459V175.62Z" fill="white"/>
<path d="M140.485 175.62H133.458V182.647H140.485V175.62Z" fill="white"/>
<path d="M147.512 175.62H140.485V182.647H147.512V175.62Z" fill="white"/>
<path d="M161.567 175.62H154.54V182.647H161.567V175.62Z" fill="white"/>
<path d="M189.674 175.62H182.647V182.647H189.674V175.62Z" fill="white"/>
<path d="M210.755 175.62H203.728V182.647H210.755V175.62Z" fill="white"/>
<path d="M231.836 175.62H224.809V182.647H231.836V175.62Z" fill="white"/>
<path d="M238.863 175.62H231.836V182.647H238.863V175.62Z" fill="white"/>
<path d="M21.027 182.647H14V189.674H21.027V182.647Z" fill="white"/>
<path d="M28.0538 182.647H21.0269V189.674H28.0538V182.647Z" fill="white"/>
<path d="M42.108 182.647H35.0811V189.674H42.108V182.647Z" fill="white"/>
<path d="M49.1349 182.647H42.1079V189.674H49.1349V182.647Z" fill="white"/>
<path d="M63.1886 182.647H56.1616V189.674H63.1886V182.647Z" fill="white"/>
<path d="M77.2428 182.647H70.2158V189.674H77.2428V182.647Z" fill="white"/>
<path d="M84.2696 182.647H77.2427V189.674H84.2696V182.647Z" fill="white"/>
<path d="M119.404 182.647H112.377V189.674H119.404V182.647Z" fill="white"/>
<path d="M126.432 182.647H119.405V189.674H126.432V182.647Z" fill="white"/>
<path d="M133.459 182.647H126.432V189.674H133.459V182.647Z" fill="white"/>
<path d="M140.485 182.647H133.458V189.674H140.485V182.647Z" fill="white"/>
<path d="M154.539 182.647H147.512V189.674H154.539V182.647Z" fill="white"/>
<path d="M182.647 182.647H175.62V189.674H182.647V182.647Z" fill="white"/>
<path d="M189.674 182.647H182.647V189.674H189.674V182.647Z" fill="white"/>
<path d="M196.701 182.647H189.674V189.674H196.701V182.647Z" fill="white"/>
<path d="M203.728 182.647H196.701V189.674H203.728V182.647Z" fill="white"/>
<path d="M210.755 182.647H203.728V189.674H210.755V182.647Z" fill="white"/>
<path d="M217.782 182.647H210.755V189.674H217.782V182.647Z" fill="white"/>
<path d="M224.809 182.647H217.782V189.674H224.809V182.647Z" fill="white"/>
<path d="M238.863 182.647H231.836V189.674H238.863V182.647Z" fill="white"/>
<path d="M77.2428 189.674H70.2158V196.701H77.2428V189.674Z" fill="white"/>
<path d="M84.2696 189.674H77.2427V196.701H84.2696V189.674Z" fill="white"/>
<path d="M98.3238 189.674H91.2969V196.701H98.3238V189.674Z" fill="white"/>
<path d="M105.351 189.674H98.3237V196.701H105.351V189.674Z" fill="white"/>
<path d="M112.378 189.674H105.351V196.701H112.378V189.674Z" fill="white"/>
<path d="M119.404 189.674H112.377V196.701H119.404V189.674Z" fill="white"/>
<path d="M133.459 189.674H126.432V196.701H133.459V189.674Z" fill="white"/>
<path d="M140.485 189.674H133.458V196.701H140.485V189.674Z" fill="white"/>
<path d="M161.567 189.674H154.54V196.701H161.567V189.674Z" fill="white"/>
<path d="M175.62 189.674H168.593V196.701H175.62V189.674Z" fill="white"/>
<path d="M189.674 189.674H182.647V196.701H189.674V189.674Z" fill="white"/>
<path d="M217.782 189.674H210.755V196.701H217.782V189.674Z" fill="white"/>
<path d="M77.2428 196.701H70.2158V203.728H77.2428V196.701Z" fill="white"/>
<path d="M84.2696 196.701H77.2427V203.728H84.2696V196.701Z" fill="white"/>
<path d="M91.2965 196.701H84.2695V203.728H91.2965V196.701Z" fill="white"/>
<path d="M154.539 196.701H147.512V203.728H154.539V196.701Z" fill="white"/>
<path d="M168.593 196.701H161.566V203.728H168.593V196.701Z" fill="white"/>
<path d="M175.62 196.701H168.593V203.728H175.62V196.701Z" fill="white"/>
<path d="M182.647 196.701H175.62V203.728H182.647V196.701Z" fill="white"/>
<path d="M189.674 196.701H182.647V203.728H189.674V196.701Z" fill="white"/>
<path d="M203.728 196.701H196.701V203.728H203.728V196.701Z" fill="white"/>
<path d="M217.782 196.701H210.755V203.728H217.782V196.701Z" fill="white"/>
<path d="M224.809 196.701H217.782V203.728H224.809V196.701Z" fill="white"/>
<path d="M231.836 196.701H224.809V203.728H231.836V196.701Z" fill="white"/>
<path d="M84.2696 203.728H77.2427V210.755H84.2696V203.728Z" fill="white"/>
<path d="M105.351 203.728H98.3237V210.755H105.351V203.728Z" fill="white"/>
<path d="M112.378 203.728H105.351V210.755H112.378V203.728Z" fill="white"/>
<path d="M126.432 203.728H119.405V210.755H126.432V203.728Z" fill="white"/>
<path d="M133.459 203.728H126.432V210.755H133.459V203.728Z" fill="white"/>
<path d="M140.485 203.728H133.458V210.755H140.485V203.728Z" fill="white"/>
<path d="M161.567 203.728H154.54V210.755H161.567V203.728Z" fill="white"/>
<path d="M182.647 203.728H175.62V210.755H182.647V203.728Z" fill="white"/>
<path d="M189.674 203.728H182.647V210.755H189.674V203.728Z" fill="white"/>
<path d="M217.782 203.728H210.755V210.755H217.782V203.728Z" fill="white"/>
<path d="M224.809 203.728H217.782V210.755H224.809V203.728Z" fill="white"/>
<path d="M231.836 203.728H224.809V210.755H231.836V203.728Z" fill="white"/>
<path d="M238.863 203.728H231.836V210.755H238.863V203.728Z" fill="white"/>
<path d="M77.2428 210.755H70.2158V217.782H77.2428V210.755Z" fill="white"/>
<path d="M84.2696 210.755H77.2427V217.782H84.2696V210.755Z" fill="white"/>
<path d="M91.2965 210.755H84.2695V217.782H91.2965V210.755Z" fill="white"/>
<path d="M98.3238 210.755H91.2969V217.782H98.3238V210.755Z" fill="white"/>
<path d="M119.404 210.755H112.377V217.782H119.404V210.755Z" fill="white"/>
<path d="M126.432 210.755H119.405V217.782H126.432V210.755Z" fill="white"/>
<path d="M133.459 210.755H126.432V217.782H133.459V210.755Z" fill="white"/>
<path d="M147.512 210.755H140.485V217.782H147.512V210.755Z" fill="white"/>
<path d="M168.593 210.755H161.566V217.782H168.593V210.755Z" fill="white"/>
<path d="M182.647 210.755H175.62V217.782H182.647V210.755Z" fill="white"/>
<path d="M189.674 210.755H182.647V217.782H189.674V210.755Z" fill="white"/>
<path d="M196.701 210.755H189.674V217.782H196.701V210.755Z" fill="white"/>
<path d="M203.728 210.755H196.701V217.782H203.728V210.755Z" fill="white"/>
<path d="M210.755 210.755H203.728V217.782H210.755V210.755Z" fill="white"/>
<path d="M217.782 210.755H210.755V217.782H217.782V210.755Z" fill="white"/>
<path d="M224.809 210.755H217.782V217.782H224.809V210.755Z" fill="white"/>
<path d="M238.863 210.755H231.836V217.782H238.863V210.755Z" fill="white"/>
<path d="M77.2428 217.782H70.2158V224.809H77.2428V217.782Z" fill="white"/>
<path d="M84.2696 217.782H77.2427V224.809H84.2696V217.782Z" fill="white"/>
<path d="M98.3238 217.782H91.2969V224.809H98.3238V217.782Z" fill="white"/>
<path d="M133.459 217.782H126.432V224.809H133.459V217.782Z" fill="white"/>
<path d="M182.647 217.782H175.62V224.809H182.647V217.782Z" fill="white"/>
<path d="M189.674 217.782H182.647V224.809H189.674V217.782Z" fill="white"/>
<path d="M196.701 217.782H189.674V224.809H196.701V217.782Z" fill="white"/>
<path d="M210.755 217.782H203.728V224.809H210.755V217.782Z" fill="white"/>
<path d="M224.809 217.782H217.782V224.809H224.809V217.782Z" fill="white"/>
<path d="M245.89 217.782H238.863V224.809H245.89V217.782Z" fill="white"/>
<path d="M84.2696 224.809H77.2427V231.836H84.2696V224.809Z" fill="white"/>
<path d="M98.3238 224.809H91.2969V231.836H98.3238V224.809Z" fill="white"/>
<path d="M126.432 224.809H119.405V231.836H126.432V224.809Z" fill="white"/>
<path d="M133.459 224.809H126.432V231.836H133.459V224.809Z" fill="white"/>
<path d="M140.485 224.809H133.458V231.836H140.485V224.809Z" fill="white"/>
<path d="M161.567 224.809H154.54V231.836H161.567V224.809Z" fill="white"/>
<path d="M168.593 224.809H161.566V231.836H168.593V224.809Z" fill="white"/>
<path d="M189.674 224.809H182.647V231.836H189.674V224.809Z" fill="white"/>
<path d="M217.782 224.809H210.755V231.836H217.782V224.809Z" fill="white"/>
<path d="M231.836 224.809H224.809V231.836H231.836V224.809Z" fill="white"/>
<path d="M238.863 224.809H231.836V231.836H238.863V224.809Z" fill="white"/>
<path d="M245.89 224.809H238.863V231.836H245.89V224.809Z" fill="white"/>
<path d="M84.2696 231.836H77.2427V238.863H84.2696V231.836Z" fill="white"/>
<path d="M98.3238 231.836H91.2969V238.863H98.3238V231.836Z" fill="white"/>
<path d="M105.351 231.836H98.3237V238.863H105.351V231.836Z" fill="white"/>
<path d="M112.378 231.836H105.351V238.863H112.378V231.836Z" fill="white"/>
<path d="M119.404 231.836H112.377V238.863H119.404V231.836Z" fill="white"/>
<path d="M126.432 231.836H119.405V238.863H126.432V231.836Z" fill="white"/>
<path d="M133.459 231.836H126.432V238.863H133.459V231.836Z" fill="white"/>
<path d="M140.485 231.836H133.458V238.863H140.485V231.836Z" fill="white"/>
<path d="M175.62 231.836H168.593V238.863H175.62V231.836Z" fill="white"/>
<path d="M196.701 231.836H189.674V238.863H196.701V231.836Z" fill="white"/>
<path d="M203.728 231.836H196.701V238.863H203.728V231.836Z" fill="white"/>
<path d="M224.809 231.836H217.782V238.863H224.809V231.836Z" fill="white"/>
<path d="M231.836 231.836H224.809V238.863H231.836V231.836Z" fill="white"/>
<path d="M238.863 231.836H231.836V238.863H238.863V231.836Z" fill="white"/>
<path d="M245.89 231.836H238.863V238.863H245.89V231.836Z" fill="white"/>
<path d="M84.2696 238.863H77.2427V245.89H84.2696V238.863Z" fill="white"/>
<path d="M126.432 238.863H119.405V245.89H126.432V238.863Z" fill="white"/>
<path d="M140.485 238.863H133.458V245.89H140.485V238.863Z" fill="white"/>
<path d="M168.593 238.863H161.566V245.89H168.593V238.863Z" fill="white"/>
<path d="M175.62 238.863H168.593V245.89H175.62V238.863Z" fill="white"/>
<path d="M182.647 238.863H175.62V245.89H182.647V238.863Z" fill="white"/>
<path d="M189.674 238.863H182.647V245.89H189.674V238.863Z" fill="white"/>
<path d="M217.782 238.863H210.755V245.89H217.782V238.863Z" fill="white"/>
<path d="M63.1888 14V30.7935V46.3952C63.1888 50.5719 63.1888 63.1888 63.1888 63.1888C63.1888 63.1888 51.6097 63.1888 46.5876 63.1888H14L14.0098 30.7935C14.0098 21.5357 21.457 14 30.616 14H46.5876H63.1888ZM55.8105 21.3783H30.616C25.5279 21.3783 21.3882 25.6017 21.3882 30.7955L21.3803 55.8105H55.8105V21.3783Z" fill="white"/>
<path d="M196.701 14V30.7935V46.3952C196.701 50.5719 196.701 63.1888 196.701 63.1888C196.701 63.1888 208.28 63.1888 213.303 63.1888H245.89L245.88 30.7935C245.88 21.5357 238.433 14 229.274 14H213.303H196.701ZM204.08 21.3783H229.274C234.362 21.3783 238.502 25.6017 238.502 30.7955L238.51 55.8105H204.08V21.3783Z" fill="white"/>
<path d="M63.1888 245.89V229.096V213.495C63.1888 209.318 63.1888 196.701 63.1888 196.701C63.1888 196.701 51.6097 196.701 46.5876 196.701H14L14.0098 229.096C14.0098 238.354 21.457 245.89 30.616 245.89H46.5876H63.1888ZM55.8105 238.512H30.616C25.5279 238.512 21.3882 234.288 21.3882 229.095L21.3803 204.08H55.8105V238.512Z" fill="white"/>
<path d="M49.1346 28.054H28.0537V49.1349H49.1346V28.054Z" fill="white"/>
<path d="M231.836 28.054H210.755V49.1349H231.836V28.054Z" fill="white"/>
<path d="M49.1346 210.755H28.0537V231.836H49.1346V210.755Z" fill="white"/>
</g>
</g>
<defs>
<filter id="filter0_d_282_3226" x="-4" y="0" width="268" height="268" filterUnits="userSpaceOnUse" color-interpolation-filters="sRGB">
<feFlood flood-opacity="0" result="BackgroundImageFix"/>
<feColorMatrix in="SourceAlpha" type="matrix" values="0 0 0 0 0 0 0 0 0 0 0 0 0 0 0 0 0 0 127 0" result="hardAlpha"/>
<feOffset dy="4"/>
<feGaussianBlur stdDeviation="2"/>
<feComposite in2="hardAlpha" operator="out"/>
<feColorMatrix type="matrix" values="0 0 0 0 0 0 0 0 0 0 0 0 0 0 0 0 0 0 0.25 0"/>
<feBlend mode="normal" in2="BackgroundImageFix" result="effect1_dropShadow_282_3226"/>
<feBlend mode="normal" in="SourceGraphic" in2="effect1_dropShadow_282_3226" result="shape"/>
</filter>
<linearGradient id="paint0_linear_282_3226" x1="137.997" y1="139.568" x2="150.743" y2="125.213" gradientUnits="userSpaceOnUse">
<stop stop-color="#4B31B0"/>
<stop offset="0.09" stop-color="#5D41C3"/>
<stop offset="0.21" stop-color="#7152D7"/>
<stop offset="0.34" stop-color="#7C5CE3"/>
<stop offset="0.46" stop-color="#805FE7"/>
<stop offset="0.55" stop-color="#8065E8"/>
<stop offset="0.67" stop-color="#7F76EC"/>
<stop offset="0.81" stop-color="#7E93F3"/>
<stop offset="0.95" stop-color="#7CBAFC"/>
<stop offset="1" stop-color="#7BC8FF"/>
</linearGradient>
<linearGradient id="paint1_linear_282_3226" x1="145.131" y1="140.155" x2="163.752" y2="119.185" gradientUnits="userSpaceOnUse">
<stop stop-color="#4B31B0"/>
<stop offset="0.09" stop-color="#5D41C3"/>
<stop offset="0.21" stop-color="#7152D7"/>
<stop offset="0.34" stop-color="#7C5CE3"/>
<stop offset="0.46" stop-color="#805FE7"/>
<stop offset="0.55" stop-color="#8065E8"/>
<stop offset="0.67" stop-color="#7F76EC"/>
<stop offset="0.81" stop-color="#7E93F3"/>
<stop offset="0.95" stop-color="#7CBAFC"/>
<stop offset="1" stop-color="#7BC8FF"/>
</linearGradient>
<linearGradient id="paint2_linear_282_3226" x1="130.528" y1="114.824" x2="143.544" y2="100.165" gradientUnits="userSpaceOnUse">
<stop stop-color="#4B31B0"/>
<stop offset="0.09" stop-color="#5D41C3"/>
<stop offset="0.21" stop-color="#7152D7"/>
<stop offset="0.34" stop-color="#7C5CE3"/>
<stop offset="0.46" stop-color="#805FE7"/>
<stop offset="0.55" stop-color="#8065E8"/>
<stop offset="0.67" stop-color="#7F76EC"/>
<stop offset="0.81" stop-color="#7E93F3"/>
<stop offset="0.95" stop-color="#7CBAFC"/>
<stop offset="1" stop-color="#7BC8FF"/>
</linearGradient>
<linearGradient id="paint3_linear_282_3226" x1="117.815" y1="121.116" x2="130.831" y2="106.456" gradientUnits="userSpaceOnUse">
<stop stop-color="#4B31B0"/>
<stop offset="0.09" stop-color="#5D41C3"/>
<stop offset="0.21" stop-color="#7152D7"/>
<stop offset="0.34" stop-color="#7C5CE3"/>
<stop offset="0.46" stop-color="#805FE7"/>
<stop offset="0.55" stop-color="#8065E8"/>
<stop offset="0.67" stop-color="#7F76EC"/>
<stop offset="0.81" stop-color="#7E93F3"/>
<stop offset="0.95" stop-color="#7CBAFC"/>
<stop offset="1" stop-color="#7BC8FF"/>
</linearGradient>
<linearGradient id="paint4_linear_282_3226" x1="108.713" y1="131.436" x2="121.459" y2="117.082" gradientUnits="userSpaceOnUse">
<stop stop-color="#4B31B0"/>
<stop offset="0.09" stop-color="#5D41C3"/>
<stop offset="0.21" stop-color="#7152D7"/>
<stop offset="0.34" stop-color="#7C5CE3"/>
<stop offset="0.46" stop-color="#805FE7"/>
<stop offset="0.61" stop-color="#8069E7"/>
<stop offset="0.85" stop-color="#8082E6"/>
<stop offset="1" stop-color="#8095E6"/>
</linearGradient>
<linearGradient id="paint5_linear_282_3226" x1="95.2758" y1="136.067" x2="113.897" y2="115.097" gradientUnits="userSpaceOnUse">
<stop stop-color="#4B31B0"/>
<stop offset="0.09" stop-color="#5D41C3"/>
<stop offset="0.21" stop-color="#7152D7"/>
<stop offset="0.34" stop-color="#7C5CE3"/>
<stop offset="0.46" stop-color="#805FE7"/>
<stop offset="0.61" stop-color="#8069E7"/>
<stop offset="0.85" stop-color="#8082E6"/>
<stop offset="1" stop-color="#8095E6"/>
</linearGradient>
<linearGradient id="paint6_linear_282_3226" x1="116.293" y1="156.087" x2="129.309" y2="141.427" gradientUnits="userSpaceOnUse">
<stop stop-color="#4B31B0"/>
<stop offset="0.09" stop-color="#5D41C3"/>
<stop offset="0.21" stop-color="#7152D7"/>
<stop offset="0.34" stop-color="#7C5CE3"/>
<stop offset="0.46" stop-color="#805FE7"/>
<stop offset="0.61" stop-color="#8069E7"/>
<stop offset="0.85" stop-color="#8082E6"/>
<stop offset="1" stop-color="#8095E6"/>
</linearGradient>
<linearGradient id="paint7_linear_282_3226" x1="128.062" y1="150.575" x2="141.082" y2="135.915" gradientUnits="userSpaceOnUse">
<stop stop-color="#4B31B0"/>
<stop offset="0.09" stop-color="#5D41C3"/>
<stop offset="0.21" stop-color="#7152D7"/>
<stop offset="0.34" stop-color="#7C5CE3"/>
<stop offset="0.46" stop-color="#805FE7"/>
<stop offset="0.61" stop-color="#8069E7"/>
<stop offset="0.85" stop-color="#8082E6"/>
<stop offset="1" stop-color="#8095E6"/>
</linearGradient>
<clipPath id="clip0_282_3226">
<rect width="260" height="260" fill="white"/>
</clipPath>
</defs>
</svg>
