<svg width="239" height="53" viewBox="0 0 239 53" fill="none" xmlns="http://www.w3.org/2000/svg">
<path d="M76.5619 21.6147C75.4193 21.4197 74.193 21.2944 72.897 21.2944C70.737 21.2944 68.8419 21.5729 67.1139 22.1161V35.8491H60.8152V16.1689H62.3899L64.522 17.4224C67.0442 16.0435 69.8452 15.375 73.2593 15.375C74.4856 15.375 75.5865 15.4864 76.5619 15.6536V21.6147Z" fill="white"/>
<path d="M90.3867 36.6568C81.5657 36.6568 79.1271 32.2417 79.1271 26.8098V25.236C79.1271 19.8041 81.5657 15.3889 90.3867 15.3889H91.4875C100.462 15.3889 102.315 18.2302 102.315 21.6843V22.0743C102.315 25.222 101.368 27.9798 91.5293 27.9798C89.1604 27.9798 87.1955 27.7848 85.4257 27.2694C85.5372 29.5118 86.3315 30.9325 91.5711 30.9325C94.0516 30.9325 98.037 30.5425 100.754 29.7486V35.654C98.037 36.2808 94.1352 36.6429 91.1391 36.6429H90.3867V36.6568ZM85.6208 23.0771C87.1537 23.4671 88.8538 23.6621 91.1391 23.6621C95.7517 23.6621 96.0164 22.8682 96.0164 22.1718C96.0164 21.4197 95.7795 20.3194 91.5293 20.3194C87.3488 20.3194 86.011 21.2943 85.6208 23.0771Z" fill="white"/>
<path d="M107.832 16.1828L109.964 17.4363C112.486 16.0575 115.287 15.3889 118.701 15.3889C127.522 15.3889 129.961 19.8041 129.961 25.236V35.863H123.662V26.0159C123.662 23.4532 123.662 21.0994 118.339 21.0994C116.179 21.0994 114.284 21.4197 112.556 21.9629V35.863H106.257V16.1828H107.832Z" fill="white"/>
<path d="M140.007 16.183H146.069V21.6985H140.007V27.9939C140.007 29.7209 140.161 30.7516 143.714 30.7516C144.94 30.7516 146.348 30.6402 147.379 30.3199V36.0721C146.32 36.3507 144.898 36.4621 143.435 36.4621C136.342 36.4621 133.709 33.7043 133.709 28.7878V8.31372H135.283L140.007 11.0715V16.183Z" fill="white"/>
<path d="M174.427 35.863H172.853L170.721 34.6373C168.087 36.0162 165.286 36.6429 161.663 36.6429C153.162 36.6429 150.71 33.537 150.71 30.0272V29.6372C150.71 26.3363 153.343 23.6203 161.537 23.6203C164.171 23.6203 166.261 23.8571 168.115 24.3724C168.031 22.2833 167.488 21.0994 162.29 21.0994C159.489 21.0994 155.587 21.4894 152.87 22.2833V16.3778C155.587 15.751 159.489 15.3889 162.485 15.3889C171.264 15.3889 174.413 18.4252 174.413 24.0521V35.863H174.427ZM168.129 30.9046V29.0522C166.359 28.5787 164.38 28.3419 161.941 28.3419C157.259 28.3419 157.022 29.289 157.022 30.069C157.022 31.0161 157.343 31.7264 162.346 31.7264C164.464 31.7264 166.359 31.4617 168.129 30.9046Z" fill="white"/>
<path d="M180.143 6.33594L184.867 9.09368V35.8631H178.568V6.33594H180.143Z" fill="white"/>
<path d="M189.005 9.28865C189.005 7.67301 189.757 6.33594 192.391 6.33594H192.711C195.345 6.33594 196.098 7.67301 196.098 9.28865V9.76219C196.098 11.3778 195.345 12.7149 192.711 12.7149H192.391C189.757 12.7149 189.005 11.3778 189.005 9.76219V9.28865ZM190.984 16.183L195.708 18.9407V35.8631H189.409V16.183H190.984Z" fill="white"/>
<path d="M206.147 16.183H212.209V21.6985H206.147V27.9939C206.147 29.7209 206.3 30.7516 209.854 30.7516C211.08 30.7516 212.487 30.6402 213.518 30.3199V36.0721C212.459 36.3507 211.038 36.4621 209.575 36.4621C202.482 36.4621 199.848 33.7043 199.848 28.7878V8.31372H201.423L206.147 11.0715V16.183Z" fill="white"/>
<path d="M229.735 38.0358C227.686 42.6459 225.791 45.71 220.551 45.71C219.534 45.71 218.182 45.5986 217.249 45.3201V39.735C218.155 39.93 219.492 40.0135 220.287 40.0135C222.893 40.0135 223.394 38.9968 224.23 37.2558L224.509 36.5873L215.103 17.7706V16.1968H221.011L227.268 29.7765L232.786 16.1968H238.695V17.7706L229.735 38.0358Z" fill="white"/>
<path d="M35.1897 19.1912L28.9189 22.8124C28.9607 30.9741 28.9886 35.055 28.9886 35.055C30.4935 36.0996 32.8486 37.5481 35.2594 38.5649C35.2733 38.1192 35.2594 37.6596 35.2594 37.1582L35.1897 19.1912Z" fill="url(#paint0_linear_117_258)"/>
<path d="M44.6647 32.2556L44.6926 21.2943L44.6647 13.7314L38.2825 17.4084L38.3382 29.6371C38.3521 32.5342 38.5612 36.434 38.1152 39.512C39.4948 39.8324 40.7908 39.8742 41.8359 39.4703C43.8983 38.7042 44.8738 36.2111 44.6647 32.2556Z" fill="url(#paint1_linear_117_258)"/>
<path d="M13.546 3.35512C19.6356 -0.266141 21.5447 -1.44999 27.6762 2.29662C38.0996 8.3692 43.3114 11.4055 43.3114 11.4055C39.0333 13.8428 36.8873 15.0546 36.8873 15.0546C32.0936 12.2551 28.5541 10.1937 26.2687 8.85666C22.4644 6.64212 16.8765 2.85371 13.546 3.35512Z" fill="url(#paint2_linear_117_258)"/>
<path d="M4.07043 8.81486C10.1601 5.1936 12.0692 4.00971 18.2006 7.75633C28.6241 13.8289 33.8358 16.8513 33.8358 16.8513C29.5578 19.2886 27.4118 20.5004 27.4118 20.5004C22.6181 17.7009 19.0786 15.6395 16.7932 14.3025C12.9889 12.1019 7.40093 8.32738 4.07043 8.81486Z" fill="url(#paint3_linear_117_258)"/>
<path d="M9.49463 32.896L15.7654 29.2747C15.7236 21.1129 15.6958 17.032 15.6958 17.032C14.1908 15.9874 11.8357 14.539 9.42496 13.5222C9.41102 13.9679 9.42496 14.4275 9.42496 14.9289L9.49463 32.896Z" fill="url(#paint4_linear_117_258)"/>
<path d="M0.0308626 19.8318L0.00299175 30.7931L0.0308626 38.356L6.41314 34.679L6.3574 22.4503C6.34347 19.5533 6.13444 15.6535 6.58036 12.5754C5.20079 12.2551 3.90482 12.2133 2.85969 12.6172C0.797292 13.3972 -0.192099 15.8763 0.0308626 19.8318Z" fill="url(#paint5_linear_117_258)"/>
<path d="M31.1474 48.7461C25.0578 52.3674 23.1487 53.5512 17.0172 49.8046C6.59375 43.732 1.38202 40.6957 1.38202 40.6957C5.6601 38.2584 7.80611 37.0466 7.80611 37.0466C12.5998 39.8461 16.1393 41.9075 18.4247 43.2446C22.229 45.4591 27.8169 49.2336 31.1474 48.7461Z" fill="url(#paint6_linear_117_258)"/>
<path d="M40.6088 43.2724C34.5191 46.8937 32.61 48.0776 26.4786 44.331C16.0551 38.2584 10.8434 35.236 10.8434 35.236C15.1215 32.7986 17.2675 31.5869 17.2675 31.5869C22.0612 34.3864 25.6007 36.4477 27.886 37.7848C31.6903 39.9854 37.2783 43.7599 40.6088 43.2724Z" fill="url(#paint7_linear_117_258)"/>
<defs>
<linearGradient id="paint0_linear_117_258" x1="28.3024" y1="34.3538" x2="39.4421" y2="23.5905" gradientUnits="userSpaceOnUse">
<stop stop-color="#4B31B1"/>
<stop offset="0.0886" stop-color="#5D41C4"/>
<stop offset="0.214" stop-color="#7152D8"/>
<stop offset="0.3396" stop-color="#7C5CE4"/>
<stop offset="0.4649" stop-color="#805FE8"/>
<stop offset="0.5515" stop-color="#8065E9"/>
<stop offset="0.6688" stop-color="#7F76ED"/>
<stop offset="0.8036" stop-color="#7E93F3"/>
<stop offset="0.9506" stop-color="#7CBAFC"/>
<stop offset="1" stop-color="#7BC9FF"/>
</linearGradient>
<linearGradient id="paint1_linear_117_258" x1="33.6163" y1="34.8632" x2="49.8884" y2="19.1412" gradientUnits="userSpaceOnUse">
<stop stop-color="#4B31B1"/>
<stop offset="0.0886" stop-color="#5D41C4"/>
<stop offset="0.214" stop-color="#7152D8"/>
<stop offset="0.3396" stop-color="#7C5CE4"/>
<stop offset="0.4649" stop-color="#805FE8"/>
<stop offset="0.5515" stop-color="#8065E9"/>
<stop offset="0.6688" stop-color="#7F76ED"/>
<stop offset="0.8036" stop-color="#7E93F3"/>
<stop offset="0.9506" stop-color="#7CBAFC"/>
<stop offset="1" stop-color="#7BC9FF"/>
</linearGradient>
<linearGradient id="paint2_linear_117_258" x1="22.7363" y1="12.8668" x2="34.1115" y2="1.8764" gradientUnits="userSpaceOnUse">
<stop stop-color="#4B31B1"/>
<stop offset="0.0886" stop-color="#5D41C4"/>
<stop offset="0.214" stop-color="#7152D8"/>
<stop offset="0.3396" stop-color="#7C5CE4"/>
<stop offset="0.4649" stop-color="#805FE8"/>
<stop offset="0.5515" stop-color="#8065E9"/>
<stop offset="0.6688" stop-color="#7F76ED"/>
<stop offset="0.8036" stop-color="#7E93F3"/>
<stop offset="0.9506" stop-color="#7CBAFC"/>
<stop offset="1" stop-color="#7BC9FF"/>
</linearGradient>
<linearGradient id="paint3_linear_117_258" x1="13.2673" y1="18.331" x2="24.6439" y2="7.33915" gradientUnits="userSpaceOnUse">
<stop stop-color="#4B31B1"/>
<stop offset="0.0886" stop-color="#5D41C4"/>
<stop offset="0.214" stop-color="#7152D8"/>
<stop offset="0.3396" stop-color="#7C5CE4"/>
<stop offset="0.4649" stop-color="#805FE8"/>
<stop offset="0.5515" stop-color="#8065E9"/>
<stop offset="0.6688" stop-color="#7F76ED"/>
<stop offset="0.8036" stop-color="#7E93F3"/>
<stop offset="0.9506" stop-color="#7CBAFC"/>
<stop offset="1" stop-color="#7BC9FF"/>
</linearGradient>
<linearGradient id="paint4_linear_117_258" x1="6.49036" y1="27.2926" x2="17.6303" y2="16.5295" gradientUnits="userSpaceOnUse">
<stop stop-color="#4B31B1"/>
<stop offset="0.0886" stop-color="#5D41C4"/>
<stop offset="0.214" stop-color="#7152D8"/>
<stop offset="0.3396" stop-color="#7C5CE4"/>
<stop offset="0.4649" stop-color="#805FE8"/>
<stop offset="0.6084" stop-color="#8069E8"/>
<stop offset="0.8475" stop-color="#8082E7"/>
<stop offset="1" stop-color="#8096E7"/>
</linearGradient>
<linearGradient id="paint5_linear_117_258" x1="-3.51966" y1="31.3136" x2="12.7525" y2="15.5917" gradientUnits="userSpaceOnUse">
<stop stop-color="#4B31B1"/>
<stop offset="0.0886" stop-color="#5D41C4"/>
<stop offset="0.214" stop-color="#7152D8"/>
<stop offset="0.3396" stop-color="#7C5CE4"/>
<stop offset="0.4649" stop-color="#805FE8"/>
<stop offset="0.6084" stop-color="#8069E8"/>
<stop offset="0.8475" stop-color="#8082E7"/>
<stop offset="1" stop-color="#8096E7"/>
</linearGradient>
<linearGradient id="paint6_linear_117_258" x1="12.1353" y1="48.6989" x2="23.5105" y2="37.7085" gradientUnits="userSpaceOnUse">
<stop stop-color="#4B31B1"/>
<stop offset="0.0886" stop-color="#5D41C4"/>
<stop offset="0.214" stop-color="#7152D8"/>
<stop offset="0.3396" stop-color="#7C5CE4"/>
<stop offset="0.4649" stop-color="#805FE8"/>
<stop offset="0.6084" stop-color="#8069E8"/>
<stop offset="0.8475" stop-color="#8082E7"/>
<stop offset="1" stop-color="#8096E7"/>
</linearGradient>
<linearGradient id="paint7_linear_117_258" x1="20.9012" y1="43.9131" x2="32.2777" y2="32.9213" gradientUnits="userSpaceOnUse">
<stop stop-color="#4B31B1"/>
<stop offset="0.0886" stop-color="#5D41C4"/>
<stop offset="0.214" stop-color="#7152D8"/>
<stop offset="0.3396" stop-color="#7C5CE4"/>
<stop offset="0.4649" stop-color="#805FE8"/>
<stop offset="0.6084" stop-color="#8069E8"/>
<stop offset="0.8475" stop-color="#8082E7"/>
<stop offset="1" stop-color="#8096E7"/>
</linearGradient>
</defs>
</svg>
