<svg width="64" height="64" viewBox="0 0 64 64" fill="none" xmlns="http://www.w3.org/2000/svg">
<g clip-path="url(#clip0_117_281)">
<path fill-rule="evenodd" clip-rule="evenodd" d="M52.7386 11.8132C53.3976 11.5359 54.1189 11.4402 54.8274 11.5362C55.5359 11.6322 56.2057 11.9164 56.7671 12.3591C57.3286 12.8018 57.7611 13.3869 58.0196 14.0535C58.2782 14.72 58.3533 15.4437 58.2373 16.1492L52.1893 52.8346C51.6026 56.3732 47.72 58.4026 44.4746 56.6399C41.76 55.1652 37.728 52.8932 34.1013 50.5226C32.288 49.3359 26.7333 45.5359 27.416 42.8319C28.0026 40.5199 37.336 31.8319 42.6693 26.6666C44.7626 24.6372 43.808 23.4666 41.336 25.3332C35.1973 29.9679 25.3413 37.0159 22.0826 38.9999C19.208 40.7492 17.7093 41.0479 15.9173 40.7492C12.648 40.2052 9.61597 39.3626 7.1413 38.3359C3.7973 36.9492 3.95997 32.3519 7.13864 31.0132L52.7386 11.8132Z" fill="white"/>
</g>
<defs>
<clipPath id="clip0_117_281">
<rect width="64" height="64" fill="white"/>
</clipPath>
</defs>
</svg>
