<svg width="24" height="24" viewBox="0 0 24 24" fill="none" xmlns="http://www.w3.org/2000/svg">
<mask id="mask0_2_176" style="mask-type:luminance" maskUnits="userSpaceOnUse" x="2" y="4" width="20" height="16">
<path d="M3 5H21V18.9437H3V5Z" fill="white"/>
<path fill-rule="evenodd" clip-rule="evenodd" d="M2.5 4.5H21.5V19.4437H2.5V4.5ZM3.5 5.5V18.4437H20.5V5.5H3.5Z" fill="white"/>
</mask>
<g mask="url(#mask0_2_176)">
<path fill-rule="evenodd" clip-rule="evenodd" d="M14.6614 4.61302C14.5478 4.59278 14.4301 4.60829 14.325 4.65835L14.54 5.10978L14.3263 4.65773C14.2219 4.70707 14.1351 4.78789 14.0785 4.88945C13.9705 5.08157 13.8568 5.30758 13.7555 5.52423C12.5783 5.3788 11.4056 5.37837 10.2462 5.52349C10.1407 5.30238 10.0231 5.07725 9.91578 4.88727L9.91249 4.88154C9.85603 4.78462 9.77141 4.70655 9.66923 4.65819M14.6614 4.61302C15.9666 4.83894 17.2369 5.23283 18.4409 5.78488C18.5409 5.82895 18.6251 5.90197 18.6829 5.99425C20.7707 9.07012 21.807 12.5542 21.4202 16.5565L21.4201 16.5576C21.4124 16.6354 21.3886 16.709 21.3523 16.7744L21.3508 16.777C21.3117 16.8464 21.2589 16.9054 21.1971 16.9513L21.1951 16.9528C19.6062 18.1197 18.0637 18.8298 16.545 19.2995L16.544 19.2998C16.4288 19.3352 16.3094 19.3309 16.2029 19.2951C16.0924 19.258 15.9966 19.1871 15.9286 19.093C15.6337 18.6838 15.3639 18.2568 15.1207 17.8151C13.0775 18.4447 10.9512 18.4403 8.87825 17.8047C8.6345 18.2548 8.36005 18.6854 8.05901 19.0965L8.05434 19.1029C7.98499 19.1945 7.88989 19.2614 7.78308 19.2964C7.676 19.3315 7.55951 19.3338 7.44941 19.3009L7.44402 19.2993C5.93291 18.8297 4.39057 18.1196 2.80185 16.9528L2.79406 16.9471L2.7865 16.9411C2.67042 16.8487 2.59483 16.7137 2.5777 16.5649L2.57647 16.5542C2.25306 13.0902 2.91592 9.57434 5.31624 5.98702C5.37378 5.89946 5.45517 5.82971 5.55127 5.78633C6.7568 5.23269 8.0292 4.83813 9.33648 4.61259L9.34201 4.61163C9.45302 4.59376 9.56723 4.60994 9.66923 4.65819M8.91367 16.8815C8.91334 16.8812 8.913 16.8808 8.91266 16.8805L8.56412 17.239L8.91551 16.8833C8.9149 16.8827 8.91429 16.8821 8.91367 16.8815ZM7.90194 17.5033C7.55321 17.3498 7.2169 17.1776 6.8911 16.9908L7.36804 16.1121C10.4167 17.6762 13.6649 17.6732 16.6173 16.1148L17.1029 16.9888C16.7761 17.1796 16.4386 17.3511 16.092 17.5025C16.2373 17.7561 16.3921 18.0041 16.5563 18.2458C17.8283 17.8237 19.116 17.2123 20.4427 16.2631C20.7501 12.6314 19.8078 9.469 17.9152 6.64449C16.9187 6.19758 15.8747 5.866 14.8033 5.65602C14.7 5.85987 14.5981 6.07984 14.5189 6.26595L14.3675 6.62209L13.9847 6.56477C12.6498 6.36487 11.3239 6.3651 10.0193 6.56454L9.63248 6.62369L9.48213 6.26237C9.40511 6.07726 9.30099 5.85986 9.19465 5.6554C8.12226 5.865 7.07722 6.19682 6.08 6.6445C3.91652 9.92356 3.29695 13.1094 3.55495 16.2636C4.88166 17.2128 6.16935 17.8242 7.4363 18.2463C7.60218 18.005 7.75765 17.7574 7.90194 17.5033ZM14.4841 5.59717L14.4887 5.59799C14.4871 5.59773 14.4856 5.59745 14.4841 5.59717Z" fill="white"/>
</g>
<path fill-rule="evenodd" clip-rule="evenodd" d="M9.11775 11.35C8.54692 11.35 8 11.883 8 12.6642C8 13.4425 8.55839 13.9784 9.11775 13.9784C9.68844 13.9784 10.2353 13.4455 10.2353 12.6642V12.6571L10.2354 12.6571C10.2463 11.8926 9.69889 11.35 9.11775 11.35ZM7 12.6642C7 11.4455 7.88642 10.35 9.11775 10.35C10.3516 10.35 11.251 11.4481 11.2353 12.6678C11.2336 13.885 10.3478 14.9784 9.11775 14.9784C7.90321 14.9784 7 13.8859 7 12.6642ZM15.0988 11.35C14.528 11.35 13.9811 11.8829 13.9811 12.6642C13.9811 13.4425 14.5395 13.9784 15.0988 13.9784C15.6753 13.9784 16.2165 13.447 16.2165 12.6642V12.6571L16.2165 12.6571C16.2274 11.8927 15.6799 11.35 15.0988 11.35ZM12.9811 12.6642C12.9811 11.4455 13.8674 10.35 15.0988 10.35C16.3327 10.35 17.232 11.4481 17.2164 12.6678C17.2147 13.8836 16.3373 14.9784 15.0988 14.9784C13.8842 14.9784 12.9811 13.8859 12.9811 12.6642Z" fill="white"/>
</svg>
