<svg width="24" height="24" viewBox="0 0 24 24" fill="none" xmlns="http://www.w3.org/2000/svg">
<path d="M16.9563 7.78266C17.4017 7.78266 17.7627 7.42166 17.7627 6.97633C17.7627 6.53101 17.4017 6.17 16.9563 6.17C16.511 6.17 16.15 6.53101 16.15 6.97633C16.15 7.42166 16.511 7.78266 16.9563 7.78266Z" fill="white"/>
<path fill-rule="evenodd" clip-rule="evenodd" d="M3 8.09998C3 5.28335 5.28288 3 8.09961 3H15.9004C18.7171 3 21 5.28335 21 8.09998V15.9C21 18.7167 18.7167 21 15.9 21H8.09998C5.2833 21 3 18.7167 3 15.9V8.09998ZM8.09961 4.08495C5.88219 4.08495 4.08495 5.88244 4.08495 8.09998V15.9C4.08495 18.1175 5.8825 19.9151 8.09998 19.9151H15.9C18.1175 19.9151 19.9151 18.1175 19.9151 15.9V8.09998C19.9151 5.88244 18.1178 4.08495 15.9004 4.08495H8.09961Z" fill="white"/>
<path fill-rule="evenodd" clip-rule="evenodd" d="M12 8.45946C10.0446 8.45946 8.45946 10.0446 8.45946 12C8.45946 13.9554 10.0446 15.5405 12 15.5405C13.9554 15.5405 15.5405 13.9554 15.5405 12C15.5405 10.0446 13.9554 8.45946 12 8.45946ZM7.37451 12C7.37451 9.44542 9.44542 7.37451 12 7.37451C14.5546 7.37451 16.6255 9.44542 16.6255 12C16.6255 14.5546 14.5546 16.6255 12 16.6255C9.44542 16.6255 7.37451 14.5546 7.37451 12Z" fill="white"/>
<path fill-rule="evenodd" clip-rule="evenodd" d="M16.9578 6.83204C16.8418 6.83204 16.7477 6.92611 16.7477 7.04216C16.7477 7.1582 16.8418 7.25228 16.9578 7.25228C17.0739 7.25228 17.168 7.1582 17.168 7.04216C17.168 6.92611 17.0739 6.83204 16.9578 6.83204ZM17.8327 7.04216C17.8327 7.52531 17.441 7.91699 16.9578 7.91699C16.4747 7.91699 16.083 7.52531 16.083 7.04216C16.083 6.559 16.4747 6.16733 16.9578 6.16733C17.441 6.16733 17.8327 6.559 17.8327 7.04216Z" fill="white"/>
</svg>
