<svg width="24" height="24" viewBox="0 0 24 24" fill="none" xmlns="http://www.w3.org/2000/svg">
<path fill-rule="evenodd" clip-rule="evenodd" d="M7.17 5.80349C6.60667 5.80349 6.15 6.26016 6.15 6.82349C6.15 7.38682 6.60667 7.84349 7.17 7.84349C7.73333 7.84349 8.19 7.38682 8.19 6.82349C8.19 6.26016 7.73333 5.80349 7.17 5.80349ZM5.3 6.82349C5.3 5.79072 6.13723 4.95349 7.17 4.95349C8.20277 4.95349 9.04 5.79072 9.04 6.82349C9.04 7.85626 8.20277 8.69349 7.17 8.69349C6.13723 8.69349 5.3 7.85626 5.3 6.82349Z" fill="white"/>
<path fill-rule="evenodd" clip-rule="evenodd" d="M14.9624 9.30359C15.8165 9.30612 16.7053 9.57068 17.3862 10.2062C18.0782 10.8522 18.5 11.8296 18.5 13.1436L18.5 13.1456L18.48 18.0056C18.4789 18.2809 18.2553 18.5035 17.98 18.5035H15.48C15.2039 18.5035 14.98 18.2797 14.98 18.0035V13.7185C14.98 13.1588 14.8484 12.8544 14.7091 12.6951C14.5788 12.5459 14.3846 12.4586 14.095 12.4586H14.0253C13.7293 12.4917 13.4569 12.6376 13.2652 12.8663C13.069 13.1005 12.973 13.4028 12.9983 13.7072C12.9994 13.721 13 13.7347 13 13.7485V18.0035C13 18.2797 12.7761 18.5035 12.5 18.5035H9.99999C9.72385 18.5035 9.49999 18.2797 9.49999 18.0035V10.0036C9.49999 9.72742 9.72385 9.50357 9.99999 9.50357H12.35C12.6028 9.50357 12.8117 9.69119 12.8453 9.93478C12.9845 9.83419 13.1317 9.74411 13.2857 9.66556C13.8038 9.4014 14.3817 9.2767 14.9624 9.30359ZM11.85 10.5036H10.5V17.5035H12V13.7679C11.9593 13.2083 12.138 12.6545 12.4987 12.224C12.8642 11.7879 13.387 11.5136 13.9535 11.4608C13.969 11.4593 13.9845 11.4586 14 11.4586H14.095C14.6004 11.4586 15.0987 11.6212 15.4621 12.0371C15.8166 12.4427 15.98 13.0182 15.98 13.7185V17.5035H17.4821L17.5 13.1436V13.1425C17.4998 12.0521 17.1566 11.3599 16.7038 10.9372C16.243 10.5071 15.6121 10.3036 14.95 10.3036C14.9417 10.3036 14.9333 10.3034 14.925 10.3029C14.5146 10.2824 14.106 10.3698 13.74 10.5564C13.374 10.743 13.0632 11.0224 12.8389 11.3666C12.7466 11.5082 12.589 11.5936 12.42 11.5936H12.35C12.0738 11.5936 11.85 11.3697 11.85 11.0936V10.5036ZM5.5 10.0036C5.5 9.72742 5.72386 9.50357 6 9.50357H8.49999C8.77613 9.50357 8.99999 9.72742 8.99999 10.0036V18.0035C8.99999 18.2797 8.77613 18.5035 8.49999 18.5035H6C5.72386 18.5035 5.5 18.2797 5.5 18.0035V10.0036ZM6.5 10.5036V17.5035H7.99999V10.5036H6.5Z" fill="white"/>
<path fill-rule="evenodd" clip-rule="evenodd" d="M3 4.5C3 3.67157 3.67157 3 4.5 3H19.5C20.3284 3 21 3.67157 21 4.5V19.5C21 20.3284 20.3284 21 19.5 21H4.5C3.67157 21 3 20.3284 3 19.5V4.5ZM4.5 4C4.22386 4 4 4.22386 4 4.5V19.5C4 19.7761 4.22386 20 4.5 20H19.5C19.7761 20 20 19.7761 20 19.5V4.5C20 4.22386 19.7761 4 19.5 4H4.5Z" fill="white"/>
</svg>
