<svg width="29" height="29" viewBox="0 0 29 29" fill="none" xmlns="http://www.w3.org/2000/svg">
<path d="M27.9997 5.60431C26.9887 6.05345 25.9162 6.34822 24.8181 6.47883C25.9619 5.79148 26.8402 4.70304 27.2537 3.40617C26.1664 4.05308 24.9767 4.50888 23.7362 4.7539C22.7257 3.67455 21.2862 3 19.6929 3C16.6336 3 14.1533 5.48672 14.1533 8.55377C14.1533 8.98913 14.2024 9.41296 14.2968 9.81955C9.69306 9.58786 5.61142 7.37682 2.87925 4.01664C2.40253 4.83691 2.12937 5.79106 2.12937 6.80875C2.12937 8.73566 3.10738 10.4355 4.59365 11.4315C3.71398 11.404 2.85366 11.1658 2.08455 10.7368C2.08427 10.7601 2.08416 10.7834 2.08423 10.8067C2.08423 13.4976 3.99364 15.7424 6.52763 16.2526C5.71191 16.475 4.8563 16.5075 4.02612 16.3478C4.73097 18.5543 6.77675 20.1599 9.20063 20.2048C7.30483 21.6944 4.91628 22.5823 2.32111 22.5823C1.87393 22.5823 1.43307 22.556 0.999695 22.5047C3.4511 24.0805 6.36278 25 9.49098 25C19.68 25 25.2516 16.5371 25.2516 9.19787C25.2516 8.95698 25.2463 8.71747 25.2356 8.47933C26.32 7.69321 27.256 6.71966 27.9997 5.60431Z" fill="#55ACEE" fill-opacity="0.25"/>
</svg>
