<svg width="28" height="29" viewBox="0 0 28 29" fill="none" xmlns="http://www.w3.org/2000/svg">
<g clip-path="url(#clip0_3123_536)">
<path d="M14 0.5C10.2878 0.5 6.72437 1.97591 4.10156 4.60047C1.47606 7.22609 0.000751294 10.7869 0 14.5C0 18.2115 1.47656 21.775 4.10156 24.3995C6.72437 27.0241 10.2878 28.5 14 28.5C17.7122 28.5 21.2756 27.0241 23.8984 24.3995C26.5234 21.775 28 18.2115 28 14.5C28 10.7885 26.5234 7.22503 23.8984 4.60047C21.2756 1.97591 17.7122 0.5 14 0.5Z" fill="url(#paint0_linear_3123_536)" fill-opacity="0.25"/>
<path d="M6.33717 14.3521C10.419 12.5741 13.1403 11.4018 14.5009 10.8354C18.3903 9.21821 19.1975 8.93733 19.7247 8.92782C19.8406 8.92596 20.0987 8.95461 20.2672 9.09079C20.4072 9.20563 20.4465 9.36094 20.4662 9.46999C20.4837 9.57893 20.5078 9.82721 20.4881 10.021C20.2781 12.2348 19.3659 17.6068 18.9022 20.0864C18.7075 21.1355 18.3203 21.4872 17.9462 21.5216C17.1325 21.5964 16.5156 20.9843 15.7281 20.4683C14.4965 19.6605 13.8009 19.1578 12.6044 18.3696C11.2219 17.4587 12.1187 16.958 12.9062 16.1399C13.1119 15.9257 16.695 12.6675 16.7628 12.3719C16.7715 12.335 16.7803 12.1971 16.6972 12.1245C16.6162 12.0517 16.4959 12.0766 16.4084 12.0963C16.2837 12.1243 14.3172 13.4254 10.5022 15.9995C9.94436 16.3831 9.43905 16.5702 8.98405 16.5603C8.4853 16.5496 7.5228 16.2777 6.80748 16.0454C5.93248 15.7604 5.23467 15.6096 5.29592 15.1256C5.32655 14.8736 5.67436 14.6156 6.33717 14.3521Z" fill="white"/>
</g>
<defs>
<linearGradient id="paint0_linear_3123_536" x1="1400" y1="0.5" x2="1400" y2="2800.5" gradientUnits="userSpaceOnUse">
<stop stop-color="#2AABEE"/>
<stop offset="1" stop-color="#229ED9"/>
</linearGradient>
<clipPath id="clip0_3123_536">
<rect width="28" height="28" fill="white" transform="translate(0 0.5)"/>
</clipPath>
</defs>
</svg>
