<svg width="29" height="29" viewBox="0 0 29 29" fill="none" xmlns="http://www.w3.org/2000/svg">
<g clip-path="url(#clip0_3123_542)">
<path d="M21.7708 0.5H6.89578C3.27141 0.5 0.333282 3.43813 0.333282 7.0625V21.9375C0.333282 25.5619 3.27141 28.5 6.89578 28.5H21.7708C25.3952 28.5 28.3333 25.5619 28.3333 21.9375V7.0625C28.3333 3.43813 25.3952 0.5 21.7708 0.5Z" fill="#5865F2"/>
<mask id="mask0_3123_542" style="mask-type:luminance" maskUnits="userSpaceOnUse" x="3" y="6" width="23" height="18">
<path d="M3.39578 6.07812H25.2708V23.0236H3.39578V6.07812Z" fill="white"/>
</mask>
<g mask="url(#mask0_3123_542)">
<path d="M21.9138 7.58726C20.4956 6.93633 18.9989 6.4721 17.4613 6.20618C17.4473 6.20363 17.4329 6.20553 17.4201 6.21161C17.4072 6.2177 17.3966 6.22766 17.3898 6.24009C17.1975 6.58199 16.9844 7.02824 16.8353 7.3789C15.1539 7.12712 13.4812 7.12712 11.8344 7.3789C11.6852 7.02037 11.4645 6.58199 11.2713 6.24009C11.2642 6.22786 11.2536 6.21807 11.2408 6.21202C11.228 6.20597 11.2137 6.20393 11.1997 6.20618C9.66189 6.4715 8.16515 6.93576 6.74714 7.58726C6.73506 7.59251 6.72485 7.60128 6.71782 7.61242C3.88195 11.8492 3.10517 15.9818 3.48623 20.0632C3.48855 20.0834 3.49878 20.1018 3.51467 20.1144C5.38564 21.4885 7.19809 22.3227 8.97685 22.8756C8.99069 22.8797 9.00545 22.8795 9.01917 22.875C9.03288 22.8705 9.0449 22.8619 9.05364 22.8504C9.4744 22.2758 9.84945 21.6699 10.1711 21.0328C10.1755 21.0241 10.1781 21.0145 10.1785 21.0048C10.179 20.995 10.1774 20.9852 10.1738 20.9761C10.1702 20.967 10.1647 20.9588 10.1577 20.9519C10.1507 20.9451 10.1424 20.9398 10.1332 20.9365C9.53817 20.7107 8.97171 20.4356 8.42681 20.1232C8.41688 20.1173 8.40855 20.1091 8.40254 20.0993C8.39653 20.0895 8.39303 20.0783 8.39235 20.0668C8.39167 20.0553 8.39383 20.0438 8.39864 20.0334C8.40344 20.0229 8.41075 20.0138 8.41992 20.0068C8.53488 19.9209 8.64785 19.8323 8.75876 19.7412C8.76848 19.7332 8.78024 19.7281 8.79272 19.7264C8.8052 19.7247 8.81791 19.7265 8.82942 19.7316C12.4095 21.3661 16.2852 21.3661 19.8229 19.7316C19.8345 19.7262 19.8473 19.7241 19.86 19.7257C19.8727 19.7272 19.8847 19.7323 19.8946 19.7404C20.0056 19.8319 20.1189 19.9208 20.2343 20.0068C20.2435 20.0137 20.2509 20.0228 20.2557 20.0332C20.2606 20.0436 20.2629 20.0551 20.2623 20.0666C20.2617 20.0781 20.2583 20.0892 20.2523 20.0991C20.2464 20.109 20.2381 20.1172 20.2283 20.1232C19.6831 20.4415 19.1119 20.7133 18.521 20.9356C18.5119 20.9391 18.5036 20.9446 18.4966 20.9515C18.4897 20.9585 18.4843 20.9668 18.4808 20.976C18.4773 20.9851 18.4758 20.9949 18.4763 21.0047C18.4769 21.0145 18.4795 21.0241 18.4839 21.0328C18.8112 21.6649 19.1843 22.2721 19.6004 22.8496C19.609 22.8613 19.6209 22.8702 19.6347 22.8748C19.6484 22.8795 19.6633 22.8798 19.6772 22.8756C21.4646 22.3227 23.2771 21.4885 25.1482 20.1144C25.1562 20.1085 25.1628 20.1009 25.1677 20.0923C25.1726 20.0836 25.1757 20.074 25.1766 20.0641C25.6327 15.3456 24.4126 11.2467 21.9423 7.61329C21.9363 7.60145 21.9262 7.5922 21.9138 7.58726ZM10.7057 17.5781C9.62785 17.5781 8.73973 16.5886 8.73973 15.3733C8.73973 14.1581 9.61068 13.1686 10.7057 13.1686C11.8093 13.1686 12.6888 14.1668 12.6715 15.3733C12.6715 16.5886 11.8007 17.5781 10.7057 17.5781ZM17.9744 17.5781C16.8965 17.5781 16.0085 16.5886 16.0085 15.3733C16.0085 14.1581 16.8793 13.1686 17.9744 13.1686C19.078 13.1686 19.9574 14.1668 19.9403 15.3733C19.9403 16.5886 19.078 17.5781 17.9744 17.5781Z" fill="white"/>
</g>
</g>
<defs>
<clipPath id="clip0_3123_542">
<rect width="28" height="28" fill="white" transform="translate(0.333282 0.5)"/>
</clipPath>
</defs>
</svg>
