<svg width="24" height="24" viewBox="0 0 24 24" fill="none" xmlns="http://www.w3.org/2000/svg">
<path fill-rule="evenodd" clip-rule="evenodd" d="M7.33921 7.93023C4.9042 7.93023 2.93023 9.9042 2.93023 12.3392C2.93023 14.7742 4.9042 16.7482 7.33921 16.7482C9.77422 16.7482 11.7482 14.7742 11.7482 12.3392C11.7482 9.9042 9.77422 7.93023 7.33921 7.93023ZM2 12.3392C2 9.39045 4.39045 7 7.33921 7C10.288 7 12.6784 9.39045 12.6784 12.3392C12.6784 15.288 10.288 17.6784 7.33921 17.6784C4.39044 17.6784 2 15.288 2 12.3392Z" fill="white"/>
<path fill-rule="evenodd" clip-rule="evenodd" d="M14.6669 9.09084C14.2868 9.89813 14.0391 11.0461 14.0391 12.3392C14.0391 13.6323 14.2868 14.7803 14.6669 15.5876C15.0642 16.4313 15.521 16.7482 15.8689 16.7482C16.2168 16.7482 16.6736 16.4313 17.0708 15.5876C17.4509 14.7803 17.6987 13.6323 17.6987 12.3392C17.6987 11.0461 17.4509 9.89813 17.0708 9.09084C16.6736 8.24716 16.2168 7.93023 15.8689 7.93023C15.521 7.93023 15.0642 8.24716 14.6669 9.09084ZM13.8253 8.69457C14.2587 7.77418 14.9493 7 15.8689 7C16.7885 7 17.4791 7.77418 17.9125 8.69457C18.3629 9.65136 18.6289 10.9404 18.6289 12.3392C18.6289 13.738 18.3629 15.0271 17.9125 15.9838C17.4791 16.9042 16.7885 17.6784 15.8689 17.6784C14.9493 17.6784 14.2587 16.9042 13.8253 15.9838C13.3748 15.0271 13.1088 13.738 13.1088 12.3392C13.1088 10.9404 13.3748 9.65136 13.8253 8.69457Z" fill="white"/>
<path fill-rule="evenodd" clip-rule="evenodd" d="M20.2744 8.98665C20.1006 9.82946 19.9896 11.015 19.9896 12.3392C19.9896 13.6634 20.1006 14.849 20.2744 15.6918C20.3539 16.0774 20.4426 16.3711 20.5297 16.5686C20.6167 16.3711 20.7054 16.0774 20.7849 15.6918C20.9588 14.849 21.0698 13.6634 21.0698 12.3392C21.0698 11.015 20.9588 9.82946 20.7849 8.98665C20.7054 8.60107 20.6167 8.30735 20.5297 8.10985C20.4426 8.30735 20.3539 8.60107 20.2744 8.98665ZM19.9995 7.23397C20.1177 7.11671 20.2964 7 20.5297 7C20.7629 7 20.9417 7.11671 21.0599 7.23397C21.1767 7.34988 21.267 7.4966 21.339 7.6443C21.484 7.94166 21.6018 8.34195 21.696 8.79876C21.886 9.72002 22 10.9715 22 12.3392C22 13.7069 21.886 14.9584 21.696 15.8797C21.6018 16.3365 21.484 16.7368 21.339 17.0341C21.267 17.1818 21.1767 17.3285 21.0599 17.4444C20.9417 17.5617 20.7629 17.6784 20.5297 17.6784C20.2964 17.6784 20.1177 17.5617 19.9995 17.4444C19.8827 17.3285 19.7924 17.1818 19.7203 17.0341C19.5753 16.7368 19.4576 16.3365 19.3634 15.8797C19.1734 14.9584 19.0593 13.7069 19.0593 12.3392C19.0593 10.9715 19.1734 9.72002 19.3634 8.79876C19.4576 8.34195 19.5753 7.94166 19.7203 7.6443C19.7924 7.4966 19.8827 7.34988 19.9995 7.23397Z" fill="white"/>
</svg>
