<svg width="24" height="24" viewBox="0 0 24 24" fill="none" xmlns="http://www.w3.org/2000/svg">
<mask id="path-1-inside-1_2_274" fill="white">
<path fill-rule="evenodd" clip-rule="evenodd" d="M5 9.69421C5 5.9971 8.19691 3 12.1405 3C16.0841 3 19.281 5.9971 19.281 9.69422V21H5V9.69422C5 9.69422 5 9.69421 5 9.69421Z"/>
</mask>
<path d="M5 9.69421L4 9.69421V9.69421H5ZM19.281 21V22H20.281V21H19.281ZM5 21H4V22H5V21ZM6 9.69421C6 6.6092 8.68742 4 12.1405 4V2C7.7064 2 4 5.385 4 9.69421L6 9.69421ZM12.1405 4C15.5936 4 18.281 6.6092 18.281 9.69422H20.281C20.281 5.385 16.5746 2 12.1405 2V4ZM18.281 9.69422V21H20.281V9.69422H18.281ZM19.281 20H5V22H19.281V20ZM6 21V9.69422H4V21H6ZM6 9.69422C6 9.69422 6 9.69422 6 9.69422C6 9.69422 6 9.69422 6 9.69422C6 9.69422 6 9.69422 6 9.69422V9.69422V9.69422C6 9.69422 6 9.69422 6 9.69422C6 9.69421 6 9.69421 6 9.69421C6 9.69421 6 9.69421 6 9.69421C6 9.69421 6 9.69421 6 9.69421V9.69421V9.69421C6 9.69421 6 9.69421 6 9.69421C6 9.69421 6 9.69421 6 9.69421C6 9.69421 6 9.69421 6 9.69421H4C4 9.69421 4 9.69421 4 9.69421C4 9.69421 4 9.69421 4 9.69421C4 9.69421 4 9.69421 4 9.69421V9.69421V9.69421C4 9.69421 4 9.69421 4 9.69421C4 9.69421 4 9.69421 4 9.69421C4 9.69421 4 9.69421 4 9.69422C4 9.69422 4 9.69422 4 9.69422V9.69422V9.69422C4 9.69422 4 9.69422 4 9.69422C4 9.69422 4 9.69422 4 9.69422C4 9.69422 4 9.69422 4 9.69422H6Z" fill="white" mask="url(#path-1-inside-1_2_274)"/>
</svg>
