<svg width="24" height="24" viewBox="0 0 24 24" fill="none" xmlns="http://www.w3.org/2000/svg">
<path fill-rule="evenodd" clip-rule="evenodd" d="M19.6633 4.00068C19.672 4.00023 19.6806 4 19.6893 4C20.1211 4 20.534 4.19598 20.7805 4.5924C21.0184 4.9751 21.0563 5.46977 20.9261 6.00311L18.213 18.7903C18.213 18.7906 18.2129 18.791 18.2128 18.7913C18.1039 19.3129 17.8618 19.7853 17.3934 19.9967C16.9265 20.2074 16.4197 20.0749 15.9814 19.8304C15.9629 19.8201 15.945 19.8086 15.9279 19.796L9.45369 15.0145C9.36569 14.9505 9.29395 14.8667 9.24426 14.7699C9.19388 14.6717 9.16761 14.563 9.16761 14.4527C9.16761 14.3424 9.19388 14.2336 9.24426 14.1355C9.28904 14.0482 9.35173 13.9716 9.42807 13.9105L13.6899 10.0617L7.58339 13.7129C7.49393 13.7691 7.39323 13.805 7.28832 13.8181C7.1817 13.8314 7.07347 13.8209 6.97149 13.7872L2.99564 12.5299C2.73358 12.4529 2.48926 12.3375 2.3057 12.1667C2.11154 11.9862 1.97223 11.7261 2.00471 11.4156C2.03505 11.1255 2.20554 10.8946 2.39718 10.7262C2.59248 10.5546 2.85132 10.4093 3.15538 10.288L3.16076 10.2858L3.16077 10.2859L19.0896 4.14182C19.2701 4.05892 19.4648 4.011 19.6633 4.00068ZM17.5607 7.91366L10.3452 14.4297L16.4949 18.9715C16.7974 19.1342 16.9382 19.105 16.9821 19.0852C17.0255 19.0656 17.1532 18.9741 17.2341 18.5862L17.2345 18.5845L19.9495 5.7878L19.9532 5.77154C20.0443 5.40311 19.984 5.20522 19.9313 5.12042C19.8874 5.04986 19.8172 5.00333 19.702 5.00017C19.632 5.00546 19.5635 5.02361 19.5001 5.05378C19.4887 5.05918 19.4771 5.06415 19.4654 5.06868L3.52344 11.2178C3.28651 11.3126 3.13923 11.4054 3.05734 11.4773C3.05604 11.4785 3.05476 11.4796 3.05351 11.4807C3.10183 11.508 3.17503 11.5406 3.28102 11.5714L3.29202 11.5746L3.29198 11.5748L7.16326 12.799L16.7419 7.07184C16.8607 6.99955 16.9683 6.93963 17.059 6.89682C17.1039 6.87567 17.1546 6.85392 17.2065 6.83735L17.2082 6.83682C17.24 6.82666 17.3522 6.79077 17.4845 6.8109C17.5629 6.82283 17.7106 6.86475 17.8201 7.01001C17.9322 7.1587 17.9307 7.31724 17.9167 7.4036C17.8942 7.54252 17.8192 7.64164 17.7989 7.66843L17.7975 7.67023C17.7366 7.75101 17.6493 7.83507 17.5607 7.91366Z" fill="white"/>
</svg>
