<svg width="24" height="24" viewBox="0 0 24 24" fill="none" xmlns="http://www.w3.org/2000/svg">
<path d="M19.9744 19.9481L14.0287 10.605L19.9162 4.125C19.9735 4.07187 20.019 4.0074 20.05 3.9357C20.081 3.864 20.0966 3.78664 20.0961 3.70854C20.0955 3.63045 20.0786 3.55333 20.0466 3.4821C20.0146 3.41086 19.9681 3.34708 19.9101 3.29481C19.8521 3.24253 19.7838 3.20292 19.7096 3.17848C19.6354 3.15404 19.557 3.14531 19.4792 3.15285C19.4015 3.1604 19.3262 3.18404 19.2581 3.22229C19.19 3.26054 19.1306 3.31254 19.0837 3.375L13.4062 9.62062L9.47812 3.44812C9.42701 3.36776 9.35633 3.30168 9.2727 3.2561C9.18907 3.21051 9.09524 3.18691 9 3.1875H4.5C4.39924 3.18754 4.30034 3.21466 4.21364 3.266C4.12694 3.31735 4.05562 3.39104 4.00714 3.47937C3.95866 3.56771 3.9348 3.66744 3.93805 3.76815C3.9413 3.86886 3.97155 3.96685 4.02563 4.05187L9.97125 13.395L4.08375 19.875C3.9994 19.9874 3.96014 20.1272 3.97371 20.2671C3.98728 20.4069 4.0527 20.5366 4.15708 20.6306C4.26147 20.7247 4.39727 20.7763 4.53776 20.7752C4.67826 20.7742 4.81327 20.7206 4.91625 20.625L10.5938 14.3794L14.5219 20.5519C14.573 20.6322 14.6437 20.6983 14.7273 20.7439C14.8109 20.7895 14.9048 20.8131 15 20.8125H19.5C19.6008 20.8125 19.6997 20.7853 19.7864 20.734C19.8731 20.6827 19.9444 20.609 19.9929 20.5206C20.0413 20.4323 20.0652 20.3326 20.0619 20.2318C20.0587 20.1311 20.0285 20.0331 19.9744 19.9481ZM15.3084 19.6875L5.52469 4.3125H8.69156L18.4753 19.6875H15.3084Z" fill="white"/>
</svg>
