<svg width="260" height="260" viewBox="0 0 260 260" fill="none" xmlns="http://www.w3.org/2000/svg">
<path d="M77.2974 14.0541H70.2703V21.0811H77.2974V14.0541Z" fill="white"/>
<path d="M84.3244 14.0541H77.2974V21.0811H84.3244V14.0541Z" fill="white"/>
<path d="M98.3784 14.0541H91.3514V21.0811H98.3784V14.0541Z" fill="white"/>
<path d="M105.405 14.0541H98.3784V21.0811H105.405V14.0541Z" fill="white"/>
<path d="M133.514 14.0541H126.487V21.0811H133.514V14.0541Z" fill="white"/>
<path d="M147.568 14.0541H140.541V21.0811H147.568V14.0541Z" fill="white"/>
<path d="M161.622 14.0541H154.595V21.0811H161.622V14.0541Z" fill="white"/>
<path d="M175.676 14.0541H168.649V21.0811H175.676V14.0541Z" fill="white"/>
<path d="M189.73 14.0541H182.703V21.0811H189.73V14.0541Z" fill="white"/>
<path d="M84.3244 21.0811H77.2974V28.1081H84.3244V21.0811Z" fill="white"/>
<path d="M98.3784 21.0811H91.3514V28.1081H98.3784V21.0811Z" fill="white"/>
<path d="M112.432 21.0811H105.405V28.1081H112.432V21.0811Z" fill="white"/>
<path d="M133.514 21.0811H126.487V28.1081H133.514V21.0811Z" fill="white"/>
<path d="M140.541 21.0811H133.514V28.1081H140.541V21.0811Z" fill="white"/>
<path d="M147.568 21.0811H140.541V28.1081H147.568V21.0811Z" fill="white"/>
<path d="M154.595 21.0811H147.568V28.1081H154.595V21.0811Z" fill="white"/>
<path d="M189.73 21.0811H182.703V28.1081H189.73V21.0811Z" fill="white"/>
<path d="M77.2974 28.1082H70.2703V35.1352H77.2974V28.1082Z" fill="white"/>
<path d="M105.405 28.1082H98.3784V35.1352H105.405V28.1082Z" fill="white"/>
<path d="M112.432 28.1082H105.405V35.1352H112.432V28.1082Z" fill="white"/>
<path d="M140.541 28.1082H133.514V35.1352H140.541V28.1082Z" fill="white"/>
<path d="M147.568 28.1082H140.541V35.1352H147.568V28.1082Z" fill="white"/>
<path d="M161.622 28.1082H154.595V35.1352H161.622V28.1082Z" fill="white"/>
<path d="M168.649 28.1082H161.622V35.1352H168.649V28.1082Z" fill="white"/>
<path d="M175.676 28.1082H168.649V35.1352H175.676V28.1082Z" fill="white"/>
<path d="M182.703 28.1082H175.676V35.1352H182.703V28.1082Z" fill="white"/>
<path d="M189.73 28.1082H182.703V35.1352H189.73V28.1082Z" fill="white"/>
<path d="M84.3244 35.1351H77.2974V42.1622H84.3244V35.1351Z" fill="white"/>
<path d="M105.405 35.1351H98.3784V42.1622H105.405V35.1351Z" fill="white"/>
<path d="M112.432 35.1351H105.405V42.1622H112.432V35.1351Z" fill="white"/>
<path d="M119.46 35.1351H112.432V42.1622H119.46V35.1351Z" fill="white"/>
<path d="M126.486 35.1351H119.459V42.1622H126.486V35.1351Z" fill="white"/>
<path d="M140.541 35.1351H133.514V42.1622H140.541V35.1351Z" fill="white"/>
<path d="M147.568 35.1351H140.541V42.1622H147.568V35.1351Z" fill="white"/>
<path d="M154.595 35.1351H147.568V42.1622H154.595V35.1351Z" fill="white"/>
<path d="M168.649 35.1351H161.622V42.1622H168.649V35.1351Z" fill="white"/>
<path d="M182.703 35.1351H175.676V42.1622H182.703V35.1351Z" fill="white"/>
<path d="M77.2974 42.1622H70.2703V49.1892H77.2974V42.1622Z" fill="white"/>
<path d="M84.3244 42.1622H77.2974V49.1892H84.3244V42.1622Z" fill="white"/>
<path d="M126.486 42.1622H119.459V49.1892H126.486V42.1622Z" fill="white"/>
<path d="M161.622 42.1622H154.595V49.1892H161.622V42.1622Z" fill="white"/>
<path d="M168.649 42.1622H161.622V49.1892H168.649V42.1622Z" fill="white"/>
<path d="M175.676 42.1622H168.649V49.1892H175.676V42.1622Z" fill="white"/>
<path d="M91.3514 49.1892H84.3243V56.2162H91.3514V49.1892Z" fill="white"/>
<path d="M98.3784 49.1892H91.3514V56.2162H98.3784V49.1892Z" fill="white"/>
<path d="M133.514 49.1892H126.487V56.2162H133.514V49.1892Z" fill="white"/>
<path d="M175.676 49.1892H168.649V56.2162H175.676V49.1892Z" fill="white"/>
<path d="M189.73 49.1892H182.703V56.2162H189.73V49.1892Z" fill="white"/>
<path d="M77.2974 56.2162H70.2703V63.2433H77.2974V56.2162Z" fill="white"/>
<path d="M91.3514 56.2162H84.3243V63.2433H91.3514V56.2162Z" fill="white"/>
<path d="M105.405 56.2162H98.3784V63.2433H105.405V56.2162Z" fill="white"/>
<path d="M119.46 56.2162H112.432V63.2433H119.46V56.2162Z" fill="white"/>
<path d="M133.514 56.2162H126.487V63.2433H133.514V56.2162Z" fill="white"/>
<path d="M147.568 56.2162H140.541V63.2433H147.568V56.2162Z" fill="white"/>
<path d="M161.622 56.2162H154.595V63.2433H161.622V56.2162Z" fill="white"/>
<path d="M175.676 56.2162H168.649V63.2433H175.676V56.2162Z" fill="white"/>
<path d="M189.73 56.2162H182.703V63.2433H189.73V56.2162Z" fill="white"/>
<path d="M77.2974 63.2433H70.2703V70.2703H77.2974V63.2433Z" fill="white"/>
<path d="M84.3244 63.2433H77.2974V70.2703H84.3244V63.2433Z" fill="white"/>
<path d="M105.405 63.2433H98.3784V70.2703H105.405V63.2433Z" fill="white"/>
<path d="M119.46 63.2433H112.432V70.2703H119.46V63.2433Z" fill="white"/>
<path d="M133.514 63.2433H126.487V70.2703H133.514V63.2433Z" fill="white"/>
<path d="M161.622 63.2433H154.595V70.2703H161.622V63.2433Z" fill="white"/>
<path d="M175.676 63.2433H168.649V70.2703H175.676V63.2433Z" fill="white"/>
<path d="M189.73 63.2433H182.703V70.2703H189.73V63.2433Z" fill="white"/>
<path d="M56.2162 70.2703H49.1892V77.2973H56.2162V70.2703Z" fill="white"/>
<path d="M63.2433 70.2703H56.2162V77.2973H63.2433V70.2703Z" fill="white"/>
<path d="M119.46 70.2703H112.432V77.2973H119.46V70.2703Z" fill="white"/>
<path d="M126.486 70.2703H119.459V77.2973H126.486V70.2703Z" fill="white"/>
<path d="M133.514 70.2703H126.487V77.2973H133.514V70.2703Z" fill="white"/>
<path d="M154.595 70.2703H147.568V77.2973H154.595V70.2703Z" fill="white"/>
<path d="M175.676 70.2703H168.649V77.2973H175.676V70.2703Z" fill="white"/>
<path d="M182.703 70.2703H175.676V77.2973H182.703V70.2703Z" fill="white"/>
<path d="M189.73 70.2703H182.703V77.2973H189.73V70.2703Z" fill="white"/>
<path d="M203.784 70.2703H196.757V77.2973H203.784V70.2703Z" fill="white"/>
<path d="M217.838 70.2703H210.811V77.2973H217.838V70.2703Z" fill="white"/>
<path d="M231.892 70.2703H224.865V77.2973H231.892V70.2703Z" fill="white"/>
<path d="M245.946 70.2703H238.919V77.2973H245.946V70.2703Z" fill="white"/>
<path d="M28.1081 77.2973H21.0811V84.3243H28.1081V77.2973Z" fill="white"/>
<path d="M35.1352 77.2973H28.1082V84.3243H35.1352V77.2973Z" fill="white"/>
<path d="M70.2703 77.2973H63.2433V84.3243H70.2703V77.2973Z" fill="white"/>
<path d="M84.3244 77.2973H77.2974V84.3243H84.3244V77.2973Z" fill="white"/>
<path d="M91.3514 77.2973H84.3243V84.3243H91.3514V77.2973Z" fill="white"/>
<path d="M98.3784 77.2973H91.3514V84.3243H98.3784V77.2973Z" fill="white"/>
<path d="M119.46 77.2973H112.432V84.3243H119.46V77.2973Z" fill="white"/>
<path d="M140.541 77.2973H133.514V84.3243H140.541V77.2973Z" fill="white"/>
<path d="M147.568 77.2973H140.541V84.3243H147.568V77.2973Z" fill="white"/>
<path d="M154.595 77.2973H147.568V84.3243H154.595V77.2973Z" fill="white"/>
<path d="M175.676 77.2973H168.649V84.3243H175.676V77.2973Z" fill="white"/>
<path d="M182.703 77.2973H175.676V84.3243H182.703V77.2973Z" fill="white"/>
<path d="M196.757 77.2973H189.73V84.3243H196.757V77.2973Z" fill="white"/>
<path d="M210.811 77.2973H203.784V84.3243H210.811V77.2973Z" fill="white"/>
<path d="M217.838 77.2973H210.811V84.3243H217.838V77.2973Z" fill="white"/>
<path d="M224.865 77.2973H217.838V84.3243H224.865V77.2973Z" fill="white"/>
<path d="M21.0811 84.3243H14.0541V91.3514H21.0811V84.3243Z" fill="white"/>
<path d="M35.1352 84.3243H28.1082V91.3514H35.1352V84.3243Z" fill="white"/>
<path d="M42.1622 84.3243H35.1352V91.3514H42.1622V84.3243Z" fill="white"/>
<path d="M49.1893 84.3243H42.1622V91.3514H49.1893V84.3243Z" fill="white"/>
<path d="M56.2162 84.3243H49.1892V91.3514H56.2162V84.3243Z" fill="white"/>
<path d="M63.2433 84.3243H56.2162V91.3514H63.2433V84.3243Z" fill="white"/>
<path d="M91.3514 84.3243H84.3243V91.3514H91.3514V84.3243Z" fill="white"/>
<path d="M112.432 84.3243H105.405V91.3514H112.432V84.3243Z" fill="white"/>
<path d="M140.541 84.3243H133.514V91.3514H140.541V84.3243Z" fill="white"/>
<path d="M154.595 84.3243H147.568V91.3514H154.595V84.3243Z" fill="white"/>
<path d="M168.649 84.3243H161.622V91.3514H168.649V84.3243Z" fill="white"/>
<path d="M175.676 84.3243H168.649V91.3514H175.676V84.3243Z" fill="white"/>
<path d="M189.73 84.3243H182.703V91.3514H189.73V84.3243Z" fill="white"/>
<path d="M196.757 84.3243H189.73V91.3514H196.757V84.3243Z" fill="white"/>
<path d="M210.811 84.3243H203.784V91.3514H210.811V84.3243Z" fill="white"/>
<path d="M238.919 84.3243H231.892V91.3514H238.919V84.3243Z" fill="white"/>
<path d="M21.0811 91.3514H14.0541V98.3784H21.0811V91.3514Z" fill="white"/>
<path d="M28.1081 91.3514H21.0811V98.3784H28.1081V91.3514Z" fill="white"/>
<path d="M42.1622 91.3514H35.1352V98.3784H42.1622V91.3514Z" fill="white"/>
<path d="M49.1893 91.3514H42.1622V98.3784H49.1893V91.3514Z" fill="white"/>
<path d="M70.2703 91.3514H63.2433V98.3784H70.2703V91.3514Z" fill="white"/>
<path d="M91.3514 91.3514H84.3243V98.3784H91.3514V91.3514Z" fill="white"/>
<path d="M210.811 91.3514H203.784V98.3784H210.811V91.3514Z" fill="white"/>
<path d="M224.865 91.3514H217.838V98.3784H224.865V91.3514Z" fill="white"/>
<path d="M231.892 91.3514H224.865V98.3784H231.892V91.3514Z" fill="white"/>
<path d="M245.946 91.3514H238.919V98.3784H245.946V91.3514Z" fill="white"/>
<path d="M42.1622 98.3784H35.1352V105.405H42.1622V98.3784Z" fill="white"/>
<path d="M63.2433 98.3784H56.2162V105.405H63.2433V98.3784Z" fill="white"/>
<path d="M70.2703 98.3784H63.2433V105.405H70.2703V98.3784Z" fill="white"/>
<path d="M175.676 98.3784H168.649V105.405H175.676V98.3784Z" fill="white"/>
<path d="M182.703 98.3784H175.676V105.405H182.703V98.3784Z" fill="white"/>
<path d="M189.73 98.3784H182.703V105.405H189.73V98.3784Z" fill="white"/>
<path d="M203.784 98.3784H196.757V105.405H203.784V98.3784Z" fill="white"/>
<path d="M210.811 98.3784H203.784V105.405H210.811V98.3784Z" fill="white"/>
<path d="M238.919 98.3784H231.892V105.405H238.919V98.3784Z" fill="white"/>
<path d="M245.946 98.3784H238.919V105.405H245.946V98.3784Z" fill="white"/>
<path d="M49.1893 105.405H42.1622V112.432H49.1893V105.405Z" fill="white"/>
<path d="M56.2162 105.405H49.1892V112.432H56.2162V105.405Z" fill="white"/>
<path d="M70.2703 105.405H63.2433V112.432H70.2703V105.405Z" fill="white"/>
<path d="M77.2974 105.405H70.2703V112.432H77.2974V105.405Z" fill="white"/>
<path d="M91.3514 105.405H84.3243V112.432H91.3514V105.405Z" fill="white"/>
<path d="M182.703 105.405H175.676V112.432H182.703V105.405Z" fill="white"/>
<path d="M203.784 105.405H196.757V112.432H203.784V105.405Z" fill="white"/>
<path d="M210.811 105.405H203.784V112.432H210.811V105.405Z" fill="white"/>
<path d="M231.892 105.405H224.865V112.432H231.892V105.405Z" fill="white"/>
<path d="M245.946 105.405H238.919V112.432H245.946V105.405Z" fill="white"/>
<path d="M28.1081 112.432H21.0811V119.459H28.1081V112.432Z" fill="white"/>
<path d="M42.1622 112.432H35.1352V119.459H42.1622V112.432Z" fill="white"/>
<path d="M49.1893 112.432H42.1622V119.459H49.1893V112.432Z" fill="white"/>
<path d="M56.2162 112.432H49.1892V119.459H56.2162V112.432Z" fill="white"/>
<path d="M63.2433 112.432H56.2162V119.459H63.2433V112.432Z" fill="white"/>
<path d="M70.2703 112.432H63.2433V119.459H70.2703V112.432Z" fill="white"/>
<path d="M77.2974 112.432H70.2703V119.459H77.2974V112.432Z" fill="white"/>
<path d="M84.3244 112.432H77.2974V119.459H84.3244V112.432Z" fill="white"/>
<path d="M175.676 112.432H168.649V119.459H175.676V112.432Z" fill="white"/>
<path d="M189.73 112.432H182.703V119.459H189.73V112.432Z" fill="white"/>
<path d="M203.784 112.432H196.757V119.459H203.784V112.432Z" fill="white"/>
<path d="M224.865 112.432H217.838V119.459H224.865V112.432Z" fill="white"/>
<path d="M238.919 112.432H231.892V119.459H238.919V112.432Z" fill="white"/>
<path d="M21.0811 119.459H14.0541V126.486H21.0811V119.459Z" fill="white"/>
<path d="M35.1352 119.459H28.1082V126.486H35.1352V119.459Z" fill="white"/>
<path d="M49.1893 119.459H42.1622V126.486H49.1893V119.459Z" fill="white"/>
<path d="M56.2162 119.459H49.1892V126.486H56.2162V119.459Z" fill="white"/>
<path d="M77.2974 119.459H70.2703V126.486H77.2974V119.459Z" fill="white"/>
<path d="M217.838 119.459H210.811V126.486H217.838V119.459Z" fill="white"/>
<path d="M231.892 119.459H224.865V126.486H231.892V119.459Z" fill="white"/>
<path d="M238.919 119.459H231.892V126.486H238.919V119.459Z" fill="white"/>
<path d="M245.946 119.459H238.919V126.486H245.946V119.459Z" fill="white"/>
<path d="M35.1352 126.487H28.1082V133.514H35.1352V126.487Z" fill="white"/>
<path d="M56.2162 126.487H49.1892V133.514H56.2162V126.487Z" fill="white"/>
<path d="M63.2433 126.487H56.2162V133.514H63.2433V126.487Z" fill="white"/>
<path d="M70.2703 126.487H63.2433V133.514H70.2703V126.487Z" fill="white"/>
<path d="M77.2974 126.487H70.2703V133.514H77.2974V126.487Z" fill="white"/>
<path d="M91.3514 126.487H84.3243V133.514H91.3514V126.487Z" fill="white"/>
<path d="M182.703 126.487H175.676V133.514H182.703V126.487Z" fill="white"/>
<path d="M217.838 126.487H210.811V133.514H217.838V126.487Z" fill="white"/>
<path d="M21.0811 133.514H14.0541V140.541H21.0811V133.514Z" fill="white"/>
<path d="M35.1352 133.514H28.1082V140.541H35.1352V133.514Z" fill="white"/>
<path d="M42.1622 133.514H35.1352V140.541H42.1622V133.514Z" fill="white"/>
<path d="M70.2703 133.514H63.2433V140.541H70.2703V133.514Z" fill="white"/>
<path d="M77.2974 133.514H70.2703V140.541H77.2974V133.514Z" fill="white"/>
<path d="M182.703 133.514H175.676V140.541H182.703V133.514Z" fill="white"/>
<path d="M189.73 133.514H182.703V140.541H189.73V133.514Z" fill="white"/>
<path d="M203.784 133.514H196.757V140.541H203.784V133.514Z" fill="white"/>
<path d="M210.811 133.514H203.784V140.541H210.811V133.514Z" fill="white"/>
<path d="M238.919 133.514H231.892V140.541H238.919V133.514Z" fill="white"/>
<path d="M245.946 133.514H238.919V140.541H245.946V133.514Z" fill="white"/>
<path d="M28.1081 140.541H21.0811V147.568H28.1081V140.541Z" fill="white"/>
<path d="M42.1622 140.541H35.1352V147.568H42.1622V140.541Z" fill="white"/>
<path d="M56.2162 140.541H49.1892V147.568H56.2162V140.541Z" fill="white"/>
<path d="M63.2433 140.541H56.2162V147.568H63.2433V140.541Z" fill="white"/>
<path d="M77.2974 140.541H70.2703V147.568H77.2974V140.541Z" fill="white"/>
<path d="M182.703 140.541H175.676V147.568H182.703V140.541Z" fill="white"/>
<path d="M217.838 140.541H210.811V147.568H217.838V140.541Z" fill="white"/>
<path d="M224.865 140.541H217.838V147.568H224.865V140.541Z" fill="white"/>
<path d="M231.892 140.541H224.865V147.568H231.892V140.541Z" fill="white"/>
<path d="M245.946 140.541H238.919V147.568H245.946V140.541Z" fill="white"/>
<path d="M21.0811 147.568H14.0541V154.595H21.0811V147.568Z" fill="white"/>
<path d="M42.1622 147.568H35.1352V154.595H42.1622V147.568Z" fill="white"/>
<path d="M77.2974 147.568H70.2703V154.595H77.2974V147.568Z" fill="white"/>
<path d="M84.3244 147.568H77.2974V154.595H84.3244V147.568Z" fill="white"/>
<path d="M182.703 147.568H175.676V154.595H182.703V147.568Z" fill="white"/>
<path d="M189.73 147.568H182.703V154.595H189.73V147.568Z" fill="white"/>
<path d="M217.838 147.568H210.811V154.595H217.838V147.568Z" fill="white"/>
<path d="M224.865 147.568H217.838V154.595H224.865V147.568Z" fill="white"/>
<path d="M231.892 147.568H224.865V154.595H231.892V147.568Z" fill="white"/>
<path d="M238.919 147.568H231.892V154.595H238.919V147.568Z" fill="white"/>
<path d="M28.1081 154.595H21.0811V161.622H28.1081V154.595Z" fill="white"/>
<path d="M63.2433 154.595H56.2162V161.622H63.2433V154.595Z" fill="white"/>
<path d="M77.2974 154.595H70.2703V161.622H77.2974V154.595Z" fill="white"/>
<path d="M84.3244 154.595H77.2974V161.622H84.3244V154.595Z" fill="white"/>
<path d="M91.3514 154.595H84.3243V161.622H91.3514V154.595Z" fill="white"/>
<path d="M175.676 154.595H168.649V161.622H175.676V154.595Z" fill="white"/>
<path d="M196.757 154.595H189.73V161.622H196.757V154.595Z" fill="white"/>
<path d="M217.838 154.595H210.811V161.622H217.838V154.595Z" fill="white"/>
<path d="M224.865 154.595H217.838V161.622H224.865V154.595Z" fill="white"/>
<path d="M238.919 154.595H231.892V161.622H238.919V154.595Z" fill="white"/>
<path d="M245.946 154.595H238.919V161.622H245.946V154.595Z" fill="white"/>
<path d="M21.0811 161.622H14.0541V168.649H21.0811V161.622Z" fill="white"/>
<path d="M28.1081 161.622H21.0811V168.649H28.1081V161.622Z" fill="white"/>
<path d="M42.1622 161.622H35.1352V168.649H42.1622V161.622Z" fill="white"/>
<path d="M49.1893 161.622H42.1622V168.649H49.1893V161.622Z" fill="white"/>
<path d="M56.2162 161.622H49.1892V168.649H56.2162V161.622Z" fill="white"/>
<path d="M84.3244 161.622H77.2974V168.649H84.3244V161.622Z" fill="white"/>
<path d="M182.703 161.622H175.676V168.649H182.703V161.622Z" fill="white"/>
<path d="M210.811 161.622H203.784V168.649H210.811V161.622Z" fill="white"/>
<path d="M217.838 161.622H210.811V168.649H217.838V161.622Z" fill="white"/>
<path d="M224.865 161.622H217.838V168.649H224.865V161.622Z" fill="white"/>
<path d="M231.892 161.622H224.865V168.649H231.892V161.622Z" fill="white"/>
<path d="M21.0811 168.649H14.0541V175.676H21.0811V168.649Z" fill="white"/>
<path d="M56.2162 168.649H49.1892V175.676H56.2162V168.649Z" fill="white"/>
<path d="M63.2433 168.649H56.2162V175.676H63.2433V168.649Z" fill="white"/>
<path d="M70.2703 168.649H63.2433V175.676H70.2703V168.649Z" fill="white"/>
<path d="M77.2974 168.649H70.2703V175.676H77.2974V168.649Z" fill="white"/>
<path d="M84.3244 168.649H77.2974V175.676H84.3244V168.649Z" fill="white"/>
<path d="M98.3784 168.649H91.3514V175.676H98.3784V168.649Z" fill="white"/>
<path d="M119.46 168.649H112.432V175.676H119.46V168.649Z" fill="white"/>
<path d="M133.514 168.649H126.487V175.676H133.514V168.649Z" fill="white"/>
<path d="M147.568 168.649H140.541V175.676H147.568V168.649Z" fill="white"/>
<path d="M154.595 168.649H147.568V175.676H154.595V168.649Z" fill="white"/>
<path d="M168.649 168.649H161.622V175.676H168.649V168.649Z" fill="white"/>
<path d="M210.811 168.649H203.784V175.676H210.811V168.649Z" fill="white"/>
<path d="M217.838 168.649H210.811V175.676H217.838V168.649Z" fill="white"/>
<path d="M224.865 168.649H217.838V175.676H224.865V168.649Z" fill="white"/>
<path d="M231.892 168.649H224.865V175.676H231.892V168.649Z" fill="white"/>
<path d="M21.0811 175.676H14.0541V182.703H21.0811V175.676Z" fill="white"/>
<path d="M35.1352 175.676H28.1082V182.703H35.1352V175.676Z" fill="white"/>
<path d="M42.1622 175.676H35.1352V182.703H42.1622V175.676Z" fill="white"/>
<path d="M49.1893 175.676H42.1622V182.703H49.1893V175.676Z" fill="white"/>
<path d="M70.2703 175.676H63.2433V182.703H70.2703V175.676Z" fill="white"/>
<path d="M77.2974 175.676H70.2703V182.703H77.2974V175.676Z" fill="white"/>
<path d="M112.432 175.676H105.405V182.703H112.432V175.676Z" fill="white"/>
<path d="M126.486 175.676H119.459V182.703H126.486V175.676Z" fill="white"/>
<path d="M140.541 175.676H133.514V182.703H140.541V175.676Z" fill="white"/>
<path d="M154.595 175.676H147.568V182.703H154.595V175.676Z" fill="white"/>
<path d="M161.622 175.676H154.595V182.703H161.622V175.676Z" fill="white"/>
<path d="M175.676 175.676H168.649V182.703H175.676V175.676Z" fill="white"/>
<path d="M210.811 175.676H203.784V182.703H210.811V175.676Z" fill="white"/>
<path d="M217.838 175.676H210.811V182.703H217.838V175.676Z" fill="white"/>
<path d="M224.865 175.676H217.838V182.703H224.865V175.676Z" fill="white"/>
<path d="M231.892 175.676H224.865V182.703H231.892V175.676Z" fill="white"/>
<path d="M238.919 175.676H231.892V182.703H238.919V175.676Z" fill="white"/>
<path d="M21.0811 182.703H14.0541V189.73H21.0811V182.703Z" fill="white"/>
<path d="M28.1081 182.703H21.0811V189.73H28.1081V182.703Z" fill="white"/>
<path d="M42.1622 182.703H35.1352V189.73H42.1622V182.703Z" fill="white"/>
<path d="M49.1893 182.703H42.1622V189.73H49.1893V182.703Z" fill="white"/>
<path d="M56.2162 182.703H49.1892V189.73H56.2162V182.703Z" fill="white"/>
<path d="M63.2433 182.703H56.2162V189.73H63.2433V182.703Z" fill="white"/>
<path d="M84.3244 182.703H77.2974V189.73H84.3244V182.703Z" fill="white"/>
<path d="M98.3784 182.703H91.3514V189.73H98.3784V182.703Z" fill="white"/>
<path d="M105.405 182.703H98.3784V189.73H105.405V182.703Z" fill="white"/>
<path d="M112.432 182.703H105.405V189.73H112.432V182.703Z" fill="white"/>
<path d="M119.46 182.703H112.432V189.73H119.46V182.703Z" fill="white"/>
<path d="M126.486 182.703H119.459V189.73H126.486V182.703Z" fill="white"/>
<path d="M140.541 182.703H133.514V189.73H140.541V182.703Z" fill="white"/>
<path d="M182.703 182.703H175.676V189.73H182.703V182.703Z" fill="white"/>
<path d="M189.73 182.703H182.703V189.73H189.73V182.703Z" fill="white"/>
<path d="M196.757 182.703H189.73V189.73H196.757V182.703Z" fill="white"/>
<path d="M203.784 182.703H196.757V189.73H203.784V182.703Z" fill="white"/>
<path d="M210.811 182.703H203.784V189.73H210.811V182.703Z" fill="white"/>
<path d="M217.838 182.703H210.811V189.73H217.838V182.703Z" fill="white"/>
<path d="M224.865 182.703H217.838V189.73H224.865V182.703Z" fill="white"/>
<path d="M238.919 182.703H231.892V189.73H238.919V182.703Z" fill="white"/>
<path d="M77.2974 189.73H70.2703V196.757H77.2974V189.73Z" fill="white"/>
<path d="M84.3244 189.73H77.2974V196.757H84.3244V189.73Z" fill="white"/>
<path d="M91.3514 189.73H84.3243V196.757H91.3514V189.73Z" fill="white"/>
<path d="M105.405 189.73H98.3784V196.757H105.405V189.73Z" fill="white"/>
<path d="M119.46 189.73H112.432V196.757H119.46V189.73Z" fill="white"/>
<path d="M133.514 189.73H126.487V196.757H133.514V189.73Z" fill="white"/>
<path d="M147.568 189.73H140.541V196.757H147.568V189.73Z" fill="white"/>
<path d="M154.595 189.73H147.568V196.757H154.595V189.73Z" fill="white"/>
<path d="M168.649 189.73H161.622V196.757H168.649V189.73Z" fill="white"/>
<path d="M182.703 189.73H175.676V196.757H182.703V189.73Z" fill="white"/>
<path d="M189.73 189.73H182.703V196.757H189.73V189.73Z" fill="white"/>
<path d="M217.838 189.73H210.811V196.757H217.838V189.73Z" fill="white"/>
<path d="M238.919 189.73H231.892V196.757H238.919V189.73Z" fill="white"/>
<path d="M245.946 189.73H238.919V196.757H245.946V189.73Z" fill="white"/>
<path d="M91.3514 196.757H84.3243V203.784H91.3514V196.757Z" fill="white"/>
<path d="M105.405 196.757H98.3784V203.784H105.405V196.757Z" fill="white"/>
<path d="M112.432 196.757H105.405V203.784H112.432V196.757Z" fill="white"/>
<path d="M119.46 196.757H112.432V203.784H119.46V196.757Z" fill="white"/>
<path d="M147.568 196.757H140.541V203.784H147.568V196.757Z" fill="white"/>
<path d="M175.676 196.757H168.649V203.784H175.676V196.757Z" fill="white"/>
<path d="M182.703 196.757H175.676V203.784H182.703V196.757Z" fill="white"/>
<path d="M189.73 196.757H182.703V203.784H189.73V196.757Z" fill="white"/>
<path d="M203.784 196.757H196.757V203.784H203.784V196.757Z" fill="white"/>
<path d="M217.838 196.757H210.811V203.784H217.838V196.757Z" fill="white"/>
<path d="M231.892 196.757H224.865V203.784H231.892V196.757Z" fill="white"/>
<path d="M238.919 196.757H231.892V203.784H238.919V196.757Z" fill="white"/>
<path d="M77.2974 203.784H70.2703V210.811H77.2974V203.784Z" fill="white"/>
<path d="M84.3244 203.784H77.2974V210.811H84.3244V203.784Z" fill="white"/>
<path d="M98.3784 203.784H91.3514V210.811H98.3784V203.784Z" fill="white"/>
<path d="M105.405 203.784H98.3784V210.811H105.405V203.784Z" fill="white"/>
<path d="M133.514 203.784H126.487V210.811H133.514V203.784Z" fill="white"/>
<path d="M147.568 203.784H140.541V210.811H147.568V203.784Z" fill="white"/>
<path d="M168.649 203.784H161.622V210.811H168.649V203.784Z" fill="white"/>
<path d="M175.676 203.784H168.649V210.811H175.676V203.784Z" fill="white"/>
<path d="M182.703 203.784H175.676V210.811H182.703V203.784Z" fill="white"/>
<path d="M189.73 203.784H182.703V210.811H189.73V203.784Z" fill="white"/>
<path d="M217.838 203.784H210.811V210.811H217.838V203.784Z" fill="white"/>
<path d="M224.865 203.784H217.838V210.811H224.865V203.784Z" fill="white"/>
<path d="M231.892 203.784H224.865V210.811H231.892V203.784Z" fill="white"/>
<path d="M238.919 203.784H231.892V210.811H238.919V203.784Z" fill="white"/>
<path d="M84.3244 210.811H77.2974V217.838H84.3244V210.811Z" fill="white"/>
<path d="M98.3784 210.811H91.3514V217.838H98.3784V210.811Z" fill="white"/>
<path d="M126.486 210.811H119.459V217.838H126.486V210.811Z" fill="white"/>
<path d="M133.514 210.811H126.487V217.838H133.514V210.811Z" fill="white"/>
<path d="M140.541 210.811H133.514V217.838H140.541V210.811Z" fill="white"/>
<path d="M147.568 210.811H140.541V217.838H147.568V210.811Z" fill="white"/>
<path d="M161.622 210.811H154.595V217.838H161.622V210.811Z" fill="white"/>
<path d="M168.649 210.811H161.622V217.838H168.649V210.811Z" fill="white"/>
<path d="M175.676 210.811H168.649V217.838H175.676V210.811Z" fill="white"/>
<path d="M189.73 210.811H182.703V217.838H189.73V210.811Z" fill="white"/>
<path d="M196.757 210.811H189.73V217.838H196.757V210.811Z" fill="white"/>
<path d="M203.784 210.811H196.757V217.838H203.784V210.811Z" fill="white"/>
<path d="M210.811 210.811H203.784V217.838H210.811V210.811Z" fill="white"/>
<path d="M217.838 210.811H210.811V217.838H217.838V210.811Z" fill="white"/>
<path d="M224.865 210.811H217.838V217.838H224.865V210.811Z" fill="white"/>
<path d="M238.919 210.811H231.892V217.838H238.919V210.811Z" fill="white"/>
<path d="M245.946 210.811H238.919V217.838H245.946V210.811Z" fill="white"/>
<path d="M91.3514 217.838H84.3243V224.865H91.3514V217.838Z" fill="white"/>
<path d="M119.46 217.838H112.432V224.865H119.46V217.838Z" fill="white"/>
<path d="M147.568 217.838H140.541V224.865H147.568V217.838Z" fill="white"/>
<path d="M182.703 217.838H175.676V224.865H182.703V217.838Z" fill="white"/>
<path d="M196.757 217.838H189.73V224.865H196.757V217.838Z" fill="white"/>
<path d="M210.811 217.838H203.784V224.865H210.811V217.838Z" fill="white"/>
<path d="M217.838 217.838H210.811V224.865H217.838V217.838Z" fill="white"/>
<path d="M224.865 217.838H217.838V224.865H224.865V217.838Z" fill="white"/>
<path d="M245.946 217.838H238.919V224.865H245.946V217.838Z" fill="white"/>
<path d="M84.3244 224.865H77.2974V231.892H84.3244V224.865Z" fill="white"/>
<path d="M98.3784 224.865H91.3514V231.892H98.3784V224.865Z" fill="white"/>
<path d="M112.432 224.865H105.405V231.892H112.432V224.865Z" fill="white"/>
<path d="M126.486 224.865H119.459V231.892H126.486V224.865Z" fill="white"/>
<path d="M133.514 224.865H126.487V231.892H133.514V224.865Z" fill="white"/>
<path d="M140.541 224.865H133.514V231.892H140.541V224.865Z" fill="white"/>
<path d="M147.568 224.865H140.541V231.892H147.568V224.865Z" fill="white"/>
<path d="M161.622 224.865H154.595V231.892H161.622V224.865Z" fill="white"/>
<path d="M168.649 224.865H161.622V231.892H168.649V224.865Z" fill="white"/>
<path d="M217.838 224.865H210.811V231.892H217.838V224.865Z" fill="white"/>
<path d="M238.919 224.865H231.892V231.892H238.919V224.865Z" fill="white"/>
<path d="M245.946 224.865H238.919V231.892H245.946V224.865Z" fill="white"/>
<path d="M91.3514 231.892H84.3243V238.919H91.3514V231.892Z" fill="white"/>
<path d="M98.3784 231.892H91.3514V238.919H98.3784V231.892Z" fill="white"/>
<path d="M105.405 231.892H98.3784V238.919H105.405V231.892Z" fill="white"/>
<path d="M112.432 231.892H105.405V238.919H112.432V231.892Z" fill="white"/>
<path d="M119.46 231.892H112.432V238.919H119.46V231.892Z" fill="white"/>
<path d="M126.486 231.892H119.459V238.919H126.486V231.892Z" fill="white"/>
<path d="M133.514 231.892H126.487V238.919H133.514V231.892Z" fill="white"/>
<path d="M140.541 231.892H133.514V238.919H140.541V231.892Z" fill="white"/>
<path d="M147.568 231.892H140.541V238.919H147.568V231.892Z" fill="white"/>
<path d="M154.595 231.892H147.568V238.919H154.595V231.892Z" fill="white"/>
<path d="M161.622 231.892H154.595V238.919H161.622V231.892Z" fill="white"/>
<path d="M168.649 231.892H161.622V238.919H168.649V231.892Z" fill="white"/>
<path d="M224.865 231.892H217.838V238.919H224.865V231.892Z" fill="white"/>
<path d="M231.892 231.892H224.865V238.919H231.892V231.892Z" fill="white"/>
<path d="M84.3244 238.919H77.2974V245.946H84.3244V238.919Z" fill="white"/>
<path d="M119.46 238.919H112.432V245.946H119.46V238.919Z" fill="white"/>
<path d="M126.486 238.919H119.459V245.946H126.486V238.919Z" fill="white"/>
<path d="M140.541 238.919H133.514V245.946H140.541V238.919Z" fill="white"/>
<path d="M154.595 238.919H147.568V245.946H154.595V238.919Z" fill="white"/>
<path d="M161.622 238.919H154.595V245.946H161.622V238.919Z" fill="white"/>
<path d="M182.703 238.919H175.676V245.946H182.703V238.919Z" fill="white"/>
<path d="M189.73 238.919H182.703V245.946H189.73V238.919Z" fill="white"/>
<path d="M196.757 238.919H189.73V245.946H196.757V238.919Z" fill="white"/>
<path d="M231.892 238.919H224.865V245.946H231.892V238.919Z" fill="white"/>
<path d="M238.919 238.919H231.892V245.946H238.919V238.919Z" fill="white"/>
<path d="M63.2433 14.0541V30.8478V46.4496C63.2433 50.6263 63.2433 63.2433 63.2433 63.2433C63.2433 63.2433 51.6641 63.2433 46.6419 63.2433H14.0541L14.0639 30.8478C14.0639 21.5899 21.5112 14.0541 30.6702 14.0541H46.6419H63.2433ZM55.8649 21.4325H30.6702C25.5821 21.4325 21.4423 25.6559 21.4423 30.8497L21.4344 55.8649H55.8649V21.4325Z" fill="white"/>
<path d="M196.757 14.0541V30.8478V46.4496C196.757 50.6263 196.757 63.2433 196.757 63.2433C196.757 63.2433 208.336 63.2433 213.358 63.2433H245.946L245.936 30.8478C245.936 21.5899 238.489 14.0541 229.33 14.0541H213.358H196.757ZM204.135 21.4325H229.33C234.418 21.4325 238.558 25.6559 238.558 30.8497L238.566 55.8649H204.135V21.4325Z" fill="white"/>
<path d="M63.2433 245.946V229.152V213.55C63.2433 209.374 63.2433 196.757 63.2433 196.757C63.2433 196.757 51.6641 196.757 46.6419 196.757H14.0541L14.0639 229.152C14.0639 238.41 21.5112 245.946 30.6702 245.946H46.6419H63.2433ZM55.8649 238.568H30.6702C25.5821 238.568 21.4423 234.344 21.4423 229.15L21.4344 204.135H55.8649V238.568Z" fill="white"/>
<path d="M49.1892 28.1082H28.1082V49.1892H49.1892V28.1082Z" fill="white"/>
<path d="M231.892 28.1082H210.811V49.1892H231.892V28.1082Z" fill="white"/>
<path d="M49.1892 210.811H28.1082V231.892H49.1892V210.811Z" fill="white"/>
<path d="M147.247 122.108L138.825 126.278C138.885 135.693 138.917 140.4 138.92 140.4C141.566 141.984 144.389 143.34 147.346 144.447C147.346 143.938 147.346 143.399 147.346 142.83L147.247 122.108Z" fill="url(#paint0_linear_145_5298)"/>
<path d="M159.959 137.163L159.994 124.528L159.959 115.809L151.39 120.068L151.472 134.153C151.472 137.498 151.776 141.957 151.169 145.529C153.024 145.9 154.762 145.937 156.171 145.48C158.937 144.581 160.254 141.716 159.959 137.163Z" fill="url(#paint1_linear_145_5298)"/>
<path d="M118.205 103.861C126.35 99.6992 128.924 98.3241 137.155 102.65L158.152 113.134L149.522 117.34L135.27 110.205C130.164 107.648 122.652 103.3 118.205 103.861Z" fill="url(#paint2_linear_145_5298)"/>
<path d="M105.47 110.157C113.637 105.991 116.211 104.62 124.447 108.942L145.439 119.425L136.813 123.632L122.561 116.497C117.451 113.94 109.944 109.592 105.47 110.157Z" fill="url(#paint3_linear_145_5298)"/>
<path d="M112.753 137.906L121.179 133.722C121.115 124.307 121.084 119.6 121.084 119.6C118.436 118.021 115.612 116.671 112.653 115.571C112.653 116.077 112.653 116.616 112.653 117.184L112.753 137.906Z" fill="url(#paint4_linear_145_5298)"/>
<path d="M100.039 122.848L100 135.465L100.044 144.183L108.609 139.943L108.526 125.858C108.505 122.514 108.227 118.054 108.83 114.483C106.979 114.111 105.237 114.074 103.828 114.531C101.067 115.43 99.749 118.296 100.039 122.848Z" fill="url(#paint5_linear_145_5298)"/>
<path d="M141.815 156.139C133.649 160.301 131.074 161.676 122.843 157.35L101.851 146.866L110.476 142.66L124.728 149.799C129.839 152.355 137.346 156.703 141.815 156.142V156.139Z" fill="url(#paint6_linear_145_5298)"/>
<path d="M154.528 149.843C146.379 154.009 143.779 155.373 135.543 151.058L114.56 140.575L123.19 136.368L137.442 143.503C142.548 146.06 150.059 150.408 154.528 149.843Z" fill="url(#paint7_linear_145_5298)"/>
<defs>
<linearGradient id="paint0_linear_145_5298" x1="137.997" y1="139.568" x2="150.743" y2="125.213" gradientUnits="userSpaceOnUse">
<stop stop-color="#4B31B0"/>
<stop offset="0.09" stop-color="#5D41C3"/>
<stop offset="0.21" stop-color="#7152D7"/>
<stop offset="0.34" stop-color="#7C5CE3"/>
<stop offset="0.46" stop-color="#805FE7"/>
<stop offset="0.55" stop-color="#8065E8"/>
<stop offset="0.67" stop-color="#7F76EC"/>
<stop offset="0.81" stop-color="#7E93F3"/>
<stop offset="0.95" stop-color="#7CBAFC"/>
<stop offset="1" stop-color="#7BC8FF"/>
</linearGradient>
<linearGradient id="paint1_linear_145_5298" x1="145.131" y1="140.155" x2="163.752" y2="119.185" gradientUnits="userSpaceOnUse">
<stop stop-color="#4B31B0"/>
<stop offset="0.09" stop-color="#5D41C3"/>
<stop offset="0.21" stop-color="#7152D7"/>
<stop offset="0.34" stop-color="#7C5CE3"/>
<stop offset="0.46" stop-color="#805FE7"/>
<stop offset="0.55" stop-color="#8065E8"/>
<stop offset="0.67" stop-color="#7F76EC"/>
<stop offset="0.81" stop-color="#7E93F3"/>
<stop offset="0.95" stop-color="#7CBAFC"/>
<stop offset="1" stop-color="#7BC8FF"/>
</linearGradient>
<linearGradient id="paint2_linear_145_5298" x1="130.528" y1="114.824" x2="143.544" y2="100.165" gradientUnits="userSpaceOnUse">
<stop stop-color="#4B31B0"/>
<stop offset="0.09" stop-color="#5D41C3"/>
<stop offset="0.21" stop-color="#7152D7"/>
<stop offset="0.34" stop-color="#7C5CE3"/>
<stop offset="0.46" stop-color="#805FE7"/>
<stop offset="0.55" stop-color="#8065E8"/>
<stop offset="0.67" stop-color="#7F76EC"/>
<stop offset="0.81" stop-color="#7E93F3"/>
<stop offset="0.95" stop-color="#7CBAFC"/>
<stop offset="1" stop-color="#7BC8FF"/>
</linearGradient>
<linearGradient id="paint3_linear_145_5298" x1="117.815" y1="121.116" x2="130.831" y2="106.456" gradientUnits="userSpaceOnUse">
<stop stop-color="#4B31B0"/>
<stop offset="0.09" stop-color="#5D41C3"/>
<stop offset="0.21" stop-color="#7152D7"/>
<stop offset="0.34" stop-color="#7C5CE3"/>
<stop offset="0.46" stop-color="#805FE7"/>
<stop offset="0.55" stop-color="#8065E8"/>
<stop offset="0.67" stop-color="#7F76EC"/>
<stop offset="0.81" stop-color="#7E93F3"/>
<stop offset="0.95" stop-color="#7CBAFC"/>
<stop offset="1" stop-color="#7BC8FF"/>
</linearGradient>
<linearGradient id="paint4_linear_145_5298" x1="108.713" y1="131.436" x2="121.459" y2="117.082" gradientUnits="userSpaceOnUse">
<stop stop-color="#4B31B0"/>
<stop offset="0.09" stop-color="#5D41C3"/>
<stop offset="0.21" stop-color="#7152D7"/>
<stop offset="0.34" stop-color="#7C5CE3"/>
<stop offset="0.46" stop-color="#805FE7"/>
<stop offset="0.61" stop-color="#8069E7"/>
<stop offset="0.85" stop-color="#8082E6"/>
<stop offset="1" stop-color="#8095E6"/>
</linearGradient>
<linearGradient id="paint5_linear_145_5298" x1="95.2758" y1="136.067" x2="113.897" y2="115.097" gradientUnits="userSpaceOnUse">
<stop stop-color="#4B31B0"/>
<stop offset="0.09" stop-color="#5D41C3"/>
<stop offset="0.21" stop-color="#7152D7"/>
<stop offset="0.34" stop-color="#7C5CE3"/>
<stop offset="0.46" stop-color="#805FE7"/>
<stop offset="0.61" stop-color="#8069E7"/>
<stop offset="0.85" stop-color="#8082E6"/>
<stop offset="1" stop-color="#8095E6"/>
</linearGradient>
<linearGradient id="paint6_linear_145_5298" x1="116.293" y1="156.087" x2="129.309" y2="141.427" gradientUnits="userSpaceOnUse">
<stop stop-color="#4B31B0"/>
<stop offset="0.09" stop-color="#5D41C3"/>
<stop offset="0.21" stop-color="#7152D7"/>
<stop offset="0.34" stop-color="#7C5CE3"/>
<stop offset="0.46" stop-color="#805FE7"/>
<stop offset="0.61" stop-color="#8069E7"/>
<stop offset="0.85" stop-color="#8082E6"/>
<stop offset="1" stop-color="#8095E6"/>
</linearGradient>
<linearGradient id="paint7_linear_145_5298" x1="128.062" y1="150.575" x2="141.082" y2="135.915" gradientUnits="userSpaceOnUse">
<stop stop-color="#4B31B0"/>
<stop offset="0.09" stop-color="#5D41C3"/>
<stop offset="0.21" stop-color="#7152D7"/>
<stop offset="0.34" stop-color="#7C5CE3"/>
<stop offset="0.46" stop-color="#805FE7"/>
<stop offset="0.61" stop-color="#8069E7"/>
<stop offset="0.85" stop-color="#8082E6"/>
<stop offset="1" stop-color="#8095E6"/>
</linearGradient>
</defs>
</svg>
