<svg width="64" height="64" viewBox="0 0 64 64" fill="none" xmlns="http://www.w3.org/2000/svg">
<path d="M50.3964 23.5823L41.413 28.0299C41.4777 38.0722 41.5116 43.0933 41.5147 43.0933C44.3371 44.7832 47.3478 46.2292 50.5027 47.4102C50.5027 46.8671 50.5027 46.2923 50.5027 45.6858L50.3964 23.5823Z" fill="white"/>
<path d="M63.9568 39.6407L63.9938 26.1629L63.9568 16.8633L54.8161 21.4061L54.904 36.4298C54.904 39.9975 55.2276 44.7543 54.5804 48.5638C56.5592 48.9602 58.4132 48.9998 59.9158 48.5123C62.8656 47.553 64.2712 44.4967 63.9568 39.6407Z" fill="white"/>
<path d="M19.4186 4.11885C28.1062 -0.32089 30.8525 -1.78759 39.6325 2.82657L62.0286 14.0092L52.8233 18.4965L37.6213 10.8855C32.1748 8.15821 24.1623 3.52027 19.4186 4.11885Z" fill="white"/>
<path d="M5.83508 10.834C14.5457 6.39027 17.2921 4.92753 26.0767 9.53772L48.4682 20.7203L39.2675 25.2076L24.0655 17.5966C18.6144 14.8694 10.6065 10.2314 5.83508 10.834Z" fill="white"/>
<path d="M13.6029 40.4336L22.5909 35.97C22.5231 25.9278 22.4892 20.9066 22.4892 20.9066C19.6652 19.2223 16.6528 17.7829 13.4965 16.6096C13.4965 17.1487 13.4965 17.7235 13.4965 18.33L13.6029 40.4336Z" fill="white"/>
<path d="M0.0420874 24.3712L0.000476081 37.8291L0.0467109 47.1288L9.18271 42.6058L9.09486 27.582C9.07174 24.0144 8.77584 19.2575 9.4185 15.4481C7.44428 15.0517 5.58564 15.012 4.08301 15.4996C1.13785 16.4589 -0.267686 19.5152 0.0420874 24.3712Z" fill="white"/>
<path d="M44.6024 59.8813C35.8918 64.321 33.1454 65.7877 24.3655 61.1736L1.97394 49.991L11.1747 45.5037L26.3767 53.1186C31.8277 55.8459 39.8356 60.4838 44.6024 59.8852V59.8813Z" fill="white"/>
<path d="M58.1636 53.1661C49.4714 57.6098 46.6973 59.0646 37.9127 54.4624L15.5305 43.2798L24.7358 38.7925L39.9378 46.4035C45.3843 49.1307 53.3968 53.7687 58.1636 53.1661Z" fill="white"/>
</svg>
